G75*
%MOIN*%
%OFA0B0*%
%FSLAX25Y25*%
%IPPOS*%
%LPD*%
%AMOC8*
5,1,8,0,0,1.08239X$1,22.5*
%
%ADD10C,0.00000*%
%ADD11C,0.00600*%
%ADD12C,0.01200*%
%ADD13C,0.00700*%
%ADD14C,0.00500*%
%ADD15C,0.00800*%
%ADD16C,0.01000*%
%ADD17R,0.02400X0.03400*%
D10*
X0001800Y0001800D02*
X0001800Y0198650D01*
X0198650Y0198650D01*
X0198650Y0001800D01*
X0001800Y0001800D01*
X0003001Y0009300D02*
X0003003Y0009458D01*
X0003009Y0009616D01*
X0003019Y0009774D01*
X0003033Y0009932D01*
X0003051Y0010089D01*
X0003072Y0010246D01*
X0003098Y0010402D01*
X0003128Y0010558D01*
X0003161Y0010713D01*
X0003199Y0010866D01*
X0003240Y0011019D01*
X0003285Y0011171D01*
X0003334Y0011322D01*
X0003387Y0011471D01*
X0003443Y0011619D01*
X0003503Y0011765D01*
X0003567Y0011910D01*
X0003635Y0012053D01*
X0003706Y0012195D01*
X0003780Y0012335D01*
X0003858Y0012472D01*
X0003940Y0012608D01*
X0004024Y0012742D01*
X0004113Y0012873D01*
X0004204Y0013002D01*
X0004299Y0013129D01*
X0004396Y0013254D01*
X0004497Y0013376D01*
X0004601Y0013495D01*
X0004708Y0013612D01*
X0004818Y0013726D01*
X0004931Y0013837D01*
X0005046Y0013946D01*
X0005164Y0014051D01*
X0005285Y0014153D01*
X0005408Y0014253D01*
X0005534Y0014349D01*
X0005662Y0014442D01*
X0005792Y0014532D01*
X0005925Y0014618D01*
X0006060Y0014702D01*
X0006196Y0014781D01*
X0006335Y0014858D01*
X0006476Y0014930D01*
X0006618Y0015000D01*
X0006762Y0015065D01*
X0006908Y0015127D01*
X0007055Y0015185D01*
X0007204Y0015240D01*
X0007354Y0015291D01*
X0007505Y0015338D01*
X0007657Y0015381D01*
X0007810Y0015420D01*
X0007965Y0015456D01*
X0008120Y0015487D01*
X0008276Y0015515D01*
X0008432Y0015539D01*
X0008589Y0015559D01*
X0008747Y0015575D01*
X0008904Y0015587D01*
X0009063Y0015595D01*
X0009221Y0015599D01*
X0009379Y0015599D01*
X0009537Y0015595D01*
X0009696Y0015587D01*
X0009853Y0015575D01*
X0010011Y0015559D01*
X0010168Y0015539D01*
X0010324Y0015515D01*
X0010480Y0015487D01*
X0010635Y0015456D01*
X0010790Y0015420D01*
X0010943Y0015381D01*
X0011095Y0015338D01*
X0011246Y0015291D01*
X0011396Y0015240D01*
X0011545Y0015185D01*
X0011692Y0015127D01*
X0011838Y0015065D01*
X0011982Y0015000D01*
X0012124Y0014930D01*
X0012265Y0014858D01*
X0012404Y0014781D01*
X0012540Y0014702D01*
X0012675Y0014618D01*
X0012808Y0014532D01*
X0012938Y0014442D01*
X0013066Y0014349D01*
X0013192Y0014253D01*
X0013315Y0014153D01*
X0013436Y0014051D01*
X0013554Y0013946D01*
X0013669Y0013837D01*
X0013782Y0013726D01*
X0013892Y0013612D01*
X0013999Y0013495D01*
X0014103Y0013376D01*
X0014204Y0013254D01*
X0014301Y0013129D01*
X0014396Y0013002D01*
X0014487Y0012873D01*
X0014576Y0012742D01*
X0014660Y0012608D01*
X0014742Y0012472D01*
X0014820Y0012335D01*
X0014894Y0012195D01*
X0014965Y0012053D01*
X0015033Y0011910D01*
X0015097Y0011765D01*
X0015157Y0011619D01*
X0015213Y0011471D01*
X0015266Y0011322D01*
X0015315Y0011171D01*
X0015360Y0011019D01*
X0015401Y0010866D01*
X0015439Y0010713D01*
X0015472Y0010558D01*
X0015502Y0010402D01*
X0015528Y0010246D01*
X0015549Y0010089D01*
X0015567Y0009932D01*
X0015581Y0009774D01*
X0015591Y0009616D01*
X0015597Y0009458D01*
X0015599Y0009300D01*
X0015597Y0009142D01*
X0015591Y0008984D01*
X0015581Y0008826D01*
X0015567Y0008668D01*
X0015549Y0008511D01*
X0015528Y0008354D01*
X0015502Y0008198D01*
X0015472Y0008042D01*
X0015439Y0007887D01*
X0015401Y0007734D01*
X0015360Y0007581D01*
X0015315Y0007429D01*
X0015266Y0007278D01*
X0015213Y0007129D01*
X0015157Y0006981D01*
X0015097Y0006835D01*
X0015033Y0006690D01*
X0014965Y0006547D01*
X0014894Y0006405D01*
X0014820Y0006265D01*
X0014742Y0006128D01*
X0014660Y0005992D01*
X0014576Y0005858D01*
X0014487Y0005727D01*
X0014396Y0005598D01*
X0014301Y0005471D01*
X0014204Y0005346D01*
X0014103Y0005224D01*
X0013999Y0005105D01*
X0013892Y0004988D01*
X0013782Y0004874D01*
X0013669Y0004763D01*
X0013554Y0004654D01*
X0013436Y0004549D01*
X0013315Y0004447D01*
X0013192Y0004347D01*
X0013066Y0004251D01*
X0012938Y0004158D01*
X0012808Y0004068D01*
X0012675Y0003982D01*
X0012540Y0003898D01*
X0012404Y0003819D01*
X0012265Y0003742D01*
X0012124Y0003670D01*
X0011982Y0003600D01*
X0011838Y0003535D01*
X0011692Y0003473D01*
X0011545Y0003415D01*
X0011396Y0003360D01*
X0011246Y0003309D01*
X0011095Y0003262D01*
X0010943Y0003219D01*
X0010790Y0003180D01*
X0010635Y0003144D01*
X0010480Y0003113D01*
X0010324Y0003085D01*
X0010168Y0003061D01*
X0010011Y0003041D01*
X0009853Y0003025D01*
X0009696Y0003013D01*
X0009537Y0003005D01*
X0009379Y0003001D01*
X0009221Y0003001D01*
X0009063Y0003005D01*
X0008904Y0003013D01*
X0008747Y0003025D01*
X0008589Y0003041D01*
X0008432Y0003061D01*
X0008276Y0003085D01*
X0008120Y0003113D01*
X0007965Y0003144D01*
X0007810Y0003180D01*
X0007657Y0003219D01*
X0007505Y0003262D01*
X0007354Y0003309D01*
X0007204Y0003360D01*
X0007055Y0003415D01*
X0006908Y0003473D01*
X0006762Y0003535D01*
X0006618Y0003600D01*
X0006476Y0003670D01*
X0006335Y0003742D01*
X0006196Y0003819D01*
X0006060Y0003898D01*
X0005925Y0003982D01*
X0005792Y0004068D01*
X0005662Y0004158D01*
X0005534Y0004251D01*
X0005408Y0004347D01*
X0005285Y0004447D01*
X0005164Y0004549D01*
X0005046Y0004654D01*
X0004931Y0004763D01*
X0004818Y0004874D01*
X0004708Y0004988D01*
X0004601Y0005105D01*
X0004497Y0005224D01*
X0004396Y0005346D01*
X0004299Y0005471D01*
X0004204Y0005598D01*
X0004113Y0005727D01*
X0004024Y0005858D01*
X0003940Y0005992D01*
X0003858Y0006128D01*
X0003780Y0006265D01*
X0003706Y0006405D01*
X0003635Y0006547D01*
X0003567Y0006690D01*
X0003503Y0006835D01*
X0003443Y0006981D01*
X0003387Y0007129D01*
X0003334Y0007278D01*
X0003285Y0007429D01*
X0003240Y0007581D01*
X0003199Y0007734D01*
X0003161Y0007887D01*
X0003128Y0008042D01*
X0003098Y0008198D01*
X0003072Y0008354D01*
X0003051Y0008511D01*
X0003033Y0008668D01*
X0003019Y0008826D01*
X0003009Y0008984D01*
X0003003Y0009142D01*
X0003001Y0009300D01*
X0034083Y0186800D02*
X0034085Y0186888D01*
X0034091Y0186976D01*
X0034101Y0187064D01*
X0034115Y0187152D01*
X0034132Y0187238D01*
X0034154Y0187324D01*
X0034179Y0187408D01*
X0034209Y0187492D01*
X0034241Y0187574D01*
X0034278Y0187654D01*
X0034318Y0187733D01*
X0034362Y0187810D01*
X0034409Y0187885D01*
X0034459Y0187957D01*
X0034513Y0188028D01*
X0034569Y0188095D01*
X0034629Y0188161D01*
X0034691Y0188223D01*
X0034757Y0188283D01*
X0034824Y0188339D01*
X0034895Y0188393D01*
X0034967Y0188443D01*
X0035042Y0188490D01*
X0035119Y0188534D01*
X0035198Y0188574D01*
X0035278Y0188611D01*
X0035360Y0188643D01*
X0035444Y0188673D01*
X0035528Y0188698D01*
X0035614Y0188720D01*
X0035700Y0188737D01*
X0035788Y0188751D01*
X0035876Y0188761D01*
X0035964Y0188767D01*
X0036052Y0188769D01*
X0036140Y0188767D01*
X0036228Y0188761D01*
X0036316Y0188751D01*
X0036404Y0188737D01*
X0036490Y0188720D01*
X0036576Y0188698D01*
X0036660Y0188673D01*
X0036744Y0188643D01*
X0036826Y0188611D01*
X0036906Y0188574D01*
X0036985Y0188534D01*
X0037062Y0188490D01*
X0037137Y0188443D01*
X0037209Y0188393D01*
X0037280Y0188339D01*
X0037347Y0188283D01*
X0037413Y0188223D01*
X0037475Y0188161D01*
X0037535Y0188095D01*
X0037591Y0188028D01*
X0037645Y0187957D01*
X0037695Y0187885D01*
X0037742Y0187810D01*
X0037786Y0187733D01*
X0037826Y0187654D01*
X0037863Y0187574D01*
X0037895Y0187492D01*
X0037925Y0187408D01*
X0037950Y0187324D01*
X0037972Y0187238D01*
X0037989Y0187152D01*
X0038003Y0187064D01*
X0038013Y0186976D01*
X0038019Y0186888D01*
X0038021Y0186800D01*
X0038019Y0186712D01*
X0038013Y0186624D01*
X0038003Y0186536D01*
X0037989Y0186448D01*
X0037972Y0186362D01*
X0037950Y0186276D01*
X0037925Y0186192D01*
X0037895Y0186108D01*
X0037863Y0186026D01*
X0037826Y0185946D01*
X0037786Y0185867D01*
X0037742Y0185790D01*
X0037695Y0185715D01*
X0037645Y0185643D01*
X0037591Y0185572D01*
X0037535Y0185505D01*
X0037475Y0185439D01*
X0037413Y0185377D01*
X0037347Y0185317D01*
X0037280Y0185261D01*
X0037209Y0185207D01*
X0037137Y0185157D01*
X0037062Y0185110D01*
X0036985Y0185066D01*
X0036906Y0185026D01*
X0036826Y0184989D01*
X0036744Y0184957D01*
X0036660Y0184927D01*
X0036576Y0184902D01*
X0036490Y0184880D01*
X0036404Y0184863D01*
X0036316Y0184849D01*
X0036228Y0184839D01*
X0036140Y0184833D01*
X0036052Y0184831D01*
X0035964Y0184833D01*
X0035876Y0184839D01*
X0035788Y0184849D01*
X0035700Y0184863D01*
X0035614Y0184880D01*
X0035528Y0184902D01*
X0035444Y0184927D01*
X0035360Y0184957D01*
X0035278Y0184989D01*
X0035198Y0185026D01*
X0035119Y0185066D01*
X0035042Y0185110D01*
X0034967Y0185157D01*
X0034895Y0185207D01*
X0034824Y0185261D01*
X0034757Y0185317D01*
X0034691Y0185377D01*
X0034629Y0185439D01*
X0034569Y0185505D01*
X0034513Y0185572D01*
X0034459Y0185643D01*
X0034409Y0185715D01*
X0034362Y0185790D01*
X0034318Y0185867D01*
X0034278Y0185946D01*
X0034241Y0186026D01*
X0034209Y0186108D01*
X0034179Y0186192D01*
X0034154Y0186276D01*
X0034132Y0186362D01*
X0034115Y0186448D01*
X0034101Y0186536D01*
X0034091Y0186624D01*
X0034085Y0186712D01*
X0034083Y0186800D01*
X0042351Y0186800D02*
X0042353Y0186879D01*
X0042359Y0186958D01*
X0042369Y0187037D01*
X0042383Y0187115D01*
X0042400Y0187192D01*
X0042422Y0187268D01*
X0042447Y0187343D01*
X0042477Y0187416D01*
X0042509Y0187488D01*
X0042546Y0187559D01*
X0042586Y0187627D01*
X0042629Y0187693D01*
X0042675Y0187757D01*
X0042725Y0187819D01*
X0042778Y0187878D01*
X0042833Y0187934D01*
X0042892Y0187988D01*
X0042953Y0188038D01*
X0043016Y0188086D01*
X0043082Y0188130D01*
X0043150Y0188171D01*
X0043220Y0188208D01*
X0043291Y0188242D01*
X0043365Y0188272D01*
X0043439Y0188298D01*
X0043515Y0188320D01*
X0043592Y0188339D01*
X0043670Y0188354D01*
X0043748Y0188365D01*
X0043827Y0188372D01*
X0043906Y0188375D01*
X0043985Y0188374D01*
X0044064Y0188369D01*
X0044143Y0188360D01*
X0044221Y0188347D01*
X0044298Y0188330D01*
X0044375Y0188310D01*
X0044450Y0188285D01*
X0044524Y0188257D01*
X0044597Y0188225D01*
X0044667Y0188190D01*
X0044736Y0188151D01*
X0044803Y0188108D01*
X0044868Y0188062D01*
X0044930Y0188014D01*
X0044990Y0187962D01*
X0045047Y0187907D01*
X0045101Y0187849D01*
X0045152Y0187789D01*
X0045200Y0187726D01*
X0045245Y0187661D01*
X0045287Y0187593D01*
X0045325Y0187524D01*
X0045359Y0187453D01*
X0045390Y0187380D01*
X0045418Y0187305D01*
X0045441Y0187230D01*
X0045461Y0187153D01*
X0045477Y0187076D01*
X0045489Y0186997D01*
X0045497Y0186919D01*
X0045501Y0186840D01*
X0045501Y0186760D01*
X0045497Y0186681D01*
X0045489Y0186603D01*
X0045477Y0186524D01*
X0045461Y0186447D01*
X0045441Y0186370D01*
X0045418Y0186295D01*
X0045390Y0186220D01*
X0045359Y0186147D01*
X0045325Y0186076D01*
X0045287Y0186007D01*
X0045245Y0185939D01*
X0045200Y0185874D01*
X0045152Y0185811D01*
X0045101Y0185751D01*
X0045047Y0185693D01*
X0044990Y0185638D01*
X0044930Y0185586D01*
X0044868Y0185538D01*
X0044803Y0185492D01*
X0044736Y0185449D01*
X0044667Y0185410D01*
X0044597Y0185375D01*
X0044524Y0185343D01*
X0044450Y0185315D01*
X0044375Y0185290D01*
X0044298Y0185270D01*
X0044221Y0185253D01*
X0044143Y0185240D01*
X0044064Y0185231D01*
X0043985Y0185226D01*
X0043906Y0185225D01*
X0043827Y0185228D01*
X0043748Y0185235D01*
X0043670Y0185246D01*
X0043592Y0185261D01*
X0043515Y0185280D01*
X0043439Y0185302D01*
X0043365Y0185328D01*
X0043291Y0185358D01*
X0043220Y0185392D01*
X0043150Y0185429D01*
X0043082Y0185470D01*
X0043016Y0185514D01*
X0042953Y0185562D01*
X0042892Y0185612D01*
X0042833Y0185666D01*
X0042778Y0185722D01*
X0042725Y0185781D01*
X0042675Y0185843D01*
X0042629Y0185907D01*
X0042586Y0185973D01*
X0042546Y0186041D01*
X0042509Y0186112D01*
X0042477Y0186184D01*
X0042447Y0186257D01*
X0042422Y0186332D01*
X0042400Y0186408D01*
X0042383Y0186485D01*
X0042369Y0186563D01*
X0042359Y0186642D01*
X0042353Y0186721D01*
X0042351Y0186800D01*
X0050225Y0186800D02*
X0050227Y0186879D01*
X0050233Y0186958D01*
X0050243Y0187037D01*
X0050257Y0187115D01*
X0050274Y0187192D01*
X0050296Y0187268D01*
X0050321Y0187343D01*
X0050351Y0187416D01*
X0050383Y0187488D01*
X0050420Y0187559D01*
X0050460Y0187627D01*
X0050503Y0187693D01*
X0050549Y0187757D01*
X0050599Y0187819D01*
X0050652Y0187878D01*
X0050707Y0187934D01*
X0050766Y0187988D01*
X0050827Y0188038D01*
X0050890Y0188086D01*
X0050956Y0188130D01*
X0051024Y0188171D01*
X0051094Y0188208D01*
X0051165Y0188242D01*
X0051239Y0188272D01*
X0051313Y0188298D01*
X0051389Y0188320D01*
X0051466Y0188339D01*
X0051544Y0188354D01*
X0051622Y0188365D01*
X0051701Y0188372D01*
X0051780Y0188375D01*
X0051859Y0188374D01*
X0051938Y0188369D01*
X0052017Y0188360D01*
X0052095Y0188347D01*
X0052172Y0188330D01*
X0052249Y0188310D01*
X0052324Y0188285D01*
X0052398Y0188257D01*
X0052471Y0188225D01*
X0052541Y0188190D01*
X0052610Y0188151D01*
X0052677Y0188108D01*
X0052742Y0188062D01*
X0052804Y0188014D01*
X0052864Y0187962D01*
X0052921Y0187907D01*
X0052975Y0187849D01*
X0053026Y0187789D01*
X0053074Y0187726D01*
X0053119Y0187661D01*
X0053161Y0187593D01*
X0053199Y0187524D01*
X0053233Y0187453D01*
X0053264Y0187380D01*
X0053292Y0187305D01*
X0053315Y0187230D01*
X0053335Y0187153D01*
X0053351Y0187076D01*
X0053363Y0186997D01*
X0053371Y0186919D01*
X0053375Y0186840D01*
X0053375Y0186760D01*
X0053371Y0186681D01*
X0053363Y0186603D01*
X0053351Y0186524D01*
X0053335Y0186447D01*
X0053315Y0186370D01*
X0053292Y0186295D01*
X0053264Y0186220D01*
X0053233Y0186147D01*
X0053199Y0186076D01*
X0053161Y0186007D01*
X0053119Y0185939D01*
X0053074Y0185874D01*
X0053026Y0185811D01*
X0052975Y0185751D01*
X0052921Y0185693D01*
X0052864Y0185638D01*
X0052804Y0185586D01*
X0052742Y0185538D01*
X0052677Y0185492D01*
X0052610Y0185449D01*
X0052541Y0185410D01*
X0052471Y0185375D01*
X0052398Y0185343D01*
X0052324Y0185315D01*
X0052249Y0185290D01*
X0052172Y0185270D01*
X0052095Y0185253D01*
X0052017Y0185240D01*
X0051938Y0185231D01*
X0051859Y0185226D01*
X0051780Y0185225D01*
X0051701Y0185228D01*
X0051622Y0185235D01*
X0051544Y0185246D01*
X0051466Y0185261D01*
X0051389Y0185280D01*
X0051313Y0185302D01*
X0051239Y0185328D01*
X0051165Y0185358D01*
X0051094Y0185392D01*
X0051024Y0185429D01*
X0050956Y0185470D01*
X0050890Y0185514D01*
X0050827Y0185562D01*
X0050766Y0185612D01*
X0050707Y0185666D01*
X0050652Y0185722D01*
X0050599Y0185781D01*
X0050549Y0185843D01*
X0050503Y0185907D01*
X0050460Y0185973D01*
X0050420Y0186041D01*
X0050383Y0186112D01*
X0050351Y0186184D01*
X0050321Y0186257D01*
X0050296Y0186332D01*
X0050274Y0186408D01*
X0050257Y0186485D01*
X0050243Y0186563D01*
X0050233Y0186642D01*
X0050227Y0186721D01*
X0050225Y0186800D01*
X0058099Y0186800D02*
X0058101Y0186879D01*
X0058107Y0186958D01*
X0058117Y0187037D01*
X0058131Y0187115D01*
X0058148Y0187192D01*
X0058170Y0187268D01*
X0058195Y0187343D01*
X0058225Y0187416D01*
X0058257Y0187488D01*
X0058294Y0187559D01*
X0058334Y0187627D01*
X0058377Y0187693D01*
X0058423Y0187757D01*
X0058473Y0187819D01*
X0058526Y0187878D01*
X0058581Y0187934D01*
X0058640Y0187988D01*
X0058701Y0188038D01*
X0058764Y0188086D01*
X0058830Y0188130D01*
X0058898Y0188171D01*
X0058968Y0188208D01*
X0059039Y0188242D01*
X0059113Y0188272D01*
X0059187Y0188298D01*
X0059263Y0188320D01*
X0059340Y0188339D01*
X0059418Y0188354D01*
X0059496Y0188365D01*
X0059575Y0188372D01*
X0059654Y0188375D01*
X0059733Y0188374D01*
X0059812Y0188369D01*
X0059891Y0188360D01*
X0059969Y0188347D01*
X0060046Y0188330D01*
X0060123Y0188310D01*
X0060198Y0188285D01*
X0060272Y0188257D01*
X0060345Y0188225D01*
X0060415Y0188190D01*
X0060484Y0188151D01*
X0060551Y0188108D01*
X0060616Y0188062D01*
X0060678Y0188014D01*
X0060738Y0187962D01*
X0060795Y0187907D01*
X0060849Y0187849D01*
X0060900Y0187789D01*
X0060948Y0187726D01*
X0060993Y0187661D01*
X0061035Y0187593D01*
X0061073Y0187524D01*
X0061107Y0187453D01*
X0061138Y0187380D01*
X0061166Y0187305D01*
X0061189Y0187230D01*
X0061209Y0187153D01*
X0061225Y0187076D01*
X0061237Y0186997D01*
X0061245Y0186919D01*
X0061249Y0186840D01*
X0061249Y0186760D01*
X0061245Y0186681D01*
X0061237Y0186603D01*
X0061225Y0186524D01*
X0061209Y0186447D01*
X0061189Y0186370D01*
X0061166Y0186295D01*
X0061138Y0186220D01*
X0061107Y0186147D01*
X0061073Y0186076D01*
X0061035Y0186007D01*
X0060993Y0185939D01*
X0060948Y0185874D01*
X0060900Y0185811D01*
X0060849Y0185751D01*
X0060795Y0185693D01*
X0060738Y0185638D01*
X0060678Y0185586D01*
X0060616Y0185538D01*
X0060551Y0185492D01*
X0060484Y0185449D01*
X0060415Y0185410D01*
X0060345Y0185375D01*
X0060272Y0185343D01*
X0060198Y0185315D01*
X0060123Y0185290D01*
X0060046Y0185270D01*
X0059969Y0185253D01*
X0059891Y0185240D01*
X0059812Y0185231D01*
X0059733Y0185226D01*
X0059654Y0185225D01*
X0059575Y0185228D01*
X0059496Y0185235D01*
X0059418Y0185246D01*
X0059340Y0185261D01*
X0059263Y0185280D01*
X0059187Y0185302D01*
X0059113Y0185328D01*
X0059039Y0185358D01*
X0058968Y0185392D01*
X0058898Y0185429D01*
X0058830Y0185470D01*
X0058764Y0185514D01*
X0058701Y0185562D01*
X0058640Y0185612D01*
X0058581Y0185666D01*
X0058526Y0185722D01*
X0058473Y0185781D01*
X0058423Y0185843D01*
X0058377Y0185907D01*
X0058334Y0185973D01*
X0058294Y0186041D01*
X0058257Y0186112D01*
X0058225Y0186184D01*
X0058195Y0186257D01*
X0058170Y0186332D01*
X0058148Y0186408D01*
X0058131Y0186485D01*
X0058117Y0186563D01*
X0058107Y0186642D01*
X0058101Y0186721D01*
X0058099Y0186800D01*
X0065579Y0186800D02*
X0065581Y0186888D01*
X0065587Y0186976D01*
X0065597Y0187064D01*
X0065611Y0187152D01*
X0065628Y0187238D01*
X0065650Y0187324D01*
X0065675Y0187408D01*
X0065705Y0187492D01*
X0065737Y0187574D01*
X0065774Y0187654D01*
X0065814Y0187733D01*
X0065858Y0187810D01*
X0065905Y0187885D01*
X0065955Y0187957D01*
X0066009Y0188028D01*
X0066065Y0188095D01*
X0066125Y0188161D01*
X0066187Y0188223D01*
X0066253Y0188283D01*
X0066320Y0188339D01*
X0066391Y0188393D01*
X0066463Y0188443D01*
X0066538Y0188490D01*
X0066615Y0188534D01*
X0066694Y0188574D01*
X0066774Y0188611D01*
X0066856Y0188643D01*
X0066940Y0188673D01*
X0067024Y0188698D01*
X0067110Y0188720D01*
X0067196Y0188737D01*
X0067284Y0188751D01*
X0067372Y0188761D01*
X0067460Y0188767D01*
X0067548Y0188769D01*
X0067636Y0188767D01*
X0067724Y0188761D01*
X0067812Y0188751D01*
X0067900Y0188737D01*
X0067986Y0188720D01*
X0068072Y0188698D01*
X0068156Y0188673D01*
X0068240Y0188643D01*
X0068322Y0188611D01*
X0068402Y0188574D01*
X0068481Y0188534D01*
X0068558Y0188490D01*
X0068633Y0188443D01*
X0068705Y0188393D01*
X0068776Y0188339D01*
X0068843Y0188283D01*
X0068909Y0188223D01*
X0068971Y0188161D01*
X0069031Y0188095D01*
X0069087Y0188028D01*
X0069141Y0187957D01*
X0069191Y0187885D01*
X0069238Y0187810D01*
X0069282Y0187733D01*
X0069322Y0187654D01*
X0069359Y0187574D01*
X0069391Y0187492D01*
X0069421Y0187408D01*
X0069446Y0187324D01*
X0069468Y0187238D01*
X0069485Y0187152D01*
X0069499Y0187064D01*
X0069509Y0186976D01*
X0069515Y0186888D01*
X0069517Y0186800D01*
X0069515Y0186712D01*
X0069509Y0186624D01*
X0069499Y0186536D01*
X0069485Y0186448D01*
X0069468Y0186362D01*
X0069446Y0186276D01*
X0069421Y0186192D01*
X0069391Y0186108D01*
X0069359Y0186026D01*
X0069322Y0185946D01*
X0069282Y0185867D01*
X0069238Y0185790D01*
X0069191Y0185715D01*
X0069141Y0185643D01*
X0069087Y0185572D01*
X0069031Y0185505D01*
X0068971Y0185439D01*
X0068909Y0185377D01*
X0068843Y0185317D01*
X0068776Y0185261D01*
X0068705Y0185207D01*
X0068633Y0185157D01*
X0068558Y0185110D01*
X0068481Y0185066D01*
X0068402Y0185026D01*
X0068322Y0184989D01*
X0068240Y0184957D01*
X0068156Y0184927D01*
X0068072Y0184902D01*
X0067986Y0184880D01*
X0067900Y0184863D01*
X0067812Y0184849D01*
X0067724Y0184839D01*
X0067636Y0184833D01*
X0067548Y0184831D01*
X0067460Y0184833D01*
X0067372Y0184839D01*
X0067284Y0184849D01*
X0067196Y0184863D01*
X0067110Y0184880D01*
X0067024Y0184902D01*
X0066940Y0184927D01*
X0066856Y0184957D01*
X0066774Y0184989D01*
X0066694Y0185026D01*
X0066615Y0185066D01*
X0066538Y0185110D01*
X0066463Y0185157D01*
X0066391Y0185207D01*
X0066320Y0185261D01*
X0066253Y0185317D01*
X0066187Y0185377D01*
X0066125Y0185439D01*
X0066065Y0185505D01*
X0066009Y0185572D01*
X0065955Y0185643D01*
X0065905Y0185715D01*
X0065858Y0185790D01*
X0065814Y0185867D01*
X0065774Y0185946D01*
X0065737Y0186026D01*
X0065705Y0186108D01*
X0065675Y0186192D01*
X0065650Y0186276D01*
X0065628Y0186362D01*
X0065611Y0186448D01*
X0065597Y0186536D01*
X0065587Y0186624D01*
X0065581Y0186712D01*
X0065579Y0186800D01*
X0003001Y0190550D02*
X0003003Y0190708D01*
X0003009Y0190866D01*
X0003019Y0191024D01*
X0003033Y0191182D01*
X0003051Y0191339D01*
X0003072Y0191496D01*
X0003098Y0191652D01*
X0003128Y0191808D01*
X0003161Y0191963D01*
X0003199Y0192116D01*
X0003240Y0192269D01*
X0003285Y0192421D01*
X0003334Y0192572D01*
X0003387Y0192721D01*
X0003443Y0192869D01*
X0003503Y0193015D01*
X0003567Y0193160D01*
X0003635Y0193303D01*
X0003706Y0193445D01*
X0003780Y0193585D01*
X0003858Y0193722D01*
X0003940Y0193858D01*
X0004024Y0193992D01*
X0004113Y0194123D01*
X0004204Y0194252D01*
X0004299Y0194379D01*
X0004396Y0194504D01*
X0004497Y0194626D01*
X0004601Y0194745D01*
X0004708Y0194862D01*
X0004818Y0194976D01*
X0004931Y0195087D01*
X0005046Y0195196D01*
X0005164Y0195301D01*
X0005285Y0195403D01*
X0005408Y0195503D01*
X0005534Y0195599D01*
X0005662Y0195692D01*
X0005792Y0195782D01*
X0005925Y0195868D01*
X0006060Y0195952D01*
X0006196Y0196031D01*
X0006335Y0196108D01*
X0006476Y0196180D01*
X0006618Y0196250D01*
X0006762Y0196315D01*
X0006908Y0196377D01*
X0007055Y0196435D01*
X0007204Y0196490D01*
X0007354Y0196541D01*
X0007505Y0196588D01*
X0007657Y0196631D01*
X0007810Y0196670D01*
X0007965Y0196706D01*
X0008120Y0196737D01*
X0008276Y0196765D01*
X0008432Y0196789D01*
X0008589Y0196809D01*
X0008747Y0196825D01*
X0008904Y0196837D01*
X0009063Y0196845D01*
X0009221Y0196849D01*
X0009379Y0196849D01*
X0009537Y0196845D01*
X0009696Y0196837D01*
X0009853Y0196825D01*
X0010011Y0196809D01*
X0010168Y0196789D01*
X0010324Y0196765D01*
X0010480Y0196737D01*
X0010635Y0196706D01*
X0010790Y0196670D01*
X0010943Y0196631D01*
X0011095Y0196588D01*
X0011246Y0196541D01*
X0011396Y0196490D01*
X0011545Y0196435D01*
X0011692Y0196377D01*
X0011838Y0196315D01*
X0011982Y0196250D01*
X0012124Y0196180D01*
X0012265Y0196108D01*
X0012404Y0196031D01*
X0012540Y0195952D01*
X0012675Y0195868D01*
X0012808Y0195782D01*
X0012938Y0195692D01*
X0013066Y0195599D01*
X0013192Y0195503D01*
X0013315Y0195403D01*
X0013436Y0195301D01*
X0013554Y0195196D01*
X0013669Y0195087D01*
X0013782Y0194976D01*
X0013892Y0194862D01*
X0013999Y0194745D01*
X0014103Y0194626D01*
X0014204Y0194504D01*
X0014301Y0194379D01*
X0014396Y0194252D01*
X0014487Y0194123D01*
X0014576Y0193992D01*
X0014660Y0193858D01*
X0014742Y0193722D01*
X0014820Y0193585D01*
X0014894Y0193445D01*
X0014965Y0193303D01*
X0015033Y0193160D01*
X0015097Y0193015D01*
X0015157Y0192869D01*
X0015213Y0192721D01*
X0015266Y0192572D01*
X0015315Y0192421D01*
X0015360Y0192269D01*
X0015401Y0192116D01*
X0015439Y0191963D01*
X0015472Y0191808D01*
X0015502Y0191652D01*
X0015528Y0191496D01*
X0015549Y0191339D01*
X0015567Y0191182D01*
X0015581Y0191024D01*
X0015591Y0190866D01*
X0015597Y0190708D01*
X0015599Y0190550D01*
X0015597Y0190392D01*
X0015591Y0190234D01*
X0015581Y0190076D01*
X0015567Y0189918D01*
X0015549Y0189761D01*
X0015528Y0189604D01*
X0015502Y0189448D01*
X0015472Y0189292D01*
X0015439Y0189137D01*
X0015401Y0188984D01*
X0015360Y0188831D01*
X0015315Y0188679D01*
X0015266Y0188528D01*
X0015213Y0188379D01*
X0015157Y0188231D01*
X0015097Y0188085D01*
X0015033Y0187940D01*
X0014965Y0187797D01*
X0014894Y0187655D01*
X0014820Y0187515D01*
X0014742Y0187378D01*
X0014660Y0187242D01*
X0014576Y0187108D01*
X0014487Y0186977D01*
X0014396Y0186848D01*
X0014301Y0186721D01*
X0014204Y0186596D01*
X0014103Y0186474D01*
X0013999Y0186355D01*
X0013892Y0186238D01*
X0013782Y0186124D01*
X0013669Y0186013D01*
X0013554Y0185904D01*
X0013436Y0185799D01*
X0013315Y0185697D01*
X0013192Y0185597D01*
X0013066Y0185501D01*
X0012938Y0185408D01*
X0012808Y0185318D01*
X0012675Y0185232D01*
X0012540Y0185148D01*
X0012404Y0185069D01*
X0012265Y0184992D01*
X0012124Y0184920D01*
X0011982Y0184850D01*
X0011838Y0184785D01*
X0011692Y0184723D01*
X0011545Y0184665D01*
X0011396Y0184610D01*
X0011246Y0184559D01*
X0011095Y0184512D01*
X0010943Y0184469D01*
X0010790Y0184430D01*
X0010635Y0184394D01*
X0010480Y0184363D01*
X0010324Y0184335D01*
X0010168Y0184311D01*
X0010011Y0184291D01*
X0009853Y0184275D01*
X0009696Y0184263D01*
X0009537Y0184255D01*
X0009379Y0184251D01*
X0009221Y0184251D01*
X0009063Y0184255D01*
X0008904Y0184263D01*
X0008747Y0184275D01*
X0008589Y0184291D01*
X0008432Y0184311D01*
X0008276Y0184335D01*
X0008120Y0184363D01*
X0007965Y0184394D01*
X0007810Y0184430D01*
X0007657Y0184469D01*
X0007505Y0184512D01*
X0007354Y0184559D01*
X0007204Y0184610D01*
X0007055Y0184665D01*
X0006908Y0184723D01*
X0006762Y0184785D01*
X0006618Y0184850D01*
X0006476Y0184920D01*
X0006335Y0184992D01*
X0006196Y0185069D01*
X0006060Y0185148D01*
X0005925Y0185232D01*
X0005792Y0185318D01*
X0005662Y0185408D01*
X0005534Y0185501D01*
X0005408Y0185597D01*
X0005285Y0185697D01*
X0005164Y0185799D01*
X0005046Y0185904D01*
X0004931Y0186013D01*
X0004818Y0186124D01*
X0004708Y0186238D01*
X0004601Y0186355D01*
X0004497Y0186474D01*
X0004396Y0186596D01*
X0004299Y0186721D01*
X0004204Y0186848D01*
X0004113Y0186977D01*
X0004024Y0187108D01*
X0003940Y0187242D01*
X0003858Y0187378D01*
X0003780Y0187515D01*
X0003706Y0187655D01*
X0003635Y0187797D01*
X0003567Y0187940D01*
X0003503Y0188085D01*
X0003443Y0188231D01*
X0003387Y0188379D01*
X0003334Y0188528D01*
X0003285Y0188679D01*
X0003240Y0188831D01*
X0003199Y0188984D01*
X0003161Y0189137D01*
X0003128Y0189292D01*
X0003098Y0189448D01*
X0003072Y0189604D01*
X0003051Y0189761D01*
X0003033Y0189918D01*
X0003019Y0190076D01*
X0003009Y0190234D01*
X0003003Y0190392D01*
X0003001Y0190550D01*
X0184251Y0190550D02*
X0184253Y0190708D01*
X0184259Y0190866D01*
X0184269Y0191024D01*
X0184283Y0191182D01*
X0184301Y0191339D01*
X0184322Y0191496D01*
X0184348Y0191652D01*
X0184378Y0191808D01*
X0184411Y0191963D01*
X0184449Y0192116D01*
X0184490Y0192269D01*
X0184535Y0192421D01*
X0184584Y0192572D01*
X0184637Y0192721D01*
X0184693Y0192869D01*
X0184753Y0193015D01*
X0184817Y0193160D01*
X0184885Y0193303D01*
X0184956Y0193445D01*
X0185030Y0193585D01*
X0185108Y0193722D01*
X0185190Y0193858D01*
X0185274Y0193992D01*
X0185363Y0194123D01*
X0185454Y0194252D01*
X0185549Y0194379D01*
X0185646Y0194504D01*
X0185747Y0194626D01*
X0185851Y0194745D01*
X0185958Y0194862D01*
X0186068Y0194976D01*
X0186181Y0195087D01*
X0186296Y0195196D01*
X0186414Y0195301D01*
X0186535Y0195403D01*
X0186658Y0195503D01*
X0186784Y0195599D01*
X0186912Y0195692D01*
X0187042Y0195782D01*
X0187175Y0195868D01*
X0187310Y0195952D01*
X0187446Y0196031D01*
X0187585Y0196108D01*
X0187726Y0196180D01*
X0187868Y0196250D01*
X0188012Y0196315D01*
X0188158Y0196377D01*
X0188305Y0196435D01*
X0188454Y0196490D01*
X0188604Y0196541D01*
X0188755Y0196588D01*
X0188907Y0196631D01*
X0189060Y0196670D01*
X0189215Y0196706D01*
X0189370Y0196737D01*
X0189526Y0196765D01*
X0189682Y0196789D01*
X0189839Y0196809D01*
X0189997Y0196825D01*
X0190154Y0196837D01*
X0190313Y0196845D01*
X0190471Y0196849D01*
X0190629Y0196849D01*
X0190787Y0196845D01*
X0190946Y0196837D01*
X0191103Y0196825D01*
X0191261Y0196809D01*
X0191418Y0196789D01*
X0191574Y0196765D01*
X0191730Y0196737D01*
X0191885Y0196706D01*
X0192040Y0196670D01*
X0192193Y0196631D01*
X0192345Y0196588D01*
X0192496Y0196541D01*
X0192646Y0196490D01*
X0192795Y0196435D01*
X0192942Y0196377D01*
X0193088Y0196315D01*
X0193232Y0196250D01*
X0193374Y0196180D01*
X0193515Y0196108D01*
X0193654Y0196031D01*
X0193790Y0195952D01*
X0193925Y0195868D01*
X0194058Y0195782D01*
X0194188Y0195692D01*
X0194316Y0195599D01*
X0194442Y0195503D01*
X0194565Y0195403D01*
X0194686Y0195301D01*
X0194804Y0195196D01*
X0194919Y0195087D01*
X0195032Y0194976D01*
X0195142Y0194862D01*
X0195249Y0194745D01*
X0195353Y0194626D01*
X0195454Y0194504D01*
X0195551Y0194379D01*
X0195646Y0194252D01*
X0195737Y0194123D01*
X0195826Y0193992D01*
X0195910Y0193858D01*
X0195992Y0193722D01*
X0196070Y0193585D01*
X0196144Y0193445D01*
X0196215Y0193303D01*
X0196283Y0193160D01*
X0196347Y0193015D01*
X0196407Y0192869D01*
X0196463Y0192721D01*
X0196516Y0192572D01*
X0196565Y0192421D01*
X0196610Y0192269D01*
X0196651Y0192116D01*
X0196689Y0191963D01*
X0196722Y0191808D01*
X0196752Y0191652D01*
X0196778Y0191496D01*
X0196799Y0191339D01*
X0196817Y0191182D01*
X0196831Y0191024D01*
X0196841Y0190866D01*
X0196847Y0190708D01*
X0196849Y0190550D01*
X0196847Y0190392D01*
X0196841Y0190234D01*
X0196831Y0190076D01*
X0196817Y0189918D01*
X0196799Y0189761D01*
X0196778Y0189604D01*
X0196752Y0189448D01*
X0196722Y0189292D01*
X0196689Y0189137D01*
X0196651Y0188984D01*
X0196610Y0188831D01*
X0196565Y0188679D01*
X0196516Y0188528D01*
X0196463Y0188379D01*
X0196407Y0188231D01*
X0196347Y0188085D01*
X0196283Y0187940D01*
X0196215Y0187797D01*
X0196144Y0187655D01*
X0196070Y0187515D01*
X0195992Y0187378D01*
X0195910Y0187242D01*
X0195826Y0187108D01*
X0195737Y0186977D01*
X0195646Y0186848D01*
X0195551Y0186721D01*
X0195454Y0186596D01*
X0195353Y0186474D01*
X0195249Y0186355D01*
X0195142Y0186238D01*
X0195032Y0186124D01*
X0194919Y0186013D01*
X0194804Y0185904D01*
X0194686Y0185799D01*
X0194565Y0185697D01*
X0194442Y0185597D01*
X0194316Y0185501D01*
X0194188Y0185408D01*
X0194058Y0185318D01*
X0193925Y0185232D01*
X0193790Y0185148D01*
X0193654Y0185069D01*
X0193515Y0184992D01*
X0193374Y0184920D01*
X0193232Y0184850D01*
X0193088Y0184785D01*
X0192942Y0184723D01*
X0192795Y0184665D01*
X0192646Y0184610D01*
X0192496Y0184559D01*
X0192345Y0184512D01*
X0192193Y0184469D01*
X0192040Y0184430D01*
X0191885Y0184394D01*
X0191730Y0184363D01*
X0191574Y0184335D01*
X0191418Y0184311D01*
X0191261Y0184291D01*
X0191103Y0184275D01*
X0190946Y0184263D01*
X0190787Y0184255D01*
X0190629Y0184251D01*
X0190471Y0184251D01*
X0190313Y0184255D01*
X0190154Y0184263D01*
X0189997Y0184275D01*
X0189839Y0184291D01*
X0189682Y0184311D01*
X0189526Y0184335D01*
X0189370Y0184363D01*
X0189215Y0184394D01*
X0189060Y0184430D01*
X0188907Y0184469D01*
X0188755Y0184512D01*
X0188604Y0184559D01*
X0188454Y0184610D01*
X0188305Y0184665D01*
X0188158Y0184723D01*
X0188012Y0184785D01*
X0187868Y0184850D01*
X0187726Y0184920D01*
X0187585Y0184992D01*
X0187446Y0185069D01*
X0187310Y0185148D01*
X0187175Y0185232D01*
X0187042Y0185318D01*
X0186912Y0185408D01*
X0186784Y0185501D01*
X0186658Y0185597D01*
X0186535Y0185697D01*
X0186414Y0185799D01*
X0186296Y0185904D01*
X0186181Y0186013D01*
X0186068Y0186124D01*
X0185958Y0186238D01*
X0185851Y0186355D01*
X0185747Y0186474D01*
X0185646Y0186596D01*
X0185549Y0186721D01*
X0185454Y0186848D01*
X0185363Y0186977D01*
X0185274Y0187108D01*
X0185190Y0187242D01*
X0185108Y0187378D01*
X0185030Y0187515D01*
X0184956Y0187655D01*
X0184885Y0187797D01*
X0184817Y0187940D01*
X0184753Y0188085D01*
X0184693Y0188231D01*
X0184637Y0188379D01*
X0184584Y0188528D01*
X0184535Y0188679D01*
X0184490Y0188831D01*
X0184449Y0188984D01*
X0184411Y0189137D01*
X0184378Y0189292D01*
X0184348Y0189448D01*
X0184322Y0189604D01*
X0184301Y0189761D01*
X0184283Y0189918D01*
X0184269Y0190076D01*
X0184259Y0190234D01*
X0184253Y0190392D01*
X0184251Y0190550D01*
X0184251Y0009300D02*
X0184253Y0009458D01*
X0184259Y0009616D01*
X0184269Y0009774D01*
X0184283Y0009932D01*
X0184301Y0010089D01*
X0184322Y0010246D01*
X0184348Y0010402D01*
X0184378Y0010558D01*
X0184411Y0010713D01*
X0184449Y0010866D01*
X0184490Y0011019D01*
X0184535Y0011171D01*
X0184584Y0011322D01*
X0184637Y0011471D01*
X0184693Y0011619D01*
X0184753Y0011765D01*
X0184817Y0011910D01*
X0184885Y0012053D01*
X0184956Y0012195D01*
X0185030Y0012335D01*
X0185108Y0012472D01*
X0185190Y0012608D01*
X0185274Y0012742D01*
X0185363Y0012873D01*
X0185454Y0013002D01*
X0185549Y0013129D01*
X0185646Y0013254D01*
X0185747Y0013376D01*
X0185851Y0013495D01*
X0185958Y0013612D01*
X0186068Y0013726D01*
X0186181Y0013837D01*
X0186296Y0013946D01*
X0186414Y0014051D01*
X0186535Y0014153D01*
X0186658Y0014253D01*
X0186784Y0014349D01*
X0186912Y0014442D01*
X0187042Y0014532D01*
X0187175Y0014618D01*
X0187310Y0014702D01*
X0187446Y0014781D01*
X0187585Y0014858D01*
X0187726Y0014930D01*
X0187868Y0015000D01*
X0188012Y0015065D01*
X0188158Y0015127D01*
X0188305Y0015185D01*
X0188454Y0015240D01*
X0188604Y0015291D01*
X0188755Y0015338D01*
X0188907Y0015381D01*
X0189060Y0015420D01*
X0189215Y0015456D01*
X0189370Y0015487D01*
X0189526Y0015515D01*
X0189682Y0015539D01*
X0189839Y0015559D01*
X0189997Y0015575D01*
X0190154Y0015587D01*
X0190313Y0015595D01*
X0190471Y0015599D01*
X0190629Y0015599D01*
X0190787Y0015595D01*
X0190946Y0015587D01*
X0191103Y0015575D01*
X0191261Y0015559D01*
X0191418Y0015539D01*
X0191574Y0015515D01*
X0191730Y0015487D01*
X0191885Y0015456D01*
X0192040Y0015420D01*
X0192193Y0015381D01*
X0192345Y0015338D01*
X0192496Y0015291D01*
X0192646Y0015240D01*
X0192795Y0015185D01*
X0192942Y0015127D01*
X0193088Y0015065D01*
X0193232Y0015000D01*
X0193374Y0014930D01*
X0193515Y0014858D01*
X0193654Y0014781D01*
X0193790Y0014702D01*
X0193925Y0014618D01*
X0194058Y0014532D01*
X0194188Y0014442D01*
X0194316Y0014349D01*
X0194442Y0014253D01*
X0194565Y0014153D01*
X0194686Y0014051D01*
X0194804Y0013946D01*
X0194919Y0013837D01*
X0195032Y0013726D01*
X0195142Y0013612D01*
X0195249Y0013495D01*
X0195353Y0013376D01*
X0195454Y0013254D01*
X0195551Y0013129D01*
X0195646Y0013002D01*
X0195737Y0012873D01*
X0195826Y0012742D01*
X0195910Y0012608D01*
X0195992Y0012472D01*
X0196070Y0012335D01*
X0196144Y0012195D01*
X0196215Y0012053D01*
X0196283Y0011910D01*
X0196347Y0011765D01*
X0196407Y0011619D01*
X0196463Y0011471D01*
X0196516Y0011322D01*
X0196565Y0011171D01*
X0196610Y0011019D01*
X0196651Y0010866D01*
X0196689Y0010713D01*
X0196722Y0010558D01*
X0196752Y0010402D01*
X0196778Y0010246D01*
X0196799Y0010089D01*
X0196817Y0009932D01*
X0196831Y0009774D01*
X0196841Y0009616D01*
X0196847Y0009458D01*
X0196849Y0009300D01*
X0196847Y0009142D01*
X0196841Y0008984D01*
X0196831Y0008826D01*
X0196817Y0008668D01*
X0196799Y0008511D01*
X0196778Y0008354D01*
X0196752Y0008198D01*
X0196722Y0008042D01*
X0196689Y0007887D01*
X0196651Y0007734D01*
X0196610Y0007581D01*
X0196565Y0007429D01*
X0196516Y0007278D01*
X0196463Y0007129D01*
X0196407Y0006981D01*
X0196347Y0006835D01*
X0196283Y0006690D01*
X0196215Y0006547D01*
X0196144Y0006405D01*
X0196070Y0006265D01*
X0195992Y0006128D01*
X0195910Y0005992D01*
X0195826Y0005858D01*
X0195737Y0005727D01*
X0195646Y0005598D01*
X0195551Y0005471D01*
X0195454Y0005346D01*
X0195353Y0005224D01*
X0195249Y0005105D01*
X0195142Y0004988D01*
X0195032Y0004874D01*
X0194919Y0004763D01*
X0194804Y0004654D01*
X0194686Y0004549D01*
X0194565Y0004447D01*
X0194442Y0004347D01*
X0194316Y0004251D01*
X0194188Y0004158D01*
X0194058Y0004068D01*
X0193925Y0003982D01*
X0193790Y0003898D01*
X0193654Y0003819D01*
X0193515Y0003742D01*
X0193374Y0003670D01*
X0193232Y0003600D01*
X0193088Y0003535D01*
X0192942Y0003473D01*
X0192795Y0003415D01*
X0192646Y0003360D01*
X0192496Y0003309D01*
X0192345Y0003262D01*
X0192193Y0003219D01*
X0192040Y0003180D01*
X0191885Y0003144D01*
X0191730Y0003113D01*
X0191574Y0003085D01*
X0191418Y0003061D01*
X0191261Y0003041D01*
X0191103Y0003025D01*
X0190946Y0003013D01*
X0190787Y0003005D01*
X0190629Y0003001D01*
X0190471Y0003001D01*
X0190313Y0003005D01*
X0190154Y0003013D01*
X0189997Y0003025D01*
X0189839Y0003041D01*
X0189682Y0003061D01*
X0189526Y0003085D01*
X0189370Y0003113D01*
X0189215Y0003144D01*
X0189060Y0003180D01*
X0188907Y0003219D01*
X0188755Y0003262D01*
X0188604Y0003309D01*
X0188454Y0003360D01*
X0188305Y0003415D01*
X0188158Y0003473D01*
X0188012Y0003535D01*
X0187868Y0003600D01*
X0187726Y0003670D01*
X0187585Y0003742D01*
X0187446Y0003819D01*
X0187310Y0003898D01*
X0187175Y0003982D01*
X0187042Y0004068D01*
X0186912Y0004158D01*
X0186784Y0004251D01*
X0186658Y0004347D01*
X0186535Y0004447D01*
X0186414Y0004549D01*
X0186296Y0004654D01*
X0186181Y0004763D01*
X0186068Y0004874D01*
X0185958Y0004988D01*
X0185851Y0005105D01*
X0185747Y0005224D01*
X0185646Y0005346D01*
X0185549Y0005471D01*
X0185454Y0005598D01*
X0185363Y0005727D01*
X0185274Y0005858D01*
X0185190Y0005992D01*
X0185108Y0006128D01*
X0185030Y0006265D01*
X0184956Y0006405D01*
X0184885Y0006547D01*
X0184817Y0006690D01*
X0184753Y0006835D01*
X0184693Y0006981D01*
X0184637Y0007129D01*
X0184584Y0007278D01*
X0184535Y0007429D01*
X0184490Y0007581D01*
X0184449Y0007734D01*
X0184411Y0007887D01*
X0184378Y0008042D01*
X0184348Y0008198D01*
X0184322Y0008354D01*
X0184301Y0008511D01*
X0184283Y0008668D01*
X0184269Y0008826D01*
X0184259Y0008984D01*
X0184253Y0009142D01*
X0184251Y0009300D01*
D11*
X0176300Y0015300D02*
X0176300Y0016800D01*
X0175800Y0017300D01*
X0175800Y0036300D01*
X0176300Y0036800D01*
X0176300Y0038300D01*
X0176298Y0038360D01*
X0176293Y0038421D01*
X0176284Y0038480D01*
X0176271Y0038539D01*
X0176255Y0038598D01*
X0176235Y0038655D01*
X0176212Y0038710D01*
X0176185Y0038765D01*
X0176156Y0038817D01*
X0176123Y0038868D01*
X0176087Y0038917D01*
X0176049Y0038963D01*
X0176007Y0039007D01*
X0175963Y0039049D01*
X0175917Y0039087D01*
X0175868Y0039123D01*
X0175817Y0039156D01*
X0175765Y0039185D01*
X0175710Y0039212D01*
X0175655Y0039235D01*
X0175598Y0039255D01*
X0175539Y0039271D01*
X0175480Y0039284D01*
X0175421Y0039293D01*
X0175360Y0039298D01*
X0175300Y0039300D01*
X0168300Y0039300D01*
X0168240Y0039298D01*
X0168179Y0039293D01*
X0168120Y0039284D01*
X0168061Y0039271D01*
X0168002Y0039255D01*
X0167945Y0039235D01*
X0167890Y0039212D01*
X0167835Y0039185D01*
X0167783Y0039156D01*
X0167732Y0039123D01*
X0167683Y0039087D01*
X0167637Y0039049D01*
X0167593Y0039007D01*
X0167551Y0038963D01*
X0167513Y0038917D01*
X0167477Y0038868D01*
X0167444Y0038817D01*
X0167415Y0038765D01*
X0167388Y0038710D01*
X0167365Y0038655D01*
X0167345Y0038598D01*
X0167329Y0038539D01*
X0167316Y0038480D01*
X0167307Y0038421D01*
X0167302Y0038360D01*
X0167300Y0038300D01*
X0167300Y0036800D01*
X0167800Y0036300D01*
X0167800Y0017300D01*
X0167300Y0016800D01*
X0167300Y0015300D01*
X0167302Y0015240D01*
X0167307Y0015179D01*
X0167316Y0015120D01*
X0167329Y0015061D01*
X0167345Y0015002D01*
X0167365Y0014945D01*
X0167388Y0014890D01*
X0167415Y0014835D01*
X0167444Y0014783D01*
X0167477Y0014732D01*
X0167513Y0014683D01*
X0167551Y0014637D01*
X0167593Y0014593D01*
X0167637Y0014551D01*
X0167683Y0014513D01*
X0167732Y0014477D01*
X0167783Y0014444D01*
X0167835Y0014415D01*
X0167890Y0014388D01*
X0167945Y0014365D01*
X0168002Y0014345D01*
X0168061Y0014329D01*
X0168120Y0014316D01*
X0168179Y0014307D01*
X0168240Y0014302D01*
X0168300Y0014300D01*
X0175300Y0014300D01*
X0175360Y0014302D01*
X0175421Y0014307D01*
X0175480Y0014316D01*
X0175539Y0014329D01*
X0175598Y0014345D01*
X0175655Y0014365D01*
X0175710Y0014388D01*
X0175765Y0014415D01*
X0175817Y0014444D01*
X0175868Y0014477D01*
X0175917Y0014513D01*
X0175963Y0014551D01*
X0176007Y0014593D01*
X0176049Y0014637D01*
X0176087Y0014683D01*
X0176123Y0014732D01*
X0176156Y0014783D01*
X0176185Y0014835D01*
X0176212Y0014890D01*
X0176235Y0014945D01*
X0176255Y0015002D01*
X0176271Y0015061D01*
X0176284Y0015120D01*
X0176293Y0015179D01*
X0176298Y0015240D01*
X0176300Y0015300D01*
X0186800Y0032800D02*
X0186954Y0032798D01*
X0187108Y0032792D01*
X0187262Y0032782D01*
X0187416Y0032768D01*
X0187569Y0032751D01*
X0187721Y0032729D01*
X0187873Y0032703D01*
X0188025Y0032674D01*
X0188175Y0032640D01*
X0188325Y0032603D01*
X0188473Y0032562D01*
X0188621Y0032517D01*
X0188767Y0032468D01*
X0188912Y0032416D01*
X0189055Y0032360D01*
X0189198Y0032300D01*
X0189338Y0032237D01*
X0189477Y0032170D01*
X0189614Y0032099D01*
X0189749Y0032025D01*
X0189882Y0031948D01*
X0190014Y0031867D01*
X0190143Y0031783D01*
X0190270Y0031695D01*
X0190394Y0031604D01*
X0190516Y0031511D01*
X0190636Y0031413D01*
X0190753Y0031313D01*
X0190868Y0031210D01*
X0190980Y0031104D01*
X0191089Y0030996D01*
X0191195Y0030884D01*
X0191299Y0030770D01*
X0191399Y0030653D01*
X0191497Y0030534D01*
X0191591Y0030412D01*
X0191682Y0030287D01*
X0186800Y0020800D02*
X0186648Y0020802D01*
X0186497Y0020808D01*
X0186346Y0020817D01*
X0186194Y0020831D01*
X0186044Y0020848D01*
X0185894Y0020869D01*
X0185744Y0020894D01*
X0185595Y0020922D01*
X0185447Y0020955D01*
X0185300Y0020991D01*
X0185153Y0021030D01*
X0185008Y0021074D01*
X0184864Y0021121D01*
X0184721Y0021172D01*
X0184580Y0021226D01*
X0184439Y0021284D01*
X0184301Y0021345D01*
X0184164Y0021410D01*
X0184028Y0021479D01*
X0183895Y0021550D01*
X0183763Y0021625D01*
X0183633Y0021704D01*
X0183506Y0021785D01*
X0183380Y0021870D01*
X0183256Y0021958D01*
X0183135Y0022049D01*
X0183016Y0022143D01*
X0182900Y0022241D01*
X0182786Y0022341D01*
X0182674Y0022443D01*
X0182566Y0022549D01*
X0182460Y0022657D01*
X0182356Y0022768D01*
X0182256Y0022882D01*
X0182158Y0022998D01*
X0182064Y0023117D01*
X0186800Y0020800D02*
X0186952Y0020802D01*
X0187103Y0020808D01*
X0187254Y0020817D01*
X0187406Y0020831D01*
X0187556Y0020848D01*
X0187706Y0020869D01*
X0187856Y0020894D01*
X0188005Y0020922D01*
X0188153Y0020955D01*
X0188300Y0020991D01*
X0188447Y0021030D01*
X0188592Y0021074D01*
X0188736Y0021121D01*
X0188879Y0021172D01*
X0189020Y0021226D01*
X0189161Y0021284D01*
X0189299Y0021345D01*
X0189436Y0021410D01*
X0189572Y0021479D01*
X0189705Y0021550D01*
X0189837Y0021625D01*
X0189967Y0021704D01*
X0190094Y0021785D01*
X0190220Y0021870D01*
X0190344Y0021958D01*
X0190465Y0022049D01*
X0190584Y0022143D01*
X0190700Y0022241D01*
X0190814Y0022341D01*
X0190926Y0022443D01*
X0191034Y0022549D01*
X0191140Y0022657D01*
X0191244Y0022768D01*
X0191344Y0022882D01*
X0191442Y0022998D01*
X0191536Y0023117D01*
X0186800Y0032800D02*
X0186650Y0032798D01*
X0186499Y0032792D01*
X0186349Y0032783D01*
X0186200Y0032770D01*
X0186050Y0032753D01*
X0185901Y0032732D01*
X0185753Y0032708D01*
X0185605Y0032680D01*
X0185458Y0032648D01*
X0185312Y0032613D01*
X0185167Y0032573D01*
X0185023Y0032531D01*
X0184880Y0032484D01*
X0184738Y0032434D01*
X0184597Y0032381D01*
X0184458Y0032324D01*
X0184320Y0032264D01*
X0184184Y0032200D01*
X0184050Y0032133D01*
X0183917Y0032062D01*
X0183786Y0031988D01*
X0183657Y0031911D01*
X0183530Y0031830D01*
X0183405Y0031747D01*
X0183282Y0031660D01*
X0183161Y0031571D01*
X0183043Y0031478D01*
X0182927Y0031382D01*
X0182813Y0031284D01*
X0182702Y0031183D01*
X0182593Y0031078D01*
X0182488Y0030972D01*
X0182384Y0030862D01*
X0182284Y0030750D01*
X0182186Y0030636D01*
X0182092Y0030519D01*
X0182000Y0030400D01*
X0160902Y0036918D02*
X0159835Y0035850D01*
X0157700Y0035850D01*
X0156632Y0036918D01*
X0154457Y0036918D02*
X0154457Y0037985D01*
X0153389Y0039053D01*
X0152322Y0039053D01*
X0153389Y0039053D02*
X0154457Y0040120D01*
X0154457Y0041188D01*
X0153389Y0042255D01*
X0151254Y0042255D01*
X0150186Y0041188D01*
X0148011Y0039053D02*
X0143741Y0039053D01*
X0146944Y0042255D01*
X0146944Y0035850D01*
X0150186Y0036918D02*
X0151254Y0035850D01*
X0153389Y0035850D01*
X0154457Y0036918D01*
X0154457Y0032255D02*
X0152322Y0031188D01*
X0150186Y0029053D01*
X0153389Y0029053D01*
X0154457Y0027985D01*
X0154457Y0026918D01*
X0153389Y0025850D01*
X0151254Y0025850D01*
X0150186Y0026918D01*
X0150186Y0029053D01*
X0148011Y0025850D02*
X0143741Y0025850D01*
X0145876Y0025850D02*
X0145876Y0032255D01*
X0143741Y0030120D01*
X0141566Y0031188D02*
X0141566Y0026918D01*
X0140498Y0025850D01*
X0138363Y0025850D01*
X0137295Y0026918D01*
X0141566Y0031188D01*
X0140498Y0032255D01*
X0138363Y0032255D01*
X0137295Y0031188D01*
X0137295Y0026918D01*
X0135120Y0025850D02*
X0130850Y0025850D01*
X0135120Y0030120D01*
X0135120Y0031188D01*
X0134053Y0032255D01*
X0131918Y0032255D01*
X0130850Y0031188D01*
X0130850Y0035850D02*
X0130850Y0042255D01*
X0132985Y0040120D01*
X0135120Y0042255D01*
X0135120Y0035850D01*
X0137295Y0035850D02*
X0141566Y0035850D01*
X0139431Y0039053D02*
X0137295Y0039053D01*
X0137295Y0042255D02*
X0137295Y0035850D01*
X0137295Y0042255D02*
X0141566Y0042255D01*
X0142660Y0045850D02*
X0141592Y0046918D01*
X0142660Y0047985D01*
X0145863Y0047985D01*
X0145863Y0049053D02*
X0145863Y0045850D01*
X0142660Y0045850D01*
X0145863Y0049053D02*
X0144795Y0050120D01*
X0142660Y0050120D01*
X0139431Y0045850D02*
X0137295Y0045850D01*
X0138363Y0045850D02*
X0138363Y0052255D01*
X0137295Y0052255D01*
X0135120Y0051188D02*
X0135120Y0050120D01*
X0134053Y0049053D01*
X0130850Y0049053D01*
X0130850Y0052255D02*
X0130850Y0045850D01*
X0134053Y0045850D01*
X0135120Y0046918D01*
X0135120Y0047985D01*
X0134053Y0049053D01*
X0135120Y0051188D02*
X0134053Y0052255D01*
X0130850Y0052255D01*
X0128300Y0066300D02*
X0128300Y0068300D01*
X0129300Y0067300D02*
X0127300Y0067300D01*
X0125113Y0067409D02*
X0125222Y0067247D01*
X0125335Y0067087D01*
X0125452Y0066931D01*
X0125573Y0066777D01*
X0125698Y0066627D01*
X0125826Y0066479D01*
X0125958Y0066335D01*
X0126093Y0066193D01*
X0126232Y0066056D01*
X0126374Y0065921D01*
X0126519Y0065791D01*
X0126668Y0065663D01*
X0126819Y0065540D01*
X0126974Y0065420D01*
X0127131Y0065304D01*
X0127291Y0065192D01*
X0127454Y0065083D01*
X0127619Y0064979D01*
X0127787Y0064879D01*
X0127958Y0064783D01*
X0128130Y0064691D01*
X0128305Y0064604D01*
X0128482Y0064521D01*
X0128661Y0064442D01*
X0128842Y0064367D01*
X0129024Y0064297D01*
X0129208Y0064231D01*
X0129394Y0064170D01*
X0129581Y0064114D01*
X0129770Y0064062D01*
X0129959Y0064015D01*
X0130150Y0063972D01*
X0130342Y0063934D01*
X0130535Y0063901D01*
X0130728Y0063872D01*
X0130922Y0063848D01*
X0131117Y0063829D01*
X0131312Y0063815D01*
X0131507Y0063805D01*
X0131702Y0063801D01*
X0131898Y0063801D01*
X0132093Y0063805D01*
X0132288Y0063815D01*
X0132483Y0063829D01*
X0132678Y0063848D01*
X0132872Y0063872D01*
X0133065Y0063901D01*
X0133258Y0063934D01*
X0133450Y0063972D01*
X0133641Y0064015D01*
X0133830Y0064062D01*
X0134019Y0064114D01*
X0134206Y0064170D01*
X0134392Y0064231D01*
X0134576Y0064297D01*
X0134758Y0064367D01*
X0134939Y0064442D01*
X0135118Y0064521D01*
X0135295Y0064604D01*
X0135470Y0064691D01*
X0135642Y0064783D01*
X0135813Y0064879D01*
X0135981Y0064979D01*
X0136146Y0065083D01*
X0136309Y0065192D01*
X0136469Y0065304D01*
X0136626Y0065420D01*
X0136781Y0065540D01*
X0136932Y0065663D01*
X0137081Y0065791D01*
X0137226Y0065921D01*
X0137368Y0066056D01*
X0137507Y0066193D01*
X0137642Y0066335D01*
X0137774Y0066479D01*
X0137902Y0066627D01*
X0138027Y0066777D01*
X0138148Y0066931D01*
X0138265Y0067087D01*
X0138378Y0067247D01*
X0138487Y0067409D01*
X0138487Y0076191D02*
X0138378Y0076353D01*
X0138265Y0076513D01*
X0138148Y0076669D01*
X0138027Y0076823D01*
X0137902Y0076973D01*
X0137774Y0077121D01*
X0137642Y0077265D01*
X0137507Y0077407D01*
X0137368Y0077544D01*
X0137226Y0077679D01*
X0137081Y0077809D01*
X0136932Y0077937D01*
X0136781Y0078060D01*
X0136626Y0078180D01*
X0136469Y0078296D01*
X0136309Y0078408D01*
X0136146Y0078517D01*
X0135981Y0078621D01*
X0135813Y0078721D01*
X0135642Y0078817D01*
X0135470Y0078909D01*
X0135295Y0078996D01*
X0135118Y0079079D01*
X0134939Y0079158D01*
X0134758Y0079233D01*
X0134576Y0079303D01*
X0134392Y0079369D01*
X0134206Y0079430D01*
X0134019Y0079486D01*
X0133830Y0079538D01*
X0133641Y0079585D01*
X0133450Y0079628D01*
X0133258Y0079666D01*
X0133065Y0079699D01*
X0132872Y0079728D01*
X0132678Y0079752D01*
X0132483Y0079771D01*
X0132288Y0079785D01*
X0132093Y0079795D01*
X0131898Y0079799D01*
X0131702Y0079799D01*
X0131507Y0079795D01*
X0131312Y0079785D01*
X0131117Y0079771D01*
X0130922Y0079752D01*
X0130728Y0079728D01*
X0130535Y0079699D01*
X0130342Y0079666D01*
X0130150Y0079628D01*
X0129959Y0079585D01*
X0129770Y0079538D01*
X0129581Y0079486D01*
X0129394Y0079430D01*
X0129208Y0079369D01*
X0129024Y0079303D01*
X0128842Y0079233D01*
X0128661Y0079158D01*
X0128482Y0079079D01*
X0128305Y0078996D01*
X0128130Y0078909D01*
X0127958Y0078817D01*
X0127787Y0078721D01*
X0127619Y0078621D01*
X0127454Y0078517D01*
X0127291Y0078408D01*
X0127131Y0078296D01*
X0126974Y0078180D01*
X0126819Y0078060D01*
X0126668Y0077937D01*
X0126519Y0077809D01*
X0126374Y0077679D01*
X0126232Y0077544D01*
X0126093Y0077407D01*
X0125958Y0077265D01*
X0125826Y0077121D01*
X0125698Y0076973D01*
X0125573Y0076823D01*
X0125452Y0076669D01*
X0125335Y0076513D01*
X0125222Y0076353D01*
X0125113Y0076191D01*
X0148038Y0052255D02*
X0148038Y0045850D01*
X0148038Y0047985D02*
X0151241Y0050120D01*
X0153409Y0049053D02*
X0154477Y0050120D01*
X0156612Y0050120D01*
X0157680Y0049053D01*
X0157680Y0047985D01*
X0153409Y0047985D01*
X0153409Y0046918D02*
X0153409Y0049053D01*
X0153409Y0046918D02*
X0154477Y0045850D01*
X0156612Y0045850D01*
X0157700Y0042255D02*
X0159835Y0042255D01*
X0160902Y0041188D01*
X0160902Y0040120D01*
X0159835Y0039053D01*
X0160902Y0037985D01*
X0160902Y0036918D01*
X0159835Y0039053D02*
X0158767Y0039053D01*
X0156632Y0041188D02*
X0157700Y0042255D01*
X0151241Y0045850D02*
X0148038Y0047985D01*
X0168350Y0064418D02*
X0168350Y0068688D01*
X0169418Y0069755D01*
X0171553Y0069755D01*
X0172620Y0068688D01*
X0172620Y0066553D02*
X0170485Y0066553D01*
X0172620Y0066553D02*
X0172620Y0064418D01*
X0171553Y0063350D01*
X0169418Y0063350D01*
X0168350Y0064418D01*
X0174795Y0063350D02*
X0174795Y0069755D01*
X0179066Y0063350D01*
X0179066Y0069755D01*
X0181241Y0069755D02*
X0184444Y0069755D01*
X0185511Y0068688D01*
X0185511Y0064418D01*
X0184444Y0063350D01*
X0181241Y0063350D01*
X0181241Y0069755D01*
X0172816Y0075485D02*
X0172816Y0079755D01*
X0172816Y0075485D02*
X0170681Y0073350D01*
X0168545Y0075485D01*
X0168545Y0079755D01*
X0166370Y0079755D02*
X0162100Y0079755D01*
X0162100Y0076553D01*
X0164235Y0077620D01*
X0165303Y0077620D01*
X0166370Y0076553D01*
X0166370Y0074418D01*
X0165303Y0073350D01*
X0163168Y0073350D01*
X0162100Y0074418D01*
X0177100Y0083350D02*
X0177100Y0089755D01*
X0180303Y0089755D01*
X0181370Y0088688D01*
X0181370Y0087620D01*
X0180303Y0086553D01*
X0177100Y0086553D01*
X0177100Y0083350D02*
X0180303Y0083350D01*
X0181370Y0084418D01*
X0181370Y0085485D01*
X0180303Y0086553D01*
X0183545Y0084418D02*
X0183545Y0083350D01*
X0183545Y0084418D02*
X0187816Y0088688D01*
X0187816Y0089755D01*
X0183545Y0089755D01*
X0184613Y0093350D02*
X0183545Y0094418D01*
X0183545Y0095485D01*
X0184613Y0096553D01*
X0186748Y0096553D01*
X0187816Y0095485D01*
X0187816Y0094418D01*
X0186748Y0093350D01*
X0184613Y0093350D01*
X0184613Y0096553D02*
X0183545Y0097620D01*
X0183545Y0098688D01*
X0184613Y0099755D01*
X0186748Y0099755D01*
X0187816Y0098688D01*
X0187816Y0097620D01*
X0186748Y0096553D01*
X0181370Y0097620D02*
X0180303Y0096553D01*
X0177100Y0096553D01*
X0177100Y0099755D02*
X0177100Y0093350D01*
X0180303Y0093350D01*
X0181370Y0094418D01*
X0181370Y0095485D01*
X0180303Y0096553D01*
X0181370Y0097620D02*
X0181370Y0098688D01*
X0180303Y0099755D01*
X0177100Y0099755D01*
X0177100Y0102100D02*
X0180303Y0102100D01*
X0181370Y0103168D01*
X0181370Y0104235D01*
X0180303Y0105303D01*
X0177100Y0105303D01*
X0177100Y0108505D02*
X0177100Y0102100D01*
X0180303Y0105303D02*
X0181370Y0106370D01*
X0181370Y0107438D01*
X0180303Y0108505D01*
X0177100Y0108505D01*
X0178545Y0114600D02*
X0182816Y0114600D01*
X0180681Y0114600D02*
X0180681Y0121005D01*
X0178545Y0118870D01*
X0176370Y0118870D02*
X0176370Y0119938D01*
X0175303Y0121005D01*
X0172100Y0121005D01*
X0172100Y0114600D01*
X0175303Y0114600D01*
X0176370Y0115668D01*
X0176370Y0116735D01*
X0175303Y0117803D01*
X0172100Y0117803D01*
X0175303Y0117803D02*
X0176370Y0118870D01*
X0175303Y0123350D02*
X0172100Y0123350D01*
X0172100Y0129755D01*
X0175303Y0129755D01*
X0176370Y0128688D01*
X0176370Y0127620D01*
X0175303Y0126553D01*
X0172100Y0126553D01*
X0175303Y0126553D02*
X0176370Y0125485D01*
X0176370Y0124418D01*
X0175303Y0123350D01*
X0178545Y0123350D02*
X0182816Y0123350D01*
X0180681Y0123350D02*
X0180681Y0129755D01*
X0178545Y0127620D01*
X0178545Y0133350D02*
X0182816Y0133350D01*
X0180681Y0133350D02*
X0180681Y0139755D01*
X0178545Y0137620D01*
X0176370Y0137620D02*
X0176370Y0138688D01*
X0175303Y0139755D01*
X0172100Y0139755D01*
X0172100Y0133350D01*
X0175303Y0133350D01*
X0176370Y0134418D01*
X0176370Y0135485D01*
X0175303Y0136553D01*
X0172100Y0136553D01*
X0175303Y0136553D02*
X0176370Y0137620D01*
X0184991Y0136553D02*
X0187126Y0137620D01*
X0188194Y0137620D01*
X0189261Y0136553D01*
X0189261Y0134418D01*
X0188194Y0133350D01*
X0186059Y0133350D01*
X0184991Y0134418D01*
X0184991Y0136553D02*
X0184991Y0139755D01*
X0189261Y0139755D01*
X0181500Y0147100D02*
X0175095Y0147100D01*
X0175095Y0150303D01*
X0176162Y0151370D01*
X0178297Y0151370D01*
X0179365Y0150303D01*
X0179365Y0147100D01*
X0179365Y0149235D02*
X0181500Y0151370D01*
X0181500Y0153545D02*
X0181500Y0157816D01*
X0180432Y0159991D02*
X0181500Y0161059D01*
X0181500Y0163194D01*
X0180432Y0164261D01*
X0179365Y0164261D01*
X0178297Y0163194D01*
X0178297Y0161059D01*
X0177230Y0159991D01*
X0176162Y0159991D01*
X0175095Y0161059D01*
X0175095Y0163194D01*
X0176162Y0164261D01*
X0175095Y0166436D02*
X0181500Y0166436D01*
X0181500Y0170707D01*
X0178297Y0168572D02*
X0178297Y0166436D01*
X0175095Y0166436D02*
X0175095Y0170707D01*
X0175095Y0172882D02*
X0175095Y0177152D01*
X0175095Y0175017D02*
X0181500Y0175017D01*
X0175095Y0157816D02*
X0175095Y0153545D01*
X0181500Y0153545D01*
X0178297Y0153545D02*
X0178297Y0155681D01*
X0156300Y0146800D02*
X0156300Y0145300D01*
X0156298Y0145240D01*
X0156293Y0145179D01*
X0156284Y0145120D01*
X0156271Y0145061D01*
X0156255Y0145002D01*
X0156235Y0144945D01*
X0156212Y0144890D01*
X0156185Y0144835D01*
X0156156Y0144783D01*
X0156123Y0144732D01*
X0156087Y0144683D01*
X0156049Y0144637D01*
X0156007Y0144593D01*
X0155963Y0144551D01*
X0155917Y0144513D01*
X0155868Y0144477D01*
X0155817Y0144444D01*
X0155765Y0144415D01*
X0155710Y0144388D01*
X0155655Y0144365D01*
X0155598Y0144345D01*
X0155539Y0144329D01*
X0155480Y0144316D01*
X0155421Y0144307D01*
X0155360Y0144302D01*
X0155300Y0144300D01*
X0148300Y0144300D01*
X0148240Y0144302D01*
X0148179Y0144307D01*
X0148120Y0144316D01*
X0148061Y0144329D01*
X0148002Y0144345D01*
X0147945Y0144365D01*
X0147890Y0144388D01*
X0147835Y0144415D01*
X0147783Y0144444D01*
X0147732Y0144477D01*
X0147683Y0144513D01*
X0147637Y0144551D01*
X0147593Y0144593D01*
X0147551Y0144637D01*
X0147513Y0144683D01*
X0147477Y0144732D01*
X0147444Y0144783D01*
X0147415Y0144835D01*
X0147388Y0144890D01*
X0147365Y0144945D01*
X0147345Y0145002D01*
X0147329Y0145061D01*
X0147316Y0145120D01*
X0147307Y0145179D01*
X0147302Y0145240D01*
X0147300Y0145300D01*
X0147300Y0146800D01*
X0147800Y0147300D01*
X0147800Y0166300D01*
X0147300Y0166800D01*
X0147300Y0168300D01*
X0147302Y0168360D01*
X0147307Y0168421D01*
X0147316Y0168480D01*
X0147329Y0168539D01*
X0147345Y0168598D01*
X0147365Y0168655D01*
X0147388Y0168710D01*
X0147415Y0168765D01*
X0147444Y0168817D01*
X0147477Y0168868D01*
X0147513Y0168917D01*
X0147551Y0168963D01*
X0147593Y0169007D01*
X0147637Y0169049D01*
X0147683Y0169087D01*
X0147732Y0169123D01*
X0147783Y0169156D01*
X0147835Y0169185D01*
X0147890Y0169212D01*
X0147945Y0169235D01*
X0148002Y0169255D01*
X0148061Y0169271D01*
X0148120Y0169284D01*
X0148179Y0169293D01*
X0148240Y0169298D01*
X0148300Y0169300D01*
X0155300Y0169300D01*
X0155360Y0169298D01*
X0155421Y0169293D01*
X0155480Y0169284D01*
X0155539Y0169271D01*
X0155598Y0169255D01*
X0155655Y0169235D01*
X0155710Y0169212D01*
X0155765Y0169185D01*
X0155817Y0169156D01*
X0155868Y0169123D01*
X0155917Y0169087D01*
X0155963Y0169049D01*
X0156007Y0169007D01*
X0156049Y0168963D01*
X0156087Y0168917D01*
X0156123Y0168868D01*
X0156156Y0168817D01*
X0156185Y0168765D01*
X0156212Y0168710D01*
X0156235Y0168655D01*
X0156255Y0168598D01*
X0156271Y0168539D01*
X0156284Y0168480D01*
X0156293Y0168421D01*
X0156298Y0168360D01*
X0156300Y0168300D01*
X0156300Y0166800D01*
X0155800Y0166300D01*
X0155800Y0147300D01*
X0156300Y0146800D01*
X0136300Y0140300D02*
X0136300Y0153300D01*
X0136298Y0153387D01*
X0136292Y0153474D01*
X0136283Y0153561D01*
X0136270Y0153647D01*
X0136253Y0153733D01*
X0136232Y0153818D01*
X0136207Y0153901D01*
X0136179Y0153984D01*
X0136148Y0154065D01*
X0136113Y0154145D01*
X0136074Y0154223D01*
X0136032Y0154300D01*
X0135987Y0154375D01*
X0135938Y0154447D01*
X0135887Y0154518D01*
X0135832Y0154586D01*
X0135775Y0154651D01*
X0135714Y0154714D01*
X0135651Y0154775D01*
X0135586Y0154832D01*
X0135518Y0154887D01*
X0135447Y0154938D01*
X0135375Y0154987D01*
X0135300Y0155032D01*
X0135223Y0155074D01*
X0135145Y0155113D01*
X0135065Y0155148D01*
X0134984Y0155179D01*
X0134901Y0155207D01*
X0134818Y0155232D01*
X0134733Y0155253D01*
X0134647Y0155270D01*
X0134561Y0155283D01*
X0134474Y0155292D01*
X0134387Y0155298D01*
X0134300Y0155300D01*
X0129300Y0155300D01*
X0129213Y0155298D01*
X0129126Y0155292D01*
X0129039Y0155283D01*
X0128953Y0155270D01*
X0128867Y0155253D01*
X0128782Y0155232D01*
X0128699Y0155207D01*
X0128616Y0155179D01*
X0128535Y0155148D01*
X0128455Y0155113D01*
X0128377Y0155074D01*
X0128300Y0155032D01*
X0128225Y0154987D01*
X0128153Y0154938D01*
X0128082Y0154887D01*
X0128014Y0154832D01*
X0127949Y0154775D01*
X0127886Y0154714D01*
X0127825Y0154651D01*
X0127768Y0154586D01*
X0127713Y0154518D01*
X0127662Y0154447D01*
X0127613Y0154375D01*
X0127568Y0154300D01*
X0127526Y0154223D01*
X0127487Y0154145D01*
X0127452Y0154065D01*
X0127421Y0153984D01*
X0127393Y0153901D01*
X0127368Y0153818D01*
X0127347Y0153733D01*
X0127330Y0153647D01*
X0127317Y0153561D01*
X0127308Y0153474D01*
X0127302Y0153387D01*
X0127300Y0153300D01*
X0127300Y0140300D01*
X0127302Y0140213D01*
X0127308Y0140126D01*
X0127317Y0140039D01*
X0127330Y0139953D01*
X0127347Y0139867D01*
X0127368Y0139782D01*
X0127393Y0139699D01*
X0127421Y0139616D01*
X0127452Y0139535D01*
X0127487Y0139455D01*
X0127526Y0139377D01*
X0127568Y0139300D01*
X0127613Y0139225D01*
X0127662Y0139153D01*
X0127713Y0139082D01*
X0127768Y0139014D01*
X0127825Y0138949D01*
X0127886Y0138886D01*
X0127949Y0138825D01*
X0128014Y0138768D01*
X0128082Y0138713D01*
X0128153Y0138662D01*
X0128225Y0138613D01*
X0128300Y0138568D01*
X0128377Y0138526D01*
X0128455Y0138487D01*
X0128535Y0138452D01*
X0128616Y0138421D01*
X0128699Y0138393D01*
X0128782Y0138368D01*
X0128867Y0138347D01*
X0128953Y0138330D01*
X0129039Y0138317D01*
X0129126Y0138308D01*
X0129213Y0138302D01*
X0129300Y0138300D01*
X0134300Y0138300D01*
X0134387Y0138302D01*
X0134474Y0138308D01*
X0134561Y0138317D01*
X0134647Y0138330D01*
X0134733Y0138347D01*
X0134818Y0138368D01*
X0134901Y0138393D01*
X0134984Y0138421D01*
X0135065Y0138452D01*
X0135145Y0138487D01*
X0135223Y0138526D01*
X0135300Y0138568D01*
X0135375Y0138613D01*
X0135447Y0138662D01*
X0135518Y0138713D01*
X0135586Y0138768D01*
X0135651Y0138825D01*
X0135714Y0138886D01*
X0135775Y0138949D01*
X0135832Y0139014D01*
X0135887Y0139082D01*
X0135938Y0139153D01*
X0135987Y0139225D01*
X0136032Y0139300D01*
X0136074Y0139377D01*
X0136113Y0139455D01*
X0136148Y0139535D01*
X0136179Y0139616D01*
X0136207Y0139699D01*
X0136232Y0139782D01*
X0136253Y0139867D01*
X0136270Y0139953D01*
X0136283Y0140039D01*
X0136292Y0140126D01*
X0136298Y0140213D01*
X0136300Y0140300D01*
X0129300Y0158300D02*
X0124300Y0158300D01*
X0124213Y0158302D01*
X0124126Y0158308D01*
X0124039Y0158317D01*
X0123953Y0158330D01*
X0123867Y0158347D01*
X0123782Y0158368D01*
X0123699Y0158393D01*
X0123616Y0158421D01*
X0123535Y0158452D01*
X0123455Y0158487D01*
X0123377Y0158526D01*
X0123300Y0158568D01*
X0123225Y0158613D01*
X0123153Y0158662D01*
X0123082Y0158713D01*
X0123014Y0158768D01*
X0122949Y0158825D01*
X0122886Y0158886D01*
X0122825Y0158949D01*
X0122768Y0159014D01*
X0122713Y0159082D01*
X0122662Y0159153D01*
X0122613Y0159225D01*
X0122568Y0159300D01*
X0122526Y0159377D01*
X0122487Y0159455D01*
X0122452Y0159535D01*
X0122421Y0159616D01*
X0122393Y0159699D01*
X0122368Y0159782D01*
X0122347Y0159867D01*
X0122330Y0159953D01*
X0122317Y0160039D01*
X0122308Y0160126D01*
X0122302Y0160213D01*
X0122300Y0160300D01*
X0122300Y0173300D01*
X0122302Y0173387D01*
X0122308Y0173474D01*
X0122317Y0173561D01*
X0122330Y0173647D01*
X0122347Y0173733D01*
X0122368Y0173818D01*
X0122393Y0173901D01*
X0122421Y0173984D01*
X0122452Y0174065D01*
X0122487Y0174145D01*
X0122526Y0174223D01*
X0122568Y0174300D01*
X0122613Y0174375D01*
X0122662Y0174447D01*
X0122713Y0174518D01*
X0122768Y0174586D01*
X0122825Y0174651D01*
X0122886Y0174714D01*
X0122949Y0174775D01*
X0123014Y0174832D01*
X0123082Y0174887D01*
X0123153Y0174938D01*
X0123225Y0174987D01*
X0123300Y0175032D01*
X0123377Y0175074D01*
X0123455Y0175113D01*
X0123535Y0175148D01*
X0123616Y0175179D01*
X0123699Y0175207D01*
X0123782Y0175232D01*
X0123867Y0175253D01*
X0123953Y0175270D01*
X0124039Y0175283D01*
X0124126Y0175292D01*
X0124213Y0175298D01*
X0124300Y0175300D01*
X0129300Y0175300D01*
X0129387Y0175298D01*
X0129474Y0175292D01*
X0129561Y0175283D01*
X0129647Y0175270D01*
X0129733Y0175253D01*
X0129818Y0175232D01*
X0129901Y0175207D01*
X0129984Y0175179D01*
X0130065Y0175148D01*
X0130145Y0175113D01*
X0130223Y0175074D01*
X0130300Y0175032D01*
X0130375Y0174987D01*
X0130447Y0174938D01*
X0130518Y0174887D01*
X0130586Y0174832D01*
X0130651Y0174775D01*
X0130714Y0174714D01*
X0130775Y0174651D01*
X0130832Y0174586D01*
X0130887Y0174518D01*
X0130938Y0174447D01*
X0130987Y0174375D01*
X0131032Y0174300D01*
X0131074Y0174223D01*
X0131113Y0174145D01*
X0131148Y0174065D01*
X0131179Y0173984D01*
X0131207Y0173901D01*
X0131232Y0173818D01*
X0131253Y0173733D01*
X0131270Y0173647D01*
X0131283Y0173561D01*
X0131292Y0173474D01*
X0131298Y0173387D01*
X0131300Y0173300D01*
X0131300Y0160300D01*
X0131298Y0160213D01*
X0131292Y0160126D01*
X0131283Y0160039D01*
X0131270Y0159953D01*
X0131253Y0159867D01*
X0131232Y0159782D01*
X0131207Y0159699D01*
X0131179Y0159616D01*
X0131148Y0159535D01*
X0131113Y0159455D01*
X0131074Y0159377D01*
X0131032Y0159300D01*
X0130987Y0159225D01*
X0130938Y0159153D01*
X0130887Y0159082D01*
X0130832Y0159014D01*
X0130775Y0158949D01*
X0130714Y0158886D01*
X0130651Y0158825D01*
X0130586Y0158768D01*
X0130518Y0158713D01*
X0130447Y0158662D01*
X0130375Y0158613D01*
X0130300Y0158568D01*
X0130223Y0158526D01*
X0130145Y0158487D01*
X0130065Y0158452D01*
X0129984Y0158421D01*
X0129901Y0158393D01*
X0129818Y0158368D01*
X0129733Y0158347D01*
X0129647Y0158330D01*
X0129561Y0158317D01*
X0129474Y0158308D01*
X0129387Y0158302D01*
X0129300Y0158300D01*
X0113300Y0156800D02*
X0105800Y0156800D01*
X0105798Y0156674D01*
X0105792Y0156549D01*
X0105782Y0156424D01*
X0105768Y0156299D01*
X0105751Y0156174D01*
X0105729Y0156050D01*
X0105704Y0155927D01*
X0105674Y0155805D01*
X0105641Y0155684D01*
X0105604Y0155564D01*
X0105564Y0155445D01*
X0105519Y0155328D01*
X0105471Y0155211D01*
X0105419Y0155097D01*
X0105364Y0154984D01*
X0105305Y0154873D01*
X0105243Y0154764D01*
X0105177Y0154657D01*
X0105108Y0154552D01*
X0105036Y0154449D01*
X0104961Y0154348D01*
X0104882Y0154250D01*
X0104800Y0154155D01*
X0104716Y0154062D01*
X0104628Y0153972D01*
X0104538Y0153884D01*
X0104445Y0153800D01*
X0104350Y0153718D01*
X0104252Y0153639D01*
X0104151Y0153564D01*
X0104048Y0153492D01*
X0103943Y0153423D01*
X0103836Y0153357D01*
X0103727Y0153295D01*
X0103616Y0153236D01*
X0103503Y0153181D01*
X0103389Y0153129D01*
X0103272Y0153081D01*
X0103155Y0153036D01*
X0103036Y0152996D01*
X0102916Y0152959D01*
X0102795Y0152926D01*
X0102673Y0152896D01*
X0102550Y0152871D01*
X0102426Y0152849D01*
X0102301Y0152832D01*
X0102176Y0152818D01*
X0102051Y0152808D01*
X0101926Y0152802D01*
X0101800Y0152800D01*
X0101674Y0152802D01*
X0101549Y0152808D01*
X0101424Y0152818D01*
X0101299Y0152832D01*
X0101174Y0152849D01*
X0101050Y0152871D01*
X0100927Y0152896D01*
X0100805Y0152926D01*
X0100684Y0152959D01*
X0100564Y0152996D01*
X0100445Y0153036D01*
X0100328Y0153081D01*
X0100211Y0153129D01*
X0100097Y0153181D01*
X0099984Y0153236D01*
X0099873Y0153295D01*
X0099764Y0153357D01*
X0099657Y0153423D01*
X0099552Y0153492D01*
X0099449Y0153564D01*
X0099348Y0153639D01*
X0099250Y0153718D01*
X0099155Y0153800D01*
X0099062Y0153884D01*
X0098972Y0153972D01*
X0098884Y0154062D01*
X0098800Y0154155D01*
X0098718Y0154250D01*
X0098639Y0154348D01*
X0098564Y0154449D01*
X0098492Y0154552D01*
X0098423Y0154657D01*
X0098357Y0154764D01*
X0098295Y0154873D01*
X0098236Y0154984D01*
X0098181Y0155097D01*
X0098129Y0155211D01*
X0098081Y0155328D01*
X0098036Y0155445D01*
X0097996Y0155564D01*
X0097959Y0155684D01*
X0097926Y0155805D01*
X0097896Y0155927D01*
X0097871Y0156050D01*
X0097849Y0156174D01*
X0097832Y0156299D01*
X0097818Y0156424D01*
X0097808Y0156549D01*
X0097802Y0156674D01*
X0097800Y0156800D01*
X0090300Y0156800D01*
X0090300Y0016800D01*
X0113300Y0016800D01*
X0113300Y0156800D01*
X0108487Y0162409D02*
X0108378Y0162247D01*
X0108265Y0162087D01*
X0108148Y0161931D01*
X0108027Y0161777D01*
X0107902Y0161627D01*
X0107774Y0161479D01*
X0107642Y0161335D01*
X0107507Y0161193D01*
X0107368Y0161056D01*
X0107226Y0160921D01*
X0107081Y0160791D01*
X0106932Y0160663D01*
X0106781Y0160540D01*
X0106626Y0160420D01*
X0106469Y0160304D01*
X0106309Y0160192D01*
X0106146Y0160083D01*
X0105981Y0159979D01*
X0105813Y0159879D01*
X0105642Y0159783D01*
X0105470Y0159691D01*
X0105295Y0159604D01*
X0105118Y0159521D01*
X0104939Y0159442D01*
X0104758Y0159367D01*
X0104576Y0159297D01*
X0104392Y0159231D01*
X0104206Y0159170D01*
X0104019Y0159114D01*
X0103830Y0159062D01*
X0103641Y0159015D01*
X0103450Y0158972D01*
X0103258Y0158934D01*
X0103065Y0158901D01*
X0102872Y0158872D01*
X0102678Y0158848D01*
X0102483Y0158829D01*
X0102288Y0158815D01*
X0102093Y0158805D01*
X0101898Y0158801D01*
X0101702Y0158801D01*
X0101507Y0158805D01*
X0101312Y0158815D01*
X0101117Y0158829D01*
X0100922Y0158848D01*
X0100728Y0158872D01*
X0100535Y0158901D01*
X0100342Y0158934D01*
X0100150Y0158972D01*
X0099959Y0159015D01*
X0099770Y0159062D01*
X0099581Y0159114D01*
X0099394Y0159170D01*
X0099208Y0159231D01*
X0099024Y0159297D01*
X0098842Y0159367D01*
X0098661Y0159442D01*
X0098482Y0159521D01*
X0098305Y0159604D01*
X0098130Y0159691D01*
X0097958Y0159783D01*
X0097787Y0159879D01*
X0097619Y0159979D01*
X0097454Y0160083D01*
X0097291Y0160192D01*
X0097131Y0160304D01*
X0096974Y0160420D01*
X0096819Y0160540D01*
X0096668Y0160663D01*
X0096519Y0160791D01*
X0096374Y0160921D01*
X0096232Y0161056D01*
X0096093Y0161193D01*
X0095958Y0161335D01*
X0095826Y0161479D01*
X0095698Y0161627D01*
X0095573Y0161777D01*
X0095452Y0161931D01*
X0095335Y0162087D01*
X0095222Y0162247D01*
X0095113Y0162409D01*
X0097300Y0162300D02*
X0099300Y0162300D01*
X0098300Y0161300D02*
X0098300Y0163300D01*
X0095113Y0171191D02*
X0095222Y0171353D01*
X0095335Y0171513D01*
X0095452Y0171669D01*
X0095573Y0171823D01*
X0095698Y0171973D01*
X0095826Y0172121D01*
X0095958Y0172265D01*
X0096093Y0172407D01*
X0096232Y0172544D01*
X0096374Y0172679D01*
X0096519Y0172809D01*
X0096668Y0172937D01*
X0096819Y0173060D01*
X0096974Y0173180D01*
X0097131Y0173296D01*
X0097291Y0173408D01*
X0097454Y0173517D01*
X0097619Y0173621D01*
X0097787Y0173721D01*
X0097958Y0173817D01*
X0098130Y0173909D01*
X0098305Y0173996D01*
X0098482Y0174079D01*
X0098661Y0174158D01*
X0098842Y0174233D01*
X0099024Y0174303D01*
X0099208Y0174369D01*
X0099394Y0174430D01*
X0099581Y0174486D01*
X0099770Y0174538D01*
X0099959Y0174585D01*
X0100150Y0174628D01*
X0100342Y0174666D01*
X0100535Y0174699D01*
X0100728Y0174728D01*
X0100922Y0174752D01*
X0101117Y0174771D01*
X0101312Y0174785D01*
X0101507Y0174795D01*
X0101702Y0174799D01*
X0101898Y0174799D01*
X0102093Y0174795D01*
X0102288Y0174785D01*
X0102483Y0174771D01*
X0102678Y0174752D01*
X0102872Y0174728D01*
X0103065Y0174699D01*
X0103258Y0174666D01*
X0103450Y0174628D01*
X0103641Y0174585D01*
X0103830Y0174538D01*
X0104019Y0174486D01*
X0104206Y0174430D01*
X0104392Y0174369D01*
X0104576Y0174303D01*
X0104758Y0174233D01*
X0104939Y0174158D01*
X0105118Y0174079D01*
X0105295Y0173996D01*
X0105470Y0173909D01*
X0105642Y0173817D01*
X0105813Y0173721D01*
X0105981Y0173621D01*
X0106146Y0173517D01*
X0106309Y0173408D01*
X0106469Y0173296D01*
X0106626Y0173180D01*
X0106781Y0173060D01*
X0106932Y0172937D01*
X0107081Y0172809D01*
X0107226Y0172679D01*
X0107368Y0172544D01*
X0107507Y0172407D01*
X0107642Y0172265D01*
X0107774Y0172121D01*
X0107902Y0171973D01*
X0108027Y0171823D01*
X0108148Y0171669D01*
X0108265Y0171513D01*
X0108378Y0171353D01*
X0108487Y0171191D01*
X0081300Y0173300D02*
X0081300Y0160300D01*
X0081298Y0160213D01*
X0081292Y0160126D01*
X0081283Y0160039D01*
X0081270Y0159953D01*
X0081253Y0159867D01*
X0081232Y0159782D01*
X0081207Y0159699D01*
X0081179Y0159616D01*
X0081148Y0159535D01*
X0081113Y0159455D01*
X0081074Y0159377D01*
X0081032Y0159300D01*
X0080987Y0159225D01*
X0080938Y0159153D01*
X0080887Y0159082D01*
X0080832Y0159014D01*
X0080775Y0158949D01*
X0080714Y0158886D01*
X0080651Y0158825D01*
X0080586Y0158768D01*
X0080518Y0158713D01*
X0080447Y0158662D01*
X0080375Y0158613D01*
X0080300Y0158568D01*
X0080223Y0158526D01*
X0080145Y0158487D01*
X0080065Y0158452D01*
X0079984Y0158421D01*
X0079901Y0158393D01*
X0079818Y0158368D01*
X0079733Y0158347D01*
X0079647Y0158330D01*
X0079561Y0158317D01*
X0079474Y0158308D01*
X0079387Y0158302D01*
X0079300Y0158300D01*
X0074300Y0158300D01*
X0074213Y0158302D01*
X0074126Y0158308D01*
X0074039Y0158317D01*
X0073953Y0158330D01*
X0073867Y0158347D01*
X0073782Y0158368D01*
X0073699Y0158393D01*
X0073616Y0158421D01*
X0073535Y0158452D01*
X0073455Y0158487D01*
X0073377Y0158526D01*
X0073300Y0158568D01*
X0073225Y0158613D01*
X0073153Y0158662D01*
X0073082Y0158713D01*
X0073014Y0158768D01*
X0072949Y0158825D01*
X0072886Y0158886D01*
X0072825Y0158949D01*
X0072768Y0159014D01*
X0072713Y0159082D01*
X0072662Y0159153D01*
X0072613Y0159225D01*
X0072568Y0159300D01*
X0072526Y0159377D01*
X0072487Y0159455D01*
X0072452Y0159535D01*
X0072421Y0159616D01*
X0072393Y0159699D01*
X0072368Y0159782D01*
X0072347Y0159867D01*
X0072330Y0159953D01*
X0072317Y0160039D01*
X0072308Y0160126D01*
X0072302Y0160213D01*
X0072300Y0160300D01*
X0072300Y0173300D01*
X0072302Y0173387D01*
X0072308Y0173474D01*
X0072317Y0173561D01*
X0072330Y0173647D01*
X0072347Y0173733D01*
X0072368Y0173818D01*
X0072393Y0173901D01*
X0072421Y0173984D01*
X0072452Y0174065D01*
X0072487Y0174145D01*
X0072526Y0174223D01*
X0072568Y0174300D01*
X0072613Y0174375D01*
X0072662Y0174447D01*
X0072713Y0174518D01*
X0072768Y0174586D01*
X0072825Y0174651D01*
X0072886Y0174714D01*
X0072949Y0174775D01*
X0073014Y0174832D01*
X0073082Y0174887D01*
X0073153Y0174938D01*
X0073225Y0174987D01*
X0073300Y0175032D01*
X0073377Y0175074D01*
X0073455Y0175113D01*
X0073535Y0175148D01*
X0073616Y0175179D01*
X0073699Y0175207D01*
X0073782Y0175232D01*
X0073867Y0175253D01*
X0073953Y0175270D01*
X0074039Y0175283D01*
X0074126Y0175292D01*
X0074213Y0175298D01*
X0074300Y0175300D01*
X0079300Y0175300D01*
X0079387Y0175298D01*
X0079474Y0175292D01*
X0079561Y0175283D01*
X0079647Y0175270D01*
X0079733Y0175253D01*
X0079818Y0175232D01*
X0079901Y0175207D01*
X0079984Y0175179D01*
X0080065Y0175148D01*
X0080145Y0175113D01*
X0080223Y0175074D01*
X0080300Y0175032D01*
X0080375Y0174987D01*
X0080447Y0174938D01*
X0080518Y0174887D01*
X0080586Y0174832D01*
X0080651Y0174775D01*
X0080714Y0174714D01*
X0080775Y0174651D01*
X0080832Y0174586D01*
X0080887Y0174518D01*
X0080938Y0174447D01*
X0080987Y0174375D01*
X0081032Y0174300D01*
X0081074Y0174223D01*
X0081113Y0174145D01*
X0081148Y0174065D01*
X0081179Y0173984D01*
X0081207Y0173901D01*
X0081232Y0173818D01*
X0081253Y0173733D01*
X0081270Y0173647D01*
X0081283Y0173561D01*
X0081292Y0173474D01*
X0081298Y0173387D01*
X0081300Y0173300D01*
X0025316Y0138688D02*
X0025316Y0134418D01*
X0024248Y0133350D01*
X0022113Y0133350D01*
X0021045Y0134418D01*
X0025316Y0138688D01*
X0024248Y0139755D01*
X0022113Y0139755D01*
X0021045Y0138688D01*
X0021045Y0134418D01*
X0018870Y0133350D02*
X0018870Y0137620D01*
X0016735Y0139755D01*
X0014600Y0137620D01*
X0014600Y0133350D01*
X0016735Y0131005D02*
X0018870Y0128870D01*
X0018870Y0124600D01*
X0021045Y0124600D02*
X0025316Y0124600D01*
X0023181Y0124600D02*
X0023181Y0131005D01*
X0021045Y0128870D01*
X0018870Y0127803D02*
X0014600Y0127803D01*
X0014600Y0128870D02*
X0014600Y0124600D01*
X0014600Y0121005D02*
X0017803Y0121005D01*
X0018870Y0119938D01*
X0018870Y0118870D01*
X0017803Y0117803D01*
X0014600Y0117803D01*
X0014600Y0121005D02*
X0014600Y0114600D01*
X0017803Y0114600D01*
X0018870Y0115668D01*
X0018870Y0116735D01*
X0017803Y0117803D01*
X0021045Y0119938D02*
X0022113Y0121005D01*
X0024248Y0121005D01*
X0025316Y0119938D01*
X0025316Y0118870D01*
X0021045Y0114600D01*
X0025316Y0114600D01*
X0024248Y0111005D02*
X0022113Y0111005D01*
X0021045Y0109938D01*
X0018870Y0109938D02*
X0018870Y0108870D01*
X0017803Y0107803D01*
X0014600Y0107803D01*
X0014600Y0111005D02*
X0017803Y0111005D01*
X0018870Y0109938D01*
X0017803Y0107803D02*
X0018870Y0106735D01*
X0018870Y0105668D01*
X0017803Y0104600D01*
X0014600Y0104600D01*
X0014600Y0111005D01*
X0021045Y0105668D02*
X0022113Y0104600D01*
X0024248Y0104600D01*
X0025316Y0105668D01*
X0025316Y0106735D01*
X0024248Y0107803D01*
X0023181Y0107803D01*
X0024248Y0107803D02*
X0025316Y0108870D01*
X0025316Y0109938D01*
X0024248Y0111005D01*
X0024248Y0101005D02*
X0021045Y0097803D01*
X0025316Y0097803D01*
X0024248Y0101005D02*
X0024248Y0094600D01*
X0024248Y0091005D02*
X0021045Y0087803D01*
X0025316Y0087803D01*
X0024248Y0091005D02*
X0024248Y0084600D01*
X0025336Y0081005D02*
X0027471Y0081005D01*
X0028539Y0079938D01*
X0028539Y0078870D01*
X0027471Y0077803D01*
X0028539Y0076735D01*
X0028539Y0075668D01*
X0027471Y0074600D01*
X0025336Y0074600D01*
X0024268Y0075668D01*
X0022113Y0075668D02*
X0022113Y0074600D01*
X0021045Y0074600D01*
X0021045Y0075668D01*
X0022113Y0075668D01*
X0018870Y0075668D02*
X0018870Y0076735D01*
X0017803Y0077803D01*
X0016735Y0077803D01*
X0017803Y0077803D02*
X0018870Y0078870D01*
X0018870Y0079938D01*
X0017803Y0081005D01*
X0015668Y0081005D01*
X0014600Y0079938D01*
X0014600Y0075668D02*
X0015668Y0074600D01*
X0017803Y0074600D01*
X0018870Y0075668D01*
X0024268Y0079938D02*
X0025336Y0081005D01*
X0026403Y0077803D02*
X0027471Y0077803D01*
X0030714Y0076735D02*
X0030714Y0081005D01*
X0030714Y0076735D02*
X0032849Y0074600D01*
X0034984Y0076735D01*
X0034984Y0081005D01*
X0030694Y0069755D02*
X0027491Y0069755D01*
X0027491Y0063350D01*
X0030694Y0063350D01*
X0031761Y0064418D01*
X0031761Y0068688D01*
X0030694Y0069755D01*
X0025316Y0069755D02*
X0025316Y0063350D01*
X0021045Y0069755D01*
X0021045Y0063350D01*
X0018870Y0064418D02*
X0018870Y0066553D01*
X0016735Y0066553D01*
X0014600Y0068688D02*
X0014600Y0064418D01*
X0015668Y0063350D01*
X0017803Y0063350D01*
X0018870Y0064418D01*
X0018870Y0068688D02*
X0017803Y0069755D01*
X0015668Y0069755D01*
X0014600Y0068688D01*
X0014600Y0084600D02*
X0014600Y0088870D01*
X0016735Y0091005D01*
X0018870Y0088870D01*
X0018870Y0084600D01*
X0018870Y0087803D02*
X0014600Y0087803D01*
X0014600Y0094600D02*
X0017803Y0094600D01*
X0018870Y0095668D01*
X0018870Y0096735D01*
X0017803Y0097803D01*
X0014600Y0097803D01*
X0014600Y0101005D02*
X0017803Y0101005D01*
X0018870Y0099938D01*
X0018870Y0098870D01*
X0017803Y0097803D01*
X0014600Y0094600D02*
X0014600Y0101005D01*
X0014600Y0128870D02*
X0016735Y0131005D01*
X0014600Y0136553D02*
X0018870Y0136553D01*
X0059230Y0079925D02*
X0063500Y0075654D01*
X0063500Y0079925D01*
X0059230Y0079925D02*
X0059230Y0075654D01*
X0060297Y0073479D02*
X0060297Y0069209D01*
X0057095Y0069209D02*
X0063500Y0069209D01*
X0063500Y0067034D02*
X0057095Y0067034D01*
X0059230Y0064899D01*
X0057095Y0062763D01*
X0063500Y0062763D01*
X0062432Y0060588D02*
X0063500Y0059521D01*
X0063500Y0057386D01*
X0062432Y0056318D01*
X0061365Y0056318D01*
X0060297Y0057386D01*
X0060297Y0059521D01*
X0061365Y0060588D01*
X0062432Y0060588D01*
X0060297Y0059521D02*
X0059230Y0060588D01*
X0058162Y0060588D01*
X0057095Y0059521D01*
X0057095Y0057386D01*
X0058162Y0056318D01*
X0059230Y0056318D01*
X0060297Y0057386D01*
X0050300Y0044300D02*
X0043300Y0044300D01*
X0043240Y0044298D01*
X0043179Y0044293D01*
X0043120Y0044284D01*
X0043061Y0044271D01*
X0043002Y0044255D01*
X0042945Y0044235D01*
X0042890Y0044212D01*
X0042835Y0044185D01*
X0042783Y0044156D01*
X0042732Y0044123D01*
X0042683Y0044087D01*
X0042637Y0044049D01*
X0042593Y0044007D01*
X0042551Y0043963D01*
X0042513Y0043917D01*
X0042477Y0043868D01*
X0042444Y0043817D01*
X0042415Y0043765D01*
X0042388Y0043710D01*
X0042365Y0043655D01*
X0042345Y0043598D01*
X0042329Y0043539D01*
X0042316Y0043480D01*
X0042307Y0043421D01*
X0042302Y0043360D01*
X0042300Y0043300D01*
X0042300Y0041800D01*
X0042800Y0041300D01*
X0042800Y0022300D01*
X0042300Y0021800D01*
X0042300Y0020300D01*
X0042302Y0020240D01*
X0042307Y0020179D01*
X0042316Y0020120D01*
X0042329Y0020061D01*
X0042345Y0020002D01*
X0042365Y0019945D01*
X0042388Y0019890D01*
X0042415Y0019835D01*
X0042444Y0019783D01*
X0042477Y0019732D01*
X0042513Y0019683D01*
X0042551Y0019637D01*
X0042593Y0019593D01*
X0042637Y0019551D01*
X0042683Y0019513D01*
X0042732Y0019477D01*
X0042783Y0019444D01*
X0042835Y0019415D01*
X0042890Y0019388D01*
X0042945Y0019365D01*
X0043002Y0019345D01*
X0043061Y0019329D01*
X0043120Y0019316D01*
X0043179Y0019307D01*
X0043240Y0019302D01*
X0043300Y0019300D01*
X0050300Y0019300D01*
X0050360Y0019302D01*
X0050421Y0019307D01*
X0050480Y0019316D01*
X0050539Y0019329D01*
X0050598Y0019345D01*
X0050655Y0019365D01*
X0050710Y0019388D01*
X0050765Y0019415D01*
X0050817Y0019444D01*
X0050868Y0019477D01*
X0050917Y0019513D01*
X0050963Y0019551D01*
X0051007Y0019593D01*
X0051049Y0019637D01*
X0051087Y0019683D01*
X0051123Y0019732D01*
X0051156Y0019783D01*
X0051185Y0019835D01*
X0051212Y0019890D01*
X0051235Y0019945D01*
X0051255Y0020002D01*
X0051271Y0020061D01*
X0051284Y0020120D01*
X0051293Y0020179D01*
X0051298Y0020240D01*
X0051300Y0020300D01*
X0051300Y0021800D01*
X0050800Y0022300D01*
X0050800Y0041300D01*
X0051300Y0041800D01*
X0051300Y0043300D01*
X0051298Y0043360D01*
X0051293Y0043421D01*
X0051284Y0043480D01*
X0051271Y0043539D01*
X0051255Y0043598D01*
X0051235Y0043655D01*
X0051212Y0043710D01*
X0051185Y0043765D01*
X0051156Y0043817D01*
X0051123Y0043868D01*
X0051087Y0043917D01*
X0051049Y0043963D01*
X0051007Y0044007D01*
X0050963Y0044049D01*
X0050917Y0044087D01*
X0050868Y0044123D01*
X0050817Y0044156D01*
X0050765Y0044185D01*
X0050710Y0044212D01*
X0050655Y0044235D01*
X0050598Y0044255D01*
X0050539Y0044271D01*
X0050480Y0044284D01*
X0050421Y0044293D01*
X0050360Y0044298D01*
X0050300Y0044300D01*
X0062300Y0033300D02*
X0062300Y0020300D01*
X0062302Y0020213D01*
X0062308Y0020126D01*
X0062317Y0020039D01*
X0062330Y0019953D01*
X0062347Y0019867D01*
X0062368Y0019782D01*
X0062393Y0019699D01*
X0062421Y0019616D01*
X0062452Y0019535D01*
X0062487Y0019455D01*
X0062526Y0019377D01*
X0062568Y0019300D01*
X0062613Y0019225D01*
X0062662Y0019153D01*
X0062713Y0019082D01*
X0062768Y0019014D01*
X0062825Y0018949D01*
X0062886Y0018886D01*
X0062949Y0018825D01*
X0063014Y0018768D01*
X0063082Y0018713D01*
X0063153Y0018662D01*
X0063225Y0018613D01*
X0063300Y0018568D01*
X0063377Y0018526D01*
X0063455Y0018487D01*
X0063535Y0018452D01*
X0063616Y0018421D01*
X0063699Y0018393D01*
X0063782Y0018368D01*
X0063867Y0018347D01*
X0063953Y0018330D01*
X0064039Y0018317D01*
X0064126Y0018308D01*
X0064213Y0018302D01*
X0064300Y0018300D01*
X0069300Y0018300D01*
X0069387Y0018302D01*
X0069474Y0018308D01*
X0069561Y0018317D01*
X0069647Y0018330D01*
X0069733Y0018347D01*
X0069818Y0018368D01*
X0069901Y0018393D01*
X0069984Y0018421D01*
X0070065Y0018452D01*
X0070145Y0018487D01*
X0070223Y0018526D01*
X0070300Y0018568D01*
X0070375Y0018613D01*
X0070447Y0018662D01*
X0070518Y0018713D01*
X0070586Y0018768D01*
X0070651Y0018825D01*
X0070714Y0018886D01*
X0070775Y0018949D01*
X0070832Y0019014D01*
X0070887Y0019082D01*
X0070938Y0019153D01*
X0070987Y0019225D01*
X0071032Y0019300D01*
X0071074Y0019377D01*
X0071113Y0019455D01*
X0071148Y0019535D01*
X0071179Y0019616D01*
X0071207Y0019699D01*
X0071232Y0019782D01*
X0071253Y0019867D01*
X0071270Y0019953D01*
X0071283Y0020039D01*
X0071292Y0020126D01*
X0071298Y0020213D01*
X0071300Y0020300D01*
X0071300Y0033300D01*
X0071298Y0033387D01*
X0071292Y0033474D01*
X0071283Y0033561D01*
X0071270Y0033647D01*
X0071253Y0033733D01*
X0071232Y0033818D01*
X0071207Y0033901D01*
X0071179Y0033984D01*
X0071148Y0034065D01*
X0071113Y0034145D01*
X0071074Y0034223D01*
X0071032Y0034300D01*
X0070987Y0034375D01*
X0070938Y0034447D01*
X0070887Y0034518D01*
X0070832Y0034586D01*
X0070775Y0034651D01*
X0070714Y0034714D01*
X0070651Y0034775D01*
X0070586Y0034832D01*
X0070518Y0034887D01*
X0070447Y0034938D01*
X0070375Y0034987D01*
X0070300Y0035032D01*
X0070223Y0035074D01*
X0070145Y0035113D01*
X0070065Y0035148D01*
X0069984Y0035179D01*
X0069901Y0035207D01*
X0069818Y0035232D01*
X0069733Y0035253D01*
X0069647Y0035270D01*
X0069561Y0035283D01*
X0069474Y0035292D01*
X0069387Y0035298D01*
X0069300Y0035300D01*
X0064300Y0035300D01*
X0064213Y0035298D01*
X0064126Y0035292D01*
X0064039Y0035283D01*
X0063953Y0035270D01*
X0063867Y0035253D01*
X0063782Y0035232D01*
X0063699Y0035207D01*
X0063616Y0035179D01*
X0063535Y0035148D01*
X0063455Y0035113D01*
X0063377Y0035074D01*
X0063300Y0035032D01*
X0063225Y0034987D01*
X0063153Y0034938D01*
X0063082Y0034887D01*
X0063014Y0034832D01*
X0062949Y0034775D01*
X0062886Y0034714D01*
X0062825Y0034651D01*
X0062768Y0034586D01*
X0062713Y0034518D01*
X0062662Y0034447D01*
X0062613Y0034375D01*
X0062568Y0034300D01*
X0062526Y0034223D01*
X0062487Y0034145D01*
X0062452Y0034065D01*
X0062421Y0033984D01*
X0062393Y0033901D01*
X0062368Y0033818D01*
X0062347Y0033733D01*
X0062330Y0033647D01*
X0062317Y0033561D01*
X0062308Y0033474D01*
X0062302Y0033387D01*
X0062300Y0033300D01*
X0036300Y0041800D02*
X0035800Y0041300D01*
X0035800Y0022300D01*
X0036300Y0021800D01*
X0036300Y0020300D01*
X0036298Y0020240D01*
X0036293Y0020179D01*
X0036284Y0020120D01*
X0036271Y0020061D01*
X0036255Y0020002D01*
X0036235Y0019945D01*
X0036212Y0019890D01*
X0036185Y0019835D01*
X0036156Y0019783D01*
X0036123Y0019732D01*
X0036087Y0019683D01*
X0036049Y0019637D01*
X0036007Y0019593D01*
X0035963Y0019551D01*
X0035917Y0019513D01*
X0035868Y0019477D01*
X0035817Y0019444D01*
X0035765Y0019415D01*
X0035710Y0019388D01*
X0035655Y0019365D01*
X0035598Y0019345D01*
X0035539Y0019329D01*
X0035480Y0019316D01*
X0035421Y0019307D01*
X0035360Y0019302D01*
X0035300Y0019300D01*
X0028300Y0019300D01*
X0028240Y0019302D01*
X0028179Y0019307D01*
X0028120Y0019316D01*
X0028061Y0019329D01*
X0028002Y0019345D01*
X0027945Y0019365D01*
X0027890Y0019388D01*
X0027835Y0019415D01*
X0027783Y0019444D01*
X0027732Y0019477D01*
X0027683Y0019513D01*
X0027637Y0019551D01*
X0027593Y0019593D01*
X0027551Y0019637D01*
X0027513Y0019683D01*
X0027477Y0019732D01*
X0027444Y0019783D01*
X0027415Y0019835D01*
X0027388Y0019890D01*
X0027365Y0019945D01*
X0027345Y0020002D01*
X0027329Y0020061D01*
X0027316Y0020120D01*
X0027307Y0020179D01*
X0027302Y0020240D01*
X0027300Y0020300D01*
X0027300Y0021800D01*
X0027800Y0022300D01*
X0027800Y0041300D01*
X0027300Y0041800D01*
X0027300Y0043300D01*
X0027302Y0043360D01*
X0027307Y0043421D01*
X0027316Y0043480D01*
X0027329Y0043539D01*
X0027345Y0043598D01*
X0027365Y0043655D01*
X0027388Y0043710D01*
X0027415Y0043765D01*
X0027444Y0043817D01*
X0027477Y0043868D01*
X0027513Y0043917D01*
X0027551Y0043963D01*
X0027593Y0044007D01*
X0027637Y0044049D01*
X0027683Y0044087D01*
X0027732Y0044123D01*
X0027783Y0044156D01*
X0027835Y0044185D01*
X0027890Y0044212D01*
X0027945Y0044235D01*
X0028002Y0044255D01*
X0028061Y0044271D01*
X0028120Y0044284D01*
X0028179Y0044293D01*
X0028240Y0044298D01*
X0028300Y0044300D01*
X0035300Y0044300D01*
X0035360Y0044298D01*
X0035421Y0044293D01*
X0035480Y0044284D01*
X0035539Y0044271D01*
X0035598Y0044255D01*
X0035655Y0044235D01*
X0035710Y0044212D01*
X0035765Y0044185D01*
X0035817Y0044156D01*
X0035868Y0044123D01*
X0035917Y0044087D01*
X0035963Y0044049D01*
X0036007Y0044007D01*
X0036049Y0043963D01*
X0036087Y0043917D01*
X0036123Y0043868D01*
X0036156Y0043817D01*
X0036185Y0043765D01*
X0036212Y0043710D01*
X0036235Y0043655D01*
X0036255Y0043598D01*
X0036271Y0043539D01*
X0036284Y0043480D01*
X0036293Y0043421D01*
X0036298Y0043360D01*
X0036300Y0043300D01*
X0036300Y0041800D01*
X0011800Y0020800D02*
X0011646Y0020802D01*
X0011492Y0020808D01*
X0011338Y0020818D01*
X0011184Y0020832D01*
X0011031Y0020849D01*
X0010879Y0020871D01*
X0010727Y0020897D01*
X0010575Y0020926D01*
X0010425Y0020960D01*
X0010275Y0020997D01*
X0010127Y0021038D01*
X0009979Y0021083D01*
X0009833Y0021132D01*
X0009688Y0021184D01*
X0009545Y0021240D01*
X0009402Y0021300D01*
X0009262Y0021363D01*
X0009123Y0021430D01*
X0008986Y0021501D01*
X0008851Y0021575D01*
X0008718Y0021652D01*
X0008586Y0021733D01*
X0008457Y0021817D01*
X0008330Y0021905D01*
X0008206Y0021996D01*
X0008084Y0022089D01*
X0007964Y0022187D01*
X0007847Y0022287D01*
X0007732Y0022390D01*
X0007620Y0022496D01*
X0007511Y0022604D01*
X0007405Y0022716D01*
X0007301Y0022830D01*
X0007201Y0022947D01*
X0007103Y0023066D01*
X0007009Y0023188D01*
X0006918Y0023313D01*
X0011800Y0032800D02*
X0011952Y0032798D01*
X0012103Y0032792D01*
X0012254Y0032783D01*
X0012406Y0032769D01*
X0012556Y0032752D01*
X0012706Y0032731D01*
X0012856Y0032706D01*
X0013005Y0032678D01*
X0013153Y0032645D01*
X0013300Y0032609D01*
X0013447Y0032570D01*
X0013592Y0032526D01*
X0013736Y0032479D01*
X0013879Y0032428D01*
X0014020Y0032374D01*
X0014161Y0032316D01*
X0014299Y0032255D01*
X0014436Y0032190D01*
X0014572Y0032121D01*
X0014705Y0032050D01*
X0014837Y0031975D01*
X0014967Y0031896D01*
X0015094Y0031815D01*
X0015220Y0031730D01*
X0015344Y0031642D01*
X0015465Y0031551D01*
X0015584Y0031457D01*
X0015700Y0031359D01*
X0015814Y0031259D01*
X0015926Y0031157D01*
X0016034Y0031051D01*
X0016140Y0030943D01*
X0016244Y0030832D01*
X0016344Y0030718D01*
X0016442Y0030602D01*
X0016536Y0030483D01*
X0011800Y0032800D02*
X0011648Y0032798D01*
X0011497Y0032792D01*
X0011346Y0032783D01*
X0011194Y0032769D01*
X0011044Y0032752D01*
X0010894Y0032731D01*
X0010744Y0032706D01*
X0010595Y0032678D01*
X0010447Y0032645D01*
X0010300Y0032609D01*
X0010153Y0032570D01*
X0010008Y0032526D01*
X0009864Y0032479D01*
X0009721Y0032428D01*
X0009580Y0032374D01*
X0009439Y0032316D01*
X0009301Y0032255D01*
X0009164Y0032190D01*
X0009028Y0032121D01*
X0008895Y0032050D01*
X0008763Y0031975D01*
X0008633Y0031896D01*
X0008506Y0031815D01*
X0008380Y0031730D01*
X0008256Y0031642D01*
X0008135Y0031551D01*
X0008016Y0031457D01*
X0007900Y0031359D01*
X0007786Y0031259D01*
X0007674Y0031157D01*
X0007566Y0031051D01*
X0007460Y0030943D01*
X0007356Y0030832D01*
X0007256Y0030718D01*
X0007158Y0030602D01*
X0007064Y0030483D01*
X0011800Y0020800D02*
X0011950Y0020802D01*
X0012101Y0020808D01*
X0012251Y0020817D01*
X0012400Y0020830D01*
X0012550Y0020847D01*
X0012699Y0020868D01*
X0012847Y0020892D01*
X0012995Y0020920D01*
X0013142Y0020952D01*
X0013288Y0020987D01*
X0013433Y0021027D01*
X0013577Y0021069D01*
X0013720Y0021116D01*
X0013862Y0021166D01*
X0014003Y0021219D01*
X0014142Y0021276D01*
X0014280Y0021336D01*
X0014416Y0021400D01*
X0014550Y0021467D01*
X0014683Y0021538D01*
X0014814Y0021612D01*
X0014943Y0021689D01*
X0015070Y0021770D01*
X0015195Y0021853D01*
X0015318Y0021940D01*
X0015439Y0022029D01*
X0015557Y0022122D01*
X0015673Y0022218D01*
X0015787Y0022316D01*
X0015898Y0022417D01*
X0016007Y0022522D01*
X0016112Y0022628D01*
X0016216Y0022738D01*
X0016316Y0022850D01*
X0016414Y0022964D01*
X0016508Y0023081D01*
X0016600Y0023200D01*
X0057095Y0073479D02*
X0063500Y0073479D01*
X0122100Y0014755D02*
X0122100Y0009418D01*
X0123168Y0008350D01*
X0125303Y0008350D01*
X0126370Y0009418D01*
X0126370Y0014755D01*
X0128545Y0013688D02*
X0128545Y0012620D01*
X0129613Y0011553D01*
X0131748Y0011553D01*
X0132816Y0010485D01*
X0132816Y0009418D01*
X0131748Y0008350D01*
X0129613Y0008350D01*
X0128545Y0009418D01*
X0128545Y0013688D02*
X0129613Y0014755D01*
X0131748Y0014755D01*
X0132816Y0013688D01*
X0134991Y0014755D02*
X0134991Y0008350D01*
X0139261Y0008350D01*
X0141436Y0008350D02*
X0141436Y0014755D01*
X0144639Y0014755D01*
X0145707Y0013688D01*
X0145707Y0011553D01*
X0144639Y0010485D01*
X0141436Y0010485D01*
X0143572Y0010485D02*
X0145707Y0008350D01*
X0139261Y0014755D02*
X0134991Y0014755D01*
X0134991Y0011553D02*
X0137126Y0011553D01*
X0184613Y0102100D02*
X0186748Y0102100D01*
X0187816Y0103168D01*
X0187816Y0107438D01*
X0186748Y0108505D01*
X0184613Y0108505D01*
X0183545Y0107438D01*
X0183545Y0106370D01*
X0184613Y0105303D01*
X0187816Y0105303D01*
X0184613Y0102100D02*
X0183545Y0103168D01*
X0186059Y0114600D02*
X0184991Y0115668D01*
X0186059Y0114600D02*
X0188194Y0114600D01*
X0189261Y0115668D01*
X0189261Y0116735D01*
X0188194Y0117803D01*
X0187126Y0117803D01*
X0188194Y0117803D02*
X0189261Y0118870D01*
X0189261Y0119938D01*
X0188194Y0121005D01*
X0186059Y0121005D01*
X0184991Y0119938D01*
X0188194Y0123350D02*
X0188194Y0129755D01*
X0184991Y0126553D01*
X0189261Y0126553D01*
D12*
X0134800Y0145500D02*
X0128800Y0145500D01*
X0128800Y0148000D02*
X0134800Y0148000D01*
X0129800Y0165600D02*
X0123800Y0165600D01*
X0123800Y0168100D02*
X0129800Y0168100D01*
X0079800Y0168100D02*
X0073800Y0168100D01*
X0073800Y0165600D02*
X0079800Y0165600D01*
X0069800Y0028100D02*
X0063800Y0028100D01*
X0063800Y0025600D02*
X0069800Y0025600D01*
D13*
X0059450Y0025345D02*
X0059450Y0026396D01*
X0058399Y0026396D01*
X0058399Y0025345D01*
X0059450Y0025345D01*
X0058399Y0023104D02*
X0059450Y0022053D01*
X0059450Y0019951D01*
X0058399Y0018900D01*
X0054196Y0023104D01*
X0058399Y0023104D01*
X0054196Y0023104D02*
X0053145Y0022053D01*
X0053145Y0019951D01*
X0054196Y0018900D01*
X0058399Y0018900D01*
X0059450Y0028568D02*
X0059450Y0032772D01*
X0059450Y0030670D02*
X0053145Y0030670D01*
X0055246Y0028568D01*
X0055246Y0035014D02*
X0058399Y0035014D01*
X0059450Y0036065D01*
X0059450Y0039217D01*
X0055246Y0039217D01*
X0056297Y0041459D02*
X0056297Y0043561D01*
X0053145Y0041459D02*
X0053145Y0045663D01*
X0053145Y0041459D02*
X0059450Y0041459D01*
X0125650Y0083400D02*
X0129854Y0083400D01*
X0127752Y0083400D02*
X0127752Y0089705D01*
X0125650Y0087604D01*
X0132095Y0088654D02*
X0132095Y0084451D01*
X0136299Y0088654D01*
X0136299Y0084451D01*
X0135248Y0083400D01*
X0133146Y0083400D01*
X0132095Y0084451D01*
X0132095Y0088654D02*
X0133146Y0089705D01*
X0135248Y0089705D01*
X0136299Y0088654D01*
X0138541Y0087604D02*
X0138541Y0084451D01*
X0139592Y0083400D01*
X0142745Y0083400D01*
X0142745Y0087604D01*
X0144986Y0086553D02*
X0147088Y0086553D01*
X0144986Y0089705D02*
X0144986Y0083400D01*
X0144986Y0089705D02*
X0149190Y0089705D01*
X0090200Y0158400D02*
X0083895Y0158400D01*
X0085996Y0160502D01*
X0083895Y0162604D01*
X0090200Y0162604D01*
X0089149Y0164845D02*
X0090200Y0165896D01*
X0090200Y0167998D01*
X0089149Y0169049D01*
X0088098Y0171291D02*
X0088098Y0174444D01*
X0087047Y0175495D01*
X0084946Y0175495D01*
X0083895Y0174444D01*
X0083895Y0171291D01*
X0090200Y0171291D01*
X0084946Y0169049D02*
X0083895Y0167998D01*
X0083895Y0165896D01*
X0084946Y0164845D01*
X0089149Y0164845D01*
X0090200Y0177736D02*
X0090200Y0181940D01*
X0090200Y0179838D02*
X0083895Y0179838D01*
X0085996Y0177736D01*
X0083895Y0184182D02*
X0083895Y0188386D01*
X0084946Y0188386D01*
X0089149Y0184182D01*
X0090200Y0184182D01*
X0089149Y0190627D02*
X0084946Y0190627D01*
X0083895Y0191678D01*
X0083895Y0193780D01*
X0084946Y0194831D01*
X0089149Y0190627D01*
X0090200Y0191678D01*
X0090200Y0193780D01*
X0089149Y0194831D01*
X0084946Y0194831D01*
X0084946Y0197073D02*
X0083895Y0198124D01*
X0083895Y0200226D01*
X0084946Y0201277D01*
X0085996Y0201277D01*
X0090200Y0197073D01*
X0090200Y0201277D01*
X0112645Y0182940D02*
X0112645Y0178736D01*
X0118950Y0178736D01*
X0118950Y0176495D02*
X0114746Y0176495D01*
X0115797Y0178736D02*
X0115797Y0180838D01*
X0118950Y0176495D02*
X0118950Y0173342D01*
X0117899Y0172291D01*
X0114746Y0172291D01*
X0113696Y0170049D02*
X0117899Y0165845D01*
X0118950Y0166896D01*
X0118950Y0168998D01*
X0117899Y0170049D01*
X0113696Y0170049D01*
X0112645Y0168998D01*
X0112645Y0166896D01*
X0113696Y0165845D01*
X0117899Y0165845D01*
X0118950Y0163604D02*
X0118950Y0159400D01*
X0118950Y0161502D02*
X0112645Y0161502D01*
X0114746Y0159400D01*
X0069450Y0160345D02*
X0069450Y0161396D01*
X0068399Y0161396D01*
X0068399Y0160345D01*
X0069450Y0160345D01*
X0068399Y0158104D02*
X0069450Y0157053D01*
X0069450Y0154951D01*
X0068399Y0153900D01*
X0064196Y0158104D01*
X0068399Y0158104D01*
X0064196Y0158104D02*
X0063145Y0157053D01*
X0063145Y0154951D01*
X0064196Y0153900D01*
X0068399Y0153900D01*
X0069450Y0163568D02*
X0069450Y0167772D01*
X0069450Y0165670D02*
X0063145Y0165670D01*
X0065246Y0163568D01*
X0065246Y0170014D02*
X0068399Y0170014D01*
X0069450Y0171065D01*
X0069450Y0174217D01*
X0065246Y0174217D01*
X0066297Y0176459D02*
X0066297Y0178561D01*
X0063145Y0176459D02*
X0063145Y0180663D01*
X0063145Y0176459D02*
X0069450Y0176459D01*
D14*
X0075422Y0178926D02*
X0075422Y0194674D01*
X0028178Y0194674D01*
X0028178Y0178926D01*
X0075422Y0178926D01*
X0091348Y0185800D02*
X0092927Y0185800D01*
X0093554Y0180300D02*
X0110046Y0180300D01*
X0110673Y0185800D02*
X0112252Y0185800D01*
X0102927Y0185800D02*
X0100673Y0185800D01*
X0093554Y0180300D02*
X0093401Y0180499D01*
X0093253Y0180701D01*
X0093110Y0180906D01*
X0092972Y0181115D01*
X0092839Y0181327D01*
X0092711Y0181542D01*
X0092589Y0181760D01*
X0092471Y0181981D01*
X0092359Y0182205D01*
X0092252Y0182431D01*
X0092151Y0182660D01*
X0092055Y0182891D01*
X0091964Y0183125D01*
X0091879Y0183360D01*
X0091800Y0183598D01*
X0091727Y0183837D01*
X0091659Y0184078D01*
X0091597Y0184320D01*
X0091541Y0184564D01*
X0091490Y0184810D01*
X0091446Y0185056D01*
X0091407Y0185303D01*
X0091375Y0185551D01*
X0091348Y0185800D01*
X0104896Y0196833D02*
X0105138Y0196755D01*
X0105378Y0196671D01*
X0105616Y0196582D01*
X0105852Y0196486D01*
X0106086Y0196385D01*
X0106317Y0196279D01*
X0106545Y0196166D01*
X0106771Y0196049D01*
X0106994Y0195926D01*
X0107213Y0195797D01*
X0107430Y0195663D01*
X0107643Y0195524D01*
X0107853Y0195380D01*
X0108059Y0195231D01*
X0108261Y0195077D01*
X0108460Y0194918D01*
X0108655Y0194754D01*
X0108846Y0194585D01*
X0109032Y0194412D01*
X0109215Y0194235D01*
X0109393Y0194053D01*
X0109566Y0193867D01*
X0109735Y0193676D01*
X0109899Y0193482D01*
X0110059Y0193284D01*
X0110214Y0193082D01*
X0110363Y0192876D01*
X0110508Y0192667D01*
X0110648Y0192454D01*
X0110782Y0192238D01*
X0110911Y0192018D01*
X0111035Y0191796D01*
X0111154Y0191571D01*
X0111266Y0191343D01*
X0111374Y0191112D01*
X0111475Y0190879D01*
X0111571Y0190643D01*
X0111662Y0190405D01*
X0111746Y0190165D01*
X0111825Y0189923D01*
X0111898Y0189679D01*
X0111964Y0189433D01*
X0112025Y0189186D01*
X0112080Y0188938D01*
X0112129Y0188688D01*
X0112172Y0188437D01*
X0112208Y0188185D01*
X0112239Y0187933D01*
X0112263Y0187679D01*
X0112281Y0187426D01*
X0112293Y0187171D01*
X0112299Y0186917D01*
X0112299Y0186662D01*
X0112293Y0186408D01*
X0112280Y0186154D01*
X0112261Y0185900D01*
X0112236Y0185647D01*
X0112205Y0185394D01*
X0112168Y0185142D01*
X0112125Y0184892D01*
X0112076Y0184642D01*
X0112021Y0184393D01*
X0111959Y0184146D01*
X0111892Y0183901D01*
X0111819Y0183657D01*
X0111740Y0183415D01*
X0111655Y0183176D01*
X0111564Y0182938D01*
X0111467Y0182702D01*
X0111365Y0182469D01*
X0111257Y0182239D01*
X0111144Y0182011D01*
X0111025Y0181786D01*
X0110901Y0181564D01*
X0110772Y0181345D01*
X0110637Y0181129D01*
X0110497Y0180916D01*
X0110351Y0180707D01*
X0110201Y0180502D01*
X0110046Y0180300D01*
X0091348Y0185800D02*
X0091326Y0186055D01*
X0091311Y0186311D01*
X0091303Y0186567D01*
X0091300Y0186824D01*
X0091304Y0187080D01*
X0091314Y0187336D01*
X0091330Y0187592D01*
X0091352Y0187847D01*
X0091381Y0188102D01*
X0091416Y0188356D01*
X0091457Y0188609D01*
X0091504Y0188861D01*
X0091558Y0189111D01*
X0091617Y0189360D01*
X0091683Y0189608D01*
X0091754Y0189854D01*
X0091832Y0190099D01*
X0091915Y0190341D01*
X0092004Y0190581D01*
X0092100Y0190819D01*
X0092201Y0191055D01*
X0092307Y0191288D01*
X0092420Y0191518D01*
X0092538Y0191746D01*
X0092661Y0191970D01*
X0092790Y0192192D01*
X0092924Y0192410D01*
X0093064Y0192625D01*
X0093209Y0192836D01*
X0093359Y0193044D01*
X0093513Y0193248D01*
X0093673Y0193449D01*
X0093838Y0193645D01*
X0094007Y0193837D01*
X0094182Y0194026D01*
X0094360Y0194209D01*
X0094543Y0194389D01*
X0094731Y0194564D01*
X0094922Y0194734D01*
X0095118Y0194899D01*
X0095318Y0195060D01*
X0095521Y0195216D01*
X0095728Y0195366D01*
X0095939Y0195512D01*
X0096154Y0195653D01*
X0096371Y0195788D01*
X0096592Y0195918D01*
X0096816Y0196042D01*
X0097043Y0196161D01*
X0097273Y0196274D01*
X0097506Y0196382D01*
X0097741Y0196484D01*
X0097979Y0196580D01*
X0098218Y0196670D01*
X0098460Y0196755D01*
X0098704Y0196833D01*
X0140296Y0166199D02*
X0140296Y0163196D01*
X0144800Y0163196D01*
X0144800Y0161595D02*
X0141797Y0161595D01*
X0142548Y0163196D02*
X0142548Y0164697D01*
X0144800Y0161595D02*
X0144800Y0159343D01*
X0144049Y0158592D01*
X0141797Y0158592D01*
X0140296Y0155489D02*
X0144800Y0155489D01*
X0144800Y0153988D02*
X0144800Y0156991D01*
X0141797Y0153988D02*
X0140296Y0155489D01*
X0144049Y0152437D02*
X0144800Y0152437D01*
X0144800Y0151686D01*
X0144049Y0151686D01*
X0144049Y0152437D01*
X0144049Y0150085D02*
X0141047Y0150085D01*
X0144049Y0147082D01*
X0144800Y0147833D01*
X0144800Y0149334D01*
X0144049Y0150085D01*
X0141047Y0150085D02*
X0140296Y0149334D01*
X0140296Y0147833D01*
X0141047Y0147082D01*
X0144049Y0147082D01*
X0149546Y0149651D02*
X0154050Y0149651D01*
X0154050Y0148150D02*
X0154050Y0151153D01*
X0153299Y0152754D02*
X0150297Y0155756D01*
X0153299Y0155756D01*
X0154050Y0155006D01*
X0154050Y0153505D01*
X0153299Y0152754D01*
X0150297Y0152754D01*
X0149546Y0153505D01*
X0149546Y0155006D01*
X0150297Y0155756D01*
X0149546Y0157358D02*
X0154050Y0157358D01*
X0152549Y0157358D02*
X0151047Y0159610D01*
X0152549Y0157358D02*
X0154050Y0159610D01*
X0149546Y0149651D02*
X0151047Y0148150D01*
X0104050Y0118198D02*
X0104050Y0115946D01*
X0099546Y0115946D01*
X0099546Y0118198D01*
X0100297Y0118948D01*
X0101047Y0118948D01*
X0101798Y0118198D01*
X0101798Y0115946D01*
X0101047Y0114345D02*
X0101798Y0113594D01*
X0101798Y0112093D01*
X0101047Y0111342D01*
X0100297Y0111342D01*
X0099546Y0112093D01*
X0099546Y0113594D01*
X0100297Y0114345D01*
X0101047Y0114345D01*
X0101798Y0113594D02*
X0102549Y0114345D01*
X0103299Y0114345D01*
X0104050Y0113594D01*
X0104050Y0112093D01*
X0103299Y0111342D01*
X0102549Y0111342D01*
X0101798Y0112093D01*
X0101047Y0109741D02*
X0100297Y0109741D01*
X0099546Y0108990D01*
X0099546Y0107489D01*
X0100297Y0106738D01*
X0099546Y0103635D02*
X0104050Y0103635D01*
X0104050Y0102134D02*
X0104050Y0105137D01*
X0104050Y0106738D02*
X0101047Y0109741D01*
X0104050Y0109741D02*
X0104050Y0106738D01*
X0099546Y0103635D02*
X0101047Y0102134D01*
X0099546Y0100533D02*
X0099546Y0097530D01*
X0104050Y0097530D01*
X0103299Y0095929D02*
X0104050Y0095178D01*
X0104050Y0093677D01*
X0103299Y0092926D01*
X0100297Y0095929D01*
X0103299Y0095929D01*
X0101798Y0097530D02*
X0101798Y0099032D01*
X0100297Y0095929D02*
X0099546Y0095178D01*
X0099546Y0093677D01*
X0100297Y0092926D01*
X0103299Y0092926D01*
X0103299Y0091325D02*
X0101798Y0091325D01*
X0101047Y0090574D01*
X0101047Y0089824D01*
X0101798Y0088322D01*
X0099546Y0088322D01*
X0099546Y0091325D01*
X0103299Y0091325D02*
X0104050Y0090574D01*
X0104050Y0089073D01*
X0103299Y0088322D01*
X0104050Y0086721D02*
X0104050Y0083718D01*
X0101047Y0086721D01*
X0100297Y0086721D01*
X0099546Y0085970D01*
X0099546Y0084469D01*
X0100297Y0083718D01*
X0099546Y0082117D02*
X0104050Y0079115D01*
X0104050Y0077513D02*
X0099546Y0077513D01*
X0101047Y0076012D01*
X0099546Y0074511D01*
X0104050Y0074511D01*
X0104050Y0072909D02*
X0104050Y0069907D01*
X0101047Y0072909D01*
X0100297Y0072909D01*
X0099546Y0072159D01*
X0099546Y0070657D01*
X0100297Y0069907D01*
X0100297Y0068305D02*
X0101047Y0068305D01*
X0101798Y0067555D01*
X0102549Y0068305D01*
X0103299Y0068305D01*
X0104050Y0067555D01*
X0104050Y0066053D01*
X0103299Y0065303D01*
X0103299Y0063701D02*
X0104050Y0062951D01*
X0104050Y0061449D01*
X0103299Y0060699D01*
X0100297Y0060699D01*
X0099546Y0061449D01*
X0099546Y0062951D01*
X0100297Y0063701D01*
X0100297Y0065303D02*
X0099546Y0066053D01*
X0099546Y0067555D01*
X0100297Y0068305D01*
X0101798Y0067555D02*
X0101798Y0066804D01*
X0099546Y0059131D02*
X0099546Y0057630D01*
X0099546Y0058380D02*
X0104050Y0058380D01*
X0104050Y0057630D02*
X0104050Y0059131D01*
X0101798Y0056028D02*
X0102549Y0055278D01*
X0102549Y0053026D01*
X0104050Y0053026D02*
X0099546Y0053026D01*
X0099546Y0055278D01*
X0100297Y0056028D01*
X0101798Y0056028D01*
X0099546Y0079115D02*
X0104050Y0082117D01*
X0104050Y0118198D02*
X0103299Y0118948D01*
X0102549Y0118948D01*
X0101798Y0118198D01*
X0049300Y0194300D02*
X0049300Y0201800D01*
X0041800Y0201800D01*
X0041800Y0194300D01*
X0033299Y0035360D02*
X0030297Y0035360D01*
X0033299Y0032358D01*
X0034050Y0033108D01*
X0034050Y0034610D01*
X0033299Y0035360D01*
X0033299Y0032358D02*
X0030297Y0032358D01*
X0029546Y0033108D01*
X0029546Y0034610D01*
X0030297Y0035360D01*
X0030297Y0030756D02*
X0031047Y0030756D01*
X0031798Y0030006D01*
X0032549Y0030756D01*
X0033299Y0030756D01*
X0034050Y0030006D01*
X0034050Y0028505D01*
X0033299Y0027754D01*
X0033299Y0026153D02*
X0032549Y0026153D01*
X0031798Y0025402D01*
X0031798Y0024651D01*
X0031798Y0025402D02*
X0031047Y0026153D01*
X0030297Y0026153D01*
X0029546Y0025402D01*
X0029546Y0023901D01*
X0030297Y0023150D01*
X0033299Y0023150D02*
X0034050Y0023901D01*
X0034050Y0025402D01*
X0033299Y0026153D01*
X0030297Y0027754D02*
X0029546Y0028505D01*
X0029546Y0030006D01*
X0030297Y0030756D01*
X0031798Y0030006D02*
X0031798Y0029255D01*
X0044546Y0028505D02*
X0044546Y0030006D01*
X0045297Y0030756D01*
X0048299Y0027754D01*
X0049050Y0028505D01*
X0049050Y0030006D01*
X0048299Y0030756D01*
X0045297Y0030756D01*
X0044546Y0032358D02*
X0049050Y0032358D01*
X0047549Y0032358D02*
X0049050Y0034610D01*
X0047549Y0032358D02*
X0046047Y0034610D01*
X0044546Y0028505D02*
X0045297Y0027754D01*
X0048299Y0027754D01*
X0049050Y0026153D02*
X0049050Y0023150D01*
X0049050Y0024651D02*
X0044546Y0024651D01*
X0046047Y0023150D01*
X0169546Y0023505D02*
X0169546Y0025006D01*
X0170297Y0025756D01*
X0171047Y0025756D01*
X0171798Y0025006D01*
X0172549Y0025756D01*
X0173299Y0025756D01*
X0174050Y0025006D01*
X0174050Y0023505D01*
X0173299Y0022754D01*
X0173299Y0021153D02*
X0172549Y0021153D01*
X0171798Y0020402D01*
X0171798Y0019651D01*
X0171798Y0020402D02*
X0171047Y0021153D01*
X0170297Y0021153D01*
X0169546Y0020402D01*
X0169546Y0018901D01*
X0170297Y0018150D01*
X0173299Y0018150D02*
X0174050Y0018901D01*
X0174050Y0020402D01*
X0173299Y0021153D01*
X0171798Y0024255D02*
X0171798Y0025006D01*
X0170297Y0022754D02*
X0169546Y0023505D01*
X0170297Y0027358D02*
X0169546Y0028108D01*
X0169546Y0029610D01*
X0170297Y0030360D01*
X0173299Y0027358D01*
X0174050Y0028108D01*
X0174050Y0029610D01*
X0173299Y0030360D01*
X0170297Y0030360D01*
X0170297Y0027358D02*
X0173299Y0027358D01*
D15*
X0191800Y0061800D02*
X0189300Y0064300D01*
X0189300Y0069300D01*
X0191800Y0071800D01*
X0189300Y0074300D01*
X0189300Y0079300D01*
X0191800Y0081800D01*
X0189300Y0084300D01*
X0189300Y0089300D01*
X0191800Y0091800D01*
X0189300Y0094300D01*
X0189300Y0099300D01*
X0191800Y0101800D01*
X0189300Y0104300D01*
X0189300Y0109300D01*
X0191800Y0111800D01*
X0189300Y0114300D01*
X0189300Y0119300D01*
X0191800Y0121800D01*
X0189300Y0124300D01*
X0189300Y0129300D01*
X0191800Y0131800D01*
X0189300Y0134300D01*
X0189300Y0139300D01*
X0191800Y0141800D01*
X0196800Y0141800D01*
X0199300Y0139300D01*
X0199300Y0134300D01*
X0196800Y0131800D01*
X0199300Y0129300D01*
X0199300Y0124300D01*
X0196800Y0121800D01*
X0199300Y0119300D01*
X0199300Y0114300D01*
X0196800Y0111800D01*
X0199300Y0109300D01*
X0199300Y0104300D01*
X0196800Y0101800D01*
X0199300Y0099300D01*
X0199300Y0094300D01*
X0196800Y0091800D01*
X0199300Y0089300D01*
X0199300Y0084300D01*
X0196800Y0081800D01*
X0199300Y0079300D01*
X0199300Y0074300D01*
X0196800Y0071800D01*
X0199300Y0069300D01*
X0199300Y0064300D01*
X0196800Y0061800D01*
X0191800Y0061800D01*
X0116800Y0010550D02*
X0116800Y0005550D01*
X0114300Y0003050D01*
X0089300Y0003050D01*
X0086800Y0005550D01*
X0086800Y0010550D01*
X0089300Y0013050D01*
X0114300Y0013050D01*
X0116800Y0010550D01*
X0111800Y0008050D02*
X0104300Y0008050D01*
X0101800Y0010550D01*
X0099300Y0008050D02*
X0091800Y0008050D01*
X0074300Y0051800D02*
X0069300Y0051800D01*
X0066800Y0054300D01*
X0066800Y0059300D01*
X0069300Y0061800D01*
X0066800Y0064300D01*
X0066800Y0069300D01*
X0069300Y0071800D01*
X0066800Y0074300D01*
X0066800Y0079300D01*
X0069300Y0081800D01*
X0074300Y0081800D01*
X0076800Y0079300D01*
X0076800Y0074300D01*
X0074300Y0071800D01*
X0076800Y0069300D01*
X0076800Y0064300D01*
X0074300Y0061800D01*
X0076800Y0059300D01*
X0076800Y0054300D01*
X0074300Y0051800D01*
X0011800Y0064300D02*
X0009300Y0061800D01*
X0004300Y0061800D01*
X0001800Y0064300D01*
X0001800Y0069300D01*
X0004300Y0071800D01*
X0001800Y0074300D01*
X0001800Y0079300D01*
X0004300Y0081800D01*
X0001800Y0084300D01*
X0001800Y0089300D01*
X0004300Y0091800D01*
X0001800Y0094300D01*
X0001800Y0099300D01*
X0004300Y0101800D01*
X0001800Y0104300D01*
X0001800Y0109300D01*
X0004300Y0111800D01*
X0001800Y0114300D01*
X0001800Y0119300D01*
X0004300Y0121800D01*
X0001800Y0124300D01*
X0001800Y0129300D01*
X0004300Y0131800D01*
X0001800Y0134300D01*
X0001800Y0139300D01*
X0004300Y0141800D01*
X0009300Y0141800D01*
X0011800Y0139300D01*
X0011800Y0134300D01*
X0009300Y0131800D01*
X0011800Y0129300D01*
X0011800Y0124300D01*
X0009300Y0121800D01*
X0011800Y0119300D01*
X0011800Y0114300D01*
X0009300Y0111800D01*
X0011800Y0109300D01*
X0011800Y0104300D01*
X0009300Y0101800D01*
X0011800Y0099300D01*
X0011800Y0094300D01*
X0009300Y0091800D01*
X0011800Y0089300D01*
X0011800Y0084300D01*
X0009300Y0081800D01*
X0011800Y0079300D01*
X0011800Y0074300D01*
X0009300Y0071800D01*
X0011800Y0069300D01*
X0011800Y0064300D01*
X0124300Y0186800D02*
X0129300Y0186800D01*
X0131800Y0189300D01*
X0134300Y0186800D01*
X0139300Y0186800D01*
X0141800Y0189300D01*
X0144300Y0186800D01*
X0149300Y0186800D01*
X0151800Y0189300D01*
X0154300Y0186800D01*
X0159300Y0186800D01*
X0161800Y0189300D01*
X0164300Y0186800D01*
X0169300Y0186800D01*
X0171800Y0189300D01*
X0174300Y0186800D01*
X0179300Y0186800D01*
X0181800Y0189300D01*
X0181800Y0194300D01*
X0179300Y0196800D01*
X0174300Y0196800D01*
X0171800Y0194300D01*
X0169300Y0196800D01*
X0164300Y0196800D01*
X0161800Y0194300D01*
X0159300Y0196800D01*
X0154300Y0196800D01*
X0151800Y0194300D01*
X0149300Y0196800D01*
X0144300Y0196800D01*
X0141800Y0194300D01*
X0139300Y0196800D01*
X0134300Y0196800D01*
X0131800Y0194300D01*
X0129300Y0196800D01*
X0124300Y0196800D01*
X0121800Y0194300D01*
X0121800Y0189300D01*
X0124300Y0186800D01*
X0186800Y0174300D02*
X0186800Y0149300D01*
X0189300Y0146800D01*
X0194300Y0146800D01*
X0196800Y0149300D01*
X0196800Y0174300D01*
X0194300Y0176800D01*
X0189300Y0176800D01*
X0186800Y0174300D01*
X0191800Y0171800D02*
X0191800Y0164300D01*
X0189300Y0161800D01*
X0191800Y0159300D02*
X0191800Y0151800D01*
D16*
X0192907Y0021632D02*
X0192780Y0021486D01*
X0192651Y0021344D01*
X0192517Y0021204D01*
X0192381Y0021068D01*
X0192241Y0020935D01*
X0192098Y0020805D01*
X0191951Y0020679D01*
X0191802Y0020557D01*
X0191650Y0020438D01*
X0191495Y0020323D01*
X0191338Y0020211D01*
X0191178Y0020104D01*
X0191015Y0020000D01*
X0190849Y0019901D01*
X0190682Y0019805D01*
X0190512Y0019713D01*
X0190340Y0019626D01*
X0190166Y0019542D01*
X0189990Y0019463D01*
X0189812Y0019389D01*
X0189632Y0019318D01*
X0189451Y0019252D01*
X0189268Y0019190D01*
X0189084Y0019133D01*
X0188898Y0019080D01*
X0188711Y0019032D01*
X0188523Y0018988D01*
X0188334Y0018949D01*
X0188144Y0018914D01*
X0187954Y0018884D01*
X0187763Y0018858D01*
X0187571Y0018837D01*
X0187378Y0018821D01*
X0187186Y0018809D01*
X0186993Y0018802D01*
X0186800Y0018800D01*
X0179741Y0030565D02*
X0179834Y0030733D01*
X0179930Y0030899D01*
X0180030Y0031063D01*
X0180135Y0031224D01*
X0180243Y0031383D01*
X0180355Y0031539D01*
X0180471Y0031693D01*
X0180590Y0031843D01*
X0180713Y0031991D01*
X0180839Y0032136D01*
X0180969Y0032277D01*
X0181102Y0032416D01*
X0181239Y0032551D01*
X0181379Y0032683D01*
X0181521Y0032811D01*
X0181667Y0032936D01*
X0181816Y0033058D01*
X0181968Y0033176D01*
X0182122Y0033290D01*
X0182280Y0033400D01*
X0182439Y0033507D01*
X0182602Y0033610D01*
X0182767Y0033709D01*
X0182934Y0033804D01*
X0183103Y0033894D01*
X0183274Y0033981D01*
X0183448Y0034064D01*
X0183623Y0034142D01*
X0183801Y0034216D01*
X0183980Y0034286D01*
X0184160Y0034352D01*
X0184342Y0034413D01*
X0184526Y0034470D01*
X0184711Y0034522D01*
X0184897Y0034570D01*
X0185084Y0034614D01*
X0185272Y0034653D01*
X0185461Y0034687D01*
X0185651Y0034717D01*
X0185841Y0034742D01*
X0186032Y0034763D01*
X0186224Y0034779D01*
X0186416Y0034791D01*
X0186608Y0034798D01*
X0186800Y0034800D01*
X0179854Y0022831D02*
X0179953Y0022662D01*
X0180057Y0022496D01*
X0180164Y0022332D01*
X0180275Y0022171D01*
X0180390Y0022013D01*
X0180509Y0021858D01*
X0180632Y0021705D01*
X0180758Y0021556D01*
X0180888Y0021410D01*
X0181022Y0021267D01*
X0181159Y0021127D01*
X0181299Y0020991D01*
X0181443Y0020858D01*
X0181590Y0020729D01*
X0181740Y0020603D01*
X0181893Y0020482D01*
X0182049Y0020363D01*
X0182208Y0020249D01*
X0182369Y0020139D01*
X0182534Y0020033D01*
X0182700Y0019930D01*
X0182870Y0019832D01*
X0183041Y0019738D01*
X0183215Y0019648D01*
X0183391Y0019563D01*
X0183569Y0019481D01*
X0183749Y0019405D01*
X0183931Y0019332D01*
X0184114Y0019264D01*
X0184299Y0019201D01*
X0184486Y0019142D01*
X0184674Y0019088D01*
X0184863Y0019038D01*
X0185053Y0018993D01*
X0185245Y0018953D01*
X0185437Y0018917D01*
X0185630Y0018886D01*
X0185824Y0018860D01*
X0186019Y0018838D01*
X0186214Y0018822D01*
X0186409Y0018810D01*
X0186605Y0018802D01*
X0186800Y0018800D01*
X0192946Y0031922D02*
X0192819Y0032070D01*
X0192689Y0032215D01*
X0192556Y0032356D01*
X0192419Y0032495D01*
X0192279Y0032630D01*
X0192135Y0032761D01*
X0191988Y0032889D01*
X0191839Y0033014D01*
X0191686Y0033135D01*
X0191531Y0033252D01*
X0191372Y0033365D01*
X0191211Y0033474D01*
X0191047Y0033579D01*
X0190881Y0033681D01*
X0190712Y0033778D01*
X0190542Y0033871D01*
X0190368Y0033960D01*
X0190193Y0034045D01*
X0190016Y0034125D01*
X0189837Y0034201D01*
X0189656Y0034273D01*
X0189473Y0034340D01*
X0189289Y0034403D01*
X0189103Y0034461D01*
X0188916Y0034515D01*
X0188728Y0034564D01*
X0188538Y0034609D01*
X0188348Y0034649D01*
X0188156Y0034684D01*
X0187964Y0034715D01*
X0187771Y0034741D01*
X0187577Y0034762D01*
X0187383Y0034779D01*
X0187189Y0034791D01*
X0186995Y0034798D01*
X0186800Y0034800D01*
X0018746Y0030769D02*
X0018647Y0030938D01*
X0018543Y0031104D01*
X0018436Y0031268D01*
X0018325Y0031429D01*
X0018210Y0031587D01*
X0018091Y0031742D01*
X0017968Y0031895D01*
X0017842Y0032044D01*
X0017712Y0032190D01*
X0017578Y0032333D01*
X0017441Y0032473D01*
X0017301Y0032609D01*
X0017157Y0032742D01*
X0017010Y0032871D01*
X0016860Y0032997D01*
X0016707Y0033118D01*
X0016551Y0033237D01*
X0016392Y0033351D01*
X0016231Y0033461D01*
X0016066Y0033567D01*
X0015900Y0033670D01*
X0015730Y0033768D01*
X0015559Y0033862D01*
X0015385Y0033952D01*
X0015209Y0034037D01*
X0015031Y0034119D01*
X0014851Y0034195D01*
X0014669Y0034268D01*
X0014486Y0034336D01*
X0014301Y0034399D01*
X0014114Y0034458D01*
X0013926Y0034512D01*
X0013737Y0034562D01*
X0013547Y0034607D01*
X0013355Y0034647D01*
X0013163Y0034683D01*
X0012970Y0034714D01*
X0012776Y0034740D01*
X0012581Y0034762D01*
X0012386Y0034778D01*
X0012191Y0034790D01*
X0011995Y0034798D01*
X0011800Y0034800D01*
X0018859Y0023035D02*
X0018766Y0022867D01*
X0018670Y0022701D01*
X0018570Y0022537D01*
X0018465Y0022376D01*
X0018357Y0022217D01*
X0018245Y0022061D01*
X0018129Y0021907D01*
X0018010Y0021757D01*
X0017887Y0021609D01*
X0017761Y0021464D01*
X0017631Y0021323D01*
X0017498Y0021184D01*
X0017361Y0021049D01*
X0017221Y0020917D01*
X0017079Y0020789D01*
X0016933Y0020664D01*
X0016784Y0020542D01*
X0016632Y0020424D01*
X0016478Y0020310D01*
X0016320Y0020200D01*
X0016161Y0020093D01*
X0015998Y0019990D01*
X0015833Y0019891D01*
X0015666Y0019796D01*
X0015497Y0019706D01*
X0015326Y0019619D01*
X0015152Y0019536D01*
X0014977Y0019458D01*
X0014799Y0019384D01*
X0014620Y0019314D01*
X0014440Y0019248D01*
X0014258Y0019187D01*
X0014074Y0019130D01*
X0013889Y0019078D01*
X0013703Y0019030D01*
X0013516Y0018986D01*
X0013328Y0018947D01*
X0013139Y0018913D01*
X0012949Y0018883D01*
X0012759Y0018858D01*
X0012568Y0018837D01*
X0012376Y0018821D01*
X0012184Y0018809D01*
X0011992Y0018802D01*
X0011800Y0018800D01*
X0005693Y0031968D02*
X0005820Y0032114D01*
X0005949Y0032256D01*
X0006083Y0032396D01*
X0006219Y0032532D01*
X0006359Y0032665D01*
X0006502Y0032795D01*
X0006649Y0032921D01*
X0006798Y0033043D01*
X0006950Y0033162D01*
X0007105Y0033277D01*
X0007262Y0033389D01*
X0007422Y0033496D01*
X0007585Y0033600D01*
X0007751Y0033699D01*
X0007918Y0033795D01*
X0008088Y0033887D01*
X0008260Y0033974D01*
X0008434Y0034058D01*
X0008610Y0034137D01*
X0008788Y0034211D01*
X0008968Y0034282D01*
X0009149Y0034348D01*
X0009332Y0034410D01*
X0009516Y0034467D01*
X0009702Y0034520D01*
X0009889Y0034568D01*
X0010077Y0034612D01*
X0010266Y0034651D01*
X0010456Y0034686D01*
X0010646Y0034716D01*
X0010837Y0034742D01*
X0011029Y0034763D01*
X0011222Y0034779D01*
X0011414Y0034791D01*
X0011607Y0034798D01*
X0011800Y0034800D01*
X0005654Y0021678D02*
X0005781Y0021530D01*
X0005911Y0021385D01*
X0006044Y0021244D01*
X0006181Y0021105D01*
X0006321Y0020970D01*
X0006465Y0020839D01*
X0006612Y0020711D01*
X0006761Y0020586D01*
X0006914Y0020465D01*
X0007069Y0020348D01*
X0007228Y0020235D01*
X0007389Y0020126D01*
X0007553Y0020021D01*
X0007719Y0019919D01*
X0007888Y0019822D01*
X0008058Y0019729D01*
X0008232Y0019640D01*
X0008407Y0019555D01*
X0008584Y0019475D01*
X0008763Y0019399D01*
X0008944Y0019327D01*
X0009127Y0019260D01*
X0009311Y0019197D01*
X0009497Y0019139D01*
X0009684Y0019085D01*
X0009872Y0019036D01*
X0010062Y0018991D01*
X0010252Y0018951D01*
X0010444Y0018916D01*
X0010636Y0018885D01*
X0010829Y0018859D01*
X0011023Y0018838D01*
X0011217Y0018821D01*
X0011411Y0018809D01*
X0011605Y0018802D01*
X0011800Y0018800D01*
D17*
X0031800Y0017600D03*
X0046800Y0017600D03*
X0046800Y0046000D03*
X0031800Y0046000D03*
X0151800Y0142600D03*
X0151800Y0171000D03*
X0171800Y0041000D03*
X0171800Y0012600D03*
M02*
