%
M48
M72
T01C0.02362
T02C0.03150
T03C0.03200
T04C0.03937
T05C0.04000
T06C0.07480
T07C0.12598
%
T01
X51800Y161800
X96800Y101800
X139300Y111800
X156800Y101800
X161800Y121800
X176800Y111800
X176800Y76800
X76800Y36800
X46800Y86800
X160550Y164300
X166800Y171800
X136800Y176800
T02
X32154Y164950
X36879Y168099
X36879Y161800
X32154Y158650
X36879Y155501
X43800Y186800
X43926Y186800
X51800Y186800
X51800Y186800
X59674Y186800
X59800Y186800
T03
X6800Y26800
X16800Y26800
X31800Y11800
X46800Y11800
X66800Y21800
X66800Y31800
X86800Y31800
X86800Y21800
X86800Y41800
X86800Y51800
X86800Y61800
X86800Y71800
X86800Y81800
X86800Y91800
X86800Y101800
X86800Y111800
X86800Y121800
X86800Y131800
X86800Y141800
X86800Y151800
X76800Y161800
X76800Y171800
X96800Y186800
X101800Y194300
X106800Y186800
X106800Y166800
X96800Y166800
X116800Y151800
X116800Y141800
X116800Y131800
X116800Y121800
X116800Y111800
X116800Y101800
X116800Y91800
X116800Y81800
X116800Y71800
X116800Y61800
X116800Y51800
X116800Y41800
X116800Y31800
X116800Y21800
X126800Y71800
X136800Y71800
X171800Y46800
X181800Y26800
X191800Y26800
X171800Y6800
X46800Y51800
X31800Y51800
X131800Y141800
X131800Y151800
X126800Y161800
X126800Y171800
X151800Y176800
X151800Y136800
T04
X36052Y186800
X67548Y186800
T05
X6800Y66800
X6800Y76800
X6800Y86800
X6800Y96800
X6800Y106800
X6800Y116800
X6800Y126800
X6800Y136800
X71800Y76800
X71800Y66800
X71800Y56800
X91800Y8050
X111800Y8050
X194300Y66800
X194300Y76800
X194300Y86800
X194300Y96800
X194300Y106800
X194300Y116800
X194300Y126800
X194300Y136800
X191800Y151800
X191800Y171800
X176800Y191800
X166800Y191800
X156800Y191800
X146800Y191800
X136800Y191800
X126800Y191800
T06
X16800Y176170
X16800Y147430
T07
X9300Y190550
X190550Y190550
X190550Y9300
X9300Y9300
M30
