G75*
%MOIN*%
%OFA0B0*%
%FSLAX25Y25*%
%IPPOS*%
%LPD*%
%AMOC8*
5,1,8,0,0,1.08239X$1,22.5*
%
%ADD10C,0.00000*%
%ADD11OC8,0.05200*%
%ADD12C,0.05200*%
%ADD13C,0.05150*%
%ADD14C,0.11220*%
%ADD15C,0.07400*%
%ADD16C,0.05200*%
%ADD17OC8,0.05150*%
%ADD18C,0.01600*%
%ADD19C,0.03562*%
%ADD20R,0.03562X0.03562*%
D10*
X0001800Y0001800D02*
X0001800Y0198650D01*
X0198650Y0198650D01*
X0198650Y0001800D01*
X0001800Y0001800D01*
X0003001Y0009300D02*
X0003003Y0009458D01*
X0003009Y0009616D01*
X0003019Y0009774D01*
X0003033Y0009932D01*
X0003051Y0010089D01*
X0003072Y0010246D01*
X0003098Y0010402D01*
X0003128Y0010558D01*
X0003161Y0010713D01*
X0003199Y0010866D01*
X0003240Y0011019D01*
X0003285Y0011171D01*
X0003334Y0011322D01*
X0003387Y0011471D01*
X0003443Y0011619D01*
X0003503Y0011765D01*
X0003567Y0011910D01*
X0003635Y0012053D01*
X0003706Y0012195D01*
X0003780Y0012335D01*
X0003858Y0012472D01*
X0003940Y0012608D01*
X0004024Y0012742D01*
X0004113Y0012873D01*
X0004204Y0013002D01*
X0004299Y0013129D01*
X0004396Y0013254D01*
X0004497Y0013376D01*
X0004601Y0013495D01*
X0004708Y0013612D01*
X0004818Y0013726D01*
X0004931Y0013837D01*
X0005046Y0013946D01*
X0005164Y0014051D01*
X0005285Y0014153D01*
X0005408Y0014253D01*
X0005534Y0014349D01*
X0005662Y0014442D01*
X0005792Y0014532D01*
X0005925Y0014618D01*
X0006060Y0014702D01*
X0006196Y0014781D01*
X0006335Y0014858D01*
X0006476Y0014930D01*
X0006618Y0015000D01*
X0006762Y0015065D01*
X0006908Y0015127D01*
X0007055Y0015185D01*
X0007204Y0015240D01*
X0007354Y0015291D01*
X0007505Y0015338D01*
X0007657Y0015381D01*
X0007810Y0015420D01*
X0007965Y0015456D01*
X0008120Y0015487D01*
X0008276Y0015515D01*
X0008432Y0015539D01*
X0008589Y0015559D01*
X0008747Y0015575D01*
X0008904Y0015587D01*
X0009063Y0015595D01*
X0009221Y0015599D01*
X0009379Y0015599D01*
X0009537Y0015595D01*
X0009696Y0015587D01*
X0009853Y0015575D01*
X0010011Y0015559D01*
X0010168Y0015539D01*
X0010324Y0015515D01*
X0010480Y0015487D01*
X0010635Y0015456D01*
X0010790Y0015420D01*
X0010943Y0015381D01*
X0011095Y0015338D01*
X0011246Y0015291D01*
X0011396Y0015240D01*
X0011545Y0015185D01*
X0011692Y0015127D01*
X0011838Y0015065D01*
X0011982Y0015000D01*
X0012124Y0014930D01*
X0012265Y0014858D01*
X0012404Y0014781D01*
X0012540Y0014702D01*
X0012675Y0014618D01*
X0012808Y0014532D01*
X0012938Y0014442D01*
X0013066Y0014349D01*
X0013192Y0014253D01*
X0013315Y0014153D01*
X0013436Y0014051D01*
X0013554Y0013946D01*
X0013669Y0013837D01*
X0013782Y0013726D01*
X0013892Y0013612D01*
X0013999Y0013495D01*
X0014103Y0013376D01*
X0014204Y0013254D01*
X0014301Y0013129D01*
X0014396Y0013002D01*
X0014487Y0012873D01*
X0014576Y0012742D01*
X0014660Y0012608D01*
X0014742Y0012472D01*
X0014820Y0012335D01*
X0014894Y0012195D01*
X0014965Y0012053D01*
X0015033Y0011910D01*
X0015097Y0011765D01*
X0015157Y0011619D01*
X0015213Y0011471D01*
X0015266Y0011322D01*
X0015315Y0011171D01*
X0015360Y0011019D01*
X0015401Y0010866D01*
X0015439Y0010713D01*
X0015472Y0010558D01*
X0015502Y0010402D01*
X0015528Y0010246D01*
X0015549Y0010089D01*
X0015567Y0009932D01*
X0015581Y0009774D01*
X0015591Y0009616D01*
X0015597Y0009458D01*
X0015599Y0009300D01*
X0015597Y0009142D01*
X0015591Y0008984D01*
X0015581Y0008826D01*
X0015567Y0008668D01*
X0015549Y0008511D01*
X0015528Y0008354D01*
X0015502Y0008198D01*
X0015472Y0008042D01*
X0015439Y0007887D01*
X0015401Y0007734D01*
X0015360Y0007581D01*
X0015315Y0007429D01*
X0015266Y0007278D01*
X0015213Y0007129D01*
X0015157Y0006981D01*
X0015097Y0006835D01*
X0015033Y0006690D01*
X0014965Y0006547D01*
X0014894Y0006405D01*
X0014820Y0006265D01*
X0014742Y0006128D01*
X0014660Y0005992D01*
X0014576Y0005858D01*
X0014487Y0005727D01*
X0014396Y0005598D01*
X0014301Y0005471D01*
X0014204Y0005346D01*
X0014103Y0005224D01*
X0013999Y0005105D01*
X0013892Y0004988D01*
X0013782Y0004874D01*
X0013669Y0004763D01*
X0013554Y0004654D01*
X0013436Y0004549D01*
X0013315Y0004447D01*
X0013192Y0004347D01*
X0013066Y0004251D01*
X0012938Y0004158D01*
X0012808Y0004068D01*
X0012675Y0003982D01*
X0012540Y0003898D01*
X0012404Y0003819D01*
X0012265Y0003742D01*
X0012124Y0003670D01*
X0011982Y0003600D01*
X0011838Y0003535D01*
X0011692Y0003473D01*
X0011545Y0003415D01*
X0011396Y0003360D01*
X0011246Y0003309D01*
X0011095Y0003262D01*
X0010943Y0003219D01*
X0010790Y0003180D01*
X0010635Y0003144D01*
X0010480Y0003113D01*
X0010324Y0003085D01*
X0010168Y0003061D01*
X0010011Y0003041D01*
X0009853Y0003025D01*
X0009696Y0003013D01*
X0009537Y0003005D01*
X0009379Y0003001D01*
X0009221Y0003001D01*
X0009063Y0003005D01*
X0008904Y0003013D01*
X0008747Y0003025D01*
X0008589Y0003041D01*
X0008432Y0003061D01*
X0008276Y0003085D01*
X0008120Y0003113D01*
X0007965Y0003144D01*
X0007810Y0003180D01*
X0007657Y0003219D01*
X0007505Y0003262D01*
X0007354Y0003309D01*
X0007204Y0003360D01*
X0007055Y0003415D01*
X0006908Y0003473D01*
X0006762Y0003535D01*
X0006618Y0003600D01*
X0006476Y0003670D01*
X0006335Y0003742D01*
X0006196Y0003819D01*
X0006060Y0003898D01*
X0005925Y0003982D01*
X0005792Y0004068D01*
X0005662Y0004158D01*
X0005534Y0004251D01*
X0005408Y0004347D01*
X0005285Y0004447D01*
X0005164Y0004549D01*
X0005046Y0004654D01*
X0004931Y0004763D01*
X0004818Y0004874D01*
X0004708Y0004988D01*
X0004601Y0005105D01*
X0004497Y0005224D01*
X0004396Y0005346D01*
X0004299Y0005471D01*
X0004204Y0005598D01*
X0004113Y0005727D01*
X0004024Y0005858D01*
X0003940Y0005992D01*
X0003858Y0006128D01*
X0003780Y0006265D01*
X0003706Y0006405D01*
X0003635Y0006547D01*
X0003567Y0006690D01*
X0003503Y0006835D01*
X0003443Y0006981D01*
X0003387Y0007129D01*
X0003334Y0007278D01*
X0003285Y0007429D01*
X0003240Y0007581D01*
X0003199Y0007734D01*
X0003161Y0007887D01*
X0003128Y0008042D01*
X0003098Y0008198D01*
X0003072Y0008354D01*
X0003051Y0008511D01*
X0003033Y0008668D01*
X0003019Y0008826D01*
X0003009Y0008984D01*
X0003003Y0009142D01*
X0003001Y0009300D01*
X0034083Y0186800D02*
X0034085Y0186888D01*
X0034091Y0186976D01*
X0034101Y0187064D01*
X0034115Y0187152D01*
X0034132Y0187238D01*
X0034154Y0187324D01*
X0034179Y0187408D01*
X0034209Y0187492D01*
X0034241Y0187574D01*
X0034278Y0187654D01*
X0034318Y0187733D01*
X0034362Y0187810D01*
X0034409Y0187885D01*
X0034459Y0187957D01*
X0034513Y0188028D01*
X0034569Y0188095D01*
X0034629Y0188161D01*
X0034691Y0188223D01*
X0034757Y0188283D01*
X0034824Y0188339D01*
X0034895Y0188393D01*
X0034967Y0188443D01*
X0035042Y0188490D01*
X0035119Y0188534D01*
X0035198Y0188574D01*
X0035278Y0188611D01*
X0035360Y0188643D01*
X0035444Y0188673D01*
X0035528Y0188698D01*
X0035614Y0188720D01*
X0035700Y0188737D01*
X0035788Y0188751D01*
X0035876Y0188761D01*
X0035964Y0188767D01*
X0036052Y0188769D01*
X0036140Y0188767D01*
X0036228Y0188761D01*
X0036316Y0188751D01*
X0036404Y0188737D01*
X0036490Y0188720D01*
X0036576Y0188698D01*
X0036660Y0188673D01*
X0036744Y0188643D01*
X0036826Y0188611D01*
X0036906Y0188574D01*
X0036985Y0188534D01*
X0037062Y0188490D01*
X0037137Y0188443D01*
X0037209Y0188393D01*
X0037280Y0188339D01*
X0037347Y0188283D01*
X0037413Y0188223D01*
X0037475Y0188161D01*
X0037535Y0188095D01*
X0037591Y0188028D01*
X0037645Y0187957D01*
X0037695Y0187885D01*
X0037742Y0187810D01*
X0037786Y0187733D01*
X0037826Y0187654D01*
X0037863Y0187574D01*
X0037895Y0187492D01*
X0037925Y0187408D01*
X0037950Y0187324D01*
X0037972Y0187238D01*
X0037989Y0187152D01*
X0038003Y0187064D01*
X0038013Y0186976D01*
X0038019Y0186888D01*
X0038021Y0186800D01*
X0038019Y0186712D01*
X0038013Y0186624D01*
X0038003Y0186536D01*
X0037989Y0186448D01*
X0037972Y0186362D01*
X0037950Y0186276D01*
X0037925Y0186192D01*
X0037895Y0186108D01*
X0037863Y0186026D01*
X0037826Y0185946D01*
X0037786Y0185867D01*
X0037742Y0185790D01*
X0037695Y0185715D01*
X0037645Y0185643D01*
X0037591Y0185572D01*
X0037535Y0185505D01*
X0037475Y0185439D01*
X0037413Y0185377D01*
X0037347Y0185317D01*
X0037280Y0185261D01*
X0037209Y0185207D01*
X0037137Y0185157D01*
X0037062Y0185110D01*
X0036985Y0185066D01*
X0036906Y0185026D01*
X0036826Y0184989D01*
X0036744Y0184957D01*
X0036660Y0184927D01*
X0036576Y0184902D01*
X0036490Y0184880D01*
X0036404Y0184863D01*
X0036316Y0184849D01*
X0036228Y0184839D01*
X0036140Y0184833D01*
X0036052Y0184831D01*
X0035964Y0184833D01*
X0035876Y0184839D01*
X0035788Y0184849D01*
X0035700Y0184863D01*
X0035614Y0184880D01*
X0035528Y0184902D01*
X0035444Y0184927D01*
X0035360Y0184957D01*
X0035278Y0184989D01*
X0035198Y0185026D01*
X0035119Y0185066D01*
X0035042Y0185110D01*
X0034967Y0185157D01*
X0034895Y0185207D01*
X0034824Y0185261D01*
X0034757Y0185317D01*
X0034691Y0185377D01*
X0034629Y0185439D01*
X0034569Y0185505D01*
X0034513Y0185572D01*
X0034459Y0185643D01*
X0034409Y0185715D01*
X0034362Y0185790D01*
X0034318Y0185867D01*
X0034278Y0185946D01*
X0034241Y0186026D01*
X0034209Y0186108D01*
X0034179Y0186192D01*
X0034154Y0186276D01*
X0034132Y0186362D01*
X0034115Y0186448D01*
X0034101Y0186536D01*
X0034091Y0186624D01*
X0034085Y0186712D01*
X0034083Y0186800D01*
X0042351Y0186800D02*
X0042353Y0186879D01*
X0042359Y0186958D01*
X0042369Y0187037D01*
X0042383Y0187115D01*
X0042400Y0187192D01*
X0042422Y0187268D01*
X0042447Y0187343D01*
X0042477Y0187416D01*
X0042509Y0187488D01*
X0042546Y0187559D01*
X0042586Y0187627D01*
X0042629Y0187693D01*
X0042675Y0187757D01*
X0042725Y0187819D01*
X0042778Y0187878D01*
X0042833Y0187934D01*
X0042892Y0187988D01*
X0042953Y0188038D01*
X0043016Y0188086D01*
X0043082Y0188130D01*
X0043150Y0188171D01*
X0043220Y0188208D01*
X0043291Y0188242D01*
X0043365Y0188272D01*
X0043439Y0188298D01*
X0043515Y0188320D01*
X0043592Y0188339D01*
X0043670Y0188354D01*
X0043748Y0188365D01*
X0043827Y0188372D01*
X0043906Y0188375D01*
X0043985Y0188374D01*
X0044064Y0188369D01*
X0044143Y0188360D01*
X0044221Y0188347D01*
X0044298Y0188330D01*
X0044375Y0188310D01*
X0044450Y0188285D01*
X0044524Y0188257D01*
X0044597Y0188225D01*
X0044667Y0188190D01*
X0044736Y0188151D01*
X0044803Y0188108D01*
X0044868Y0188062D01*
X0044930Y0188014D01*
X0044990Y0187962D01*
X0045047Y0187907D01*
X0045101Y0187849D01*
X0045152Y0187789D01*
X0045200Y0187726D01*
X0045245Y0187661D01*
X0045287Y0187593D01*
X0045325Y0187524D01*
X0045359Y0187453D01*
X0045390Y0187380D01*
X0045418Y0187305D01*
X0045441Y0187230D01*
X0045461Y0187153D01*
X0045477Y0187076D01*
X0045489Y0186997D01*
X0045497Y0186919D01*
X0045501Y0186840D01*
X0045501Y0186760D01*
X0045497Y0186681D01*
X0045489Y0186603D01*
X0045477Y0186524D01*
X0045461Y0186447D01*
X0045441Y0186370D01*
X0045418Y0186295D01*
X0045390Y0186220D01*
X0045359Y0186147D01*
X0045325Y0186076D01*
X0045287Y0186007D01*
X0045245Y0185939D01*
X0045200Y0185874D01*
X0045152Y0185811D01*
X0045101Y0185751D01*
X0045047Y0185693D01*
X0044990Y0185638D01*
X0044930Y0185586D01*
X0044868Y0185538D01*
X0044803Y0185492D01*
X0044736Y0185449D01*
X0044667Y0185410D01*
X0044597Y0185375D01*
X0044524Y0185343D01*
X0044450Y0185315D01*
X0044375Y0185290D01*
X0044298Y0185270D01*
X0044221Y0185253D01*
X0044143Y0185240D01*
X0044064Y0185231D01*
X0043985Y0185226D01*
X0043906Y0185225D01*
X0043827Y0185228D01*
X0043748Y0185235D01*
X0043670Y0185246D01*
X0043592Y0185261D01*
X0043515Y0185280D01*
X0043439Y0185302D01*
X0043365Y0185328D01*
X0043291Y0185358D01*
X0043220Y0185392D01*
X0043150Y0185429D01*
X0043082Y0185470D01*
X0043016Y0185514D01*
X0042953Y0185562D01*
X0042892Y0185612D01*
X0042833Y0185666D01*
X0042778Y0185722D01*
X0042725Y0185781D01*
X0042675Y0185843D01*
X0042629Y0185907D01*
X0042586Y0185973D01*
X0042546Y0186041D01*
X0042509Y0186112D01*
X0042477Y0186184D01*
X0042447Y0186257D01*
X0042422Y0186332D01*
X0042400Y0186408D01*
X0042383Y0186485D01*
X0042369Y0186563D01*
X0042359Y0186642D01*
X0042353Y0186721D01*
X0042351Y0186800D01*
X0050225Y0186800D02*
X0050227Y0186879D01*
X0050233Y0186958D01*
X0050243Y0187037D01*
X0050257Y0187115D01*
X0050274Y0187192D01*
X0050296Y0187268D01*
X0050321Y0187343D01*
X0050351Y0187416D01*
X0050383Y0187488D01*
X0050420Y0187559D01*
X0050460Y0187627D01*
X0050503Y0187693D01*
X0050549Y0187757D01*
X0050599Y0187819D01*
X0050652Y0187878D01*
X0050707Y0187934D01*
X0050766Y0187988D01*
X0050827Y0188038D01*
X0050890Y0188086D01*
X0050956Y0188130D01*
X0051024Y0188171D01*
X0051094Y0188208D01*
X0051165Y0188242D01*
X0051239Y0188272D01*
X0051313Y0188298D01*
X0051389Y0188320D01*
X0051466Y0188339D01*
X0051544Y0188354D01*
X0051622Y0188365D01*
X0051701Y0188372D01*
X0051780Y0188375D01*
X0051859Y0188374D01*
X0051938Y0188369D01*
X0052017Y0188360D01*
X0052095Y0188347D01*
X0052172Y0188330D01*
X0052249Y0188310D01*
X0052324Y0188285D01*
X0052398Y0188257D01*
X0052471Y0188225D01*
X0052541Y0188190D01*
X0052610Y0188151D01*
X0052677Y0188108D01*
X0052742Y0188062D01*
X0052804Y0188014D01*
X0052864Y0187962D01*
X0052921Y0187907D01*
X0052975Y0187849D01*
X0053026Y0187789D01*
X0053074Y0187726D01*
X0053119Y0187661D01*
X0053161Y0187593D01*
X0053199Y0187524D01*
X0053233Y0187453D01*
X0053264Y0187380D01*
X0053292Y0187305D01*
X0053315Y0187230D01*
X0053335Y0187153D01*
X0053351Y0187076D01*
X0053363Y0186997D01*
X0053371Y0186919D01*
X0053375Y0186840D01*
X0053375Y0186760D01*
X0053371Y0186681D01*
X0053363Y0186603D01*
X0053351Y0186524D01*
X0053335Y0186447D01*
X0053315Y0186370D01*
X0053292Y0186295D01*
X0053264Y0186220D01*
X0053233Y0186147D01*
X0053199Y0186076D01*
X0053161Y0186007D01*
X0053119Y0185939D01*
X0053074Y0185874D01*
X0053026Y0185811D01*
X0052975Y0185751D01*
X0052921Y0185693D01*
X0052864Y0185638D01*
X0052804Y0185586D01*
X0052742Y0185538D01*
X0052677Y0185492D01*
X0052610Y0185449D01*
X0052541Y0185410D01*
X0052471Y0185375D01*
X0052398Y0185343D01*
X0052324Y0185315D01*
X0052249Y0185290D01*
X0052172Y0185270D01*
X0052095Y0185253D01*
X0052017Y0185240D01*
X0051938Y0185231D01*
X0051859Y0185226D01*
X0051780Y0185225D01*
X0051701Y0185228D01*
X0051622Y0185235D01*
X0051544Y0185246D01*
X0051466Y0185261D01*
X0051389Y0185280D01*
X0051313Y0185302D01*
X0051239Y0185328D01*
X0051165Y0185358D01*
X0051094Y0185392D01*
X0051024Y0185429D01*
X0050956Y0185470D01*
X0050890Y0185514D01*
X0050827Y0185562D01*
X0050766Y0185612D01*
X0050707Y0185666D01*
X0050652Y0185722D01*
X0050599Y0185781D01*
X0050549Y0185843D01*
X0050503Y0185907D01*
X0050460Y0185973D01*
X0050420Y0186041D01*
X0050383Y0186112D01*
X0050351Y0186184D01*
X0050321Y0186257D01*
X0050296Y0186332D01*
X0050274Y0186408D01*
X0050257Y0186485D01*
X0050243Y0186563D01*
X0050233Y0186642D01*
X0050227Y0186721D01*
X0050225Y0186800D01*
X0058099Y0186800D02*
X0058101Y0186879D01*
X0058107Y0186958D01*
X0058117Y0187037D01*
X0058131Y0187115D01*
X0058148Y0187192D01*
X0058170Y0187268D01*
X0058195Y0187343D01*
X0058225Y0187416D01*
X0058257Y0187488D01*
X0058294Y0187559D01*
X0058334Y0187627D01*
X0058377Y0187693D01*
X0058423Y0187757D01*
X0058473Y0187819D01*
X0058526Y0187878D01*
X0058581Y0187934D01*
X0058640Y0187988D01*
X0058701Y0188038D01*
X0058764Y0188086D01*
X0058830Y0188130D01*
X0058898Y0188171D01*
X0058968Y0188208D01*
X0059039Y0188242D01*
X0059113Y0188272D01*
X0059187Y0188298D01*
X0059263Y0188320D01*
X0059340Y0188339D01*
X0059418Y0188354D01*
X0059496Y0188365D01*
X0059575Y0188372D01*
X0059654Y0188375D01*
X0059733Y0188374D01*
X0059812Y0188369D01*
X0059891Y0188360D01*
X0059969Y0188347D01*
X0060046Y0188330D01*
X0060123Y0188310D01*
X0060198Y0188285D01*
X0060272Y0188257D01*
X0060345Y0188225D01*
X0060415Y0188190D01*
X0060484Y0188151D01*
X0060551Y0188108D01*
X0060616Y0188062D01*
X0060678Y0188014D01*
X0060738Y0187962D01*
X0060795Y0187907D01*
X0060849Y0187849D01*
X0060900Y0187789D01*
X0060948Y0187726D01*
X0060993Y0187661D01*
X0061035Y0187593D01*
X0061073Y0187524D01*
X0061107Y0187453D01*
X0061138Y0187380D01*
X0061166Y0187305D01*
X0061189Y0187230D01*
X0061209Y0187153D01*
X0061225Y0187076D01*
X0061237Y0186997D01*
X0061245Y0186919D01*
X0061249Y0186840D01*
X0061249Y0186760D01*
X0061245Y0186681D01*
X0061237Y0186603D01*
X0061225Y0186524D01*
X0061209Y0186447D01*
X0061189Y0186370D01*
X0061166Y0186295D01*
X0061138Y0186220D01*
X0061107Y0186147D01*
X0061073Y0186076D01*
X0061035Y0186007D01*
X0060993Y0185939D01*
X0060948Y0185874D01*
X0060900Y0185811D01*
X0060849Y0185751D01*
X0060795Y0185693D01*
X0060738Y0185638D01*
X0060678Y0185586D01*
X0060616Y0185538D01*
X0060551Y0185492D01*
X0060484Y0185449D01*
X0060415Y0185410D01*
X0060345Y0185375D01*
X0060272Y0185343D01*
X0060198Y0185315D01*
X0060123Y0185290D01*
X0060046Y0185270D01*
X0059969Y0185253D01*
X0059891Y0185240D01*
X0059812Y0185231D01*
X0059733Y0185226D01*
X0059654Y0185225D01*
X0059575Y0185228D01*
X0059496Y0185235D01*
X0059418Y0185246D01*
X0059340Y0185261D01*
X0059263Y0185280D01*
X0059187Y0185302D01*
X0059113Y0185328D01*
X0059039Y0185358D01*
X0058968Y0185392D01*
X0058898Y0185429D01*
X0058830Y0185470D01*
X0058764Y0185514D01*
X0058701Y0185562D01*
X0058640Y0185612D01*
X0058581Y0185666D01*
X0058526Y0185722D01*
X0058473Y0185781D01*
X0058423Y0185843D01*
X0058377Y0185907D01*
X0058334Y0185973D01*
X0058294Y0186041D01*
X0058257Y0186112D01*
X0058225Y0186184D01*
X0058195Y0186257D01*
X0058170Y0186332D01*
X0058148Y0186408D01*
X0058131Y0186485D01*
X0058117Y0186563D01*
X0058107Y0186642D01*
X0058101Y0186721D01*
X0058099Y0186800D01*
X0065579Y0186800D02*
X0065581Y0186888D01*
X0065587Y0186976D01*
X0065597Y0187064D01*
X0065611Y0187152D01*
X0065628Y0187238D01*
X0065650Y0187324D01*
X0065675Y0187408D01*
X0065705Y0187492D01*
X0065737Y0187574D01*
X0065774Y0187654D01*
X0065814Y0187733D01*
X0065858Y0187810D01*
X0065905Y0187885D01*
X0065955Y0187957D01*
X0066009Y0188028D01*
X0066065Y0188095D01*
X0066125Y0188161D01*
X0066187Y0188223D01*
X0066253Y0188283D01*
X0066320Y0188339D01*
X0066391Y0188393D01*
X0066463Y0188443D01*
X0066538Y0188490D01*
X0066615Y0188534D01*
X0066694Y0188574D01*
X0066774Y0188611D01*
X0066856Y0188643D01*
X0066940Y0188673D01*
X0067024Y0188698D01*
X0067110Y0188720D01*
X0067196Y0188737D01*
X0067284Y0188751D01*
X0067372Y0188761D01*
X0067460Y0188767D01*
X0067548Y0188769D01*
X0067636Y0188767D01*
X0067724Y0188761D01*
X0067812Y0188751D01*
X0067900Y0188737D01*
X0067986Y0188720D01*
X0068072Y0188698D01*
X0068156Y0188673D01*
X0068240Y0188643D01*
X0068322Y0188611D01*
X0068402Y0188574D01*
X0068481Y0188534D01*
X0068558Y0188490D01*
X0068633Y0188443D01*
X0068705Y0188393D01*
X0068776Y0188339D01*
X0068843Y0188283D01*
X0068909Y0188223D01*
X0068971Y0188161D01*
X0069031Y0188095D01*
X0069087Y0188028D01*
X0069141Y0187957D01*
X0069191Y0187885D01*
X0069238Y0187810D01*
X0069282Y0187733D01*
X0069322Y0187654D01*
X0069359Y0187574D01*
X0069391Y0187492D01*
X0069421Y0187408D01*
X0069446Y0187324D01*
X0069468Y0187238D01*
X0069485Y0187152D01*
X0069499Y0187064D01*
X0069509Y0186976D01*
X0069515Y0186888D01*
X0069517Y0186800D01*
X0069515Y0186712D01*
X0069509Y0186624D01*
X0069499Y0186536D01*
X0069485Y0186448D01*
X0069468Y0186362D01*
X0069446Y0186276D01*
X0069421Y0186192D01*
X0069391Y0186108D01*
X0069359Y0186026D01*
X0069322Y0185946D01*
X0069282Y0185867D01*
X0069238Y0185790D01*
X0069191Y0185715D01*
X0069141Y0185643D01*
X0069087Y0185572D01*
X0069031Y0185505D01*
X0068971Y0185439D01*
X0068909Y0185377D01*
X0068843Y0185317D01*
X0068776Y0185261D01*
X0068705Y0185207D01*
X0068633Y0185157D01*
X0068558Y0185110D01*
X0068481Y0185066D01*
X0068402Y0185026D01*
X0068322Y0184989D01*
X0068240Y0184957D01*
X0068156Y0184927D01*
X0068072Y0184902D01*
X0067986Y0184880D01*
X0067900Y0184863D01*
X0067812Y0184849D01*
X0067724Y0184839D01*
X0067636Y0184833D01*
X0067548Y0184831D01*
X0067460Y0184833D01*
X0067372Y0184839D01*
X0067284Y0184849D01*
X0067196Y0184863D01*
X0067110Y0184880D01*
X0067024Y0184902D01*
X0066940Y0184927D01*
X0066856Y0184957D01*
X0066774Y0184989D01*
X0066694Y0185026D01*
X0066615Y0185066D01*
X0066538Y0185110D01*
X0066463Y0185157D01*
X0066391Y0185207D01*
X0066320Y0185261D01*
X0066253Y0185317D01*
X0066187Y0185377D01*
X0066125Y0185439D01*
X0066065Y0185505D01*
X0066009Y0185572D01*
X0065955Y0185643D01*
X0065905Y0185715D01*
X0065858Y0185790D01*
X0065814Y0185867D01*
X0065774Y0185946D01*
X0065737Y0186026D01*
X0065705Y0186108D01*
X0065675Y0186192D01*
X0065650Y0186276D01*
X0065628Y0186362D01*
X0065611Y0186448D01*
X0065597Y0186536D01*
X0065587Y0186624D01*
X0065581Y0186712D01*
X0065579Y0186800D01*
X0003001Y0190550D02*
X0003003Y0190708D01*
X0003009Y0190866D01*
X0003019Y0191024D01*
X0003033Y0191182D01*
X0003051Y0191339D01*
X0003072Y0191496D01*
X0003098Y0191652D01*
X0003128Y0191808D01*
X0003161Y0191963D01*
X0003199Y0192116D01*
X0003240Y0192269D01*
X0003285Y0192421D01*
X0003334Y0192572D01*
X0003387Y0192721D01*
X0003443Y0192869D01*
X0003503Y0193015D01*
X0003567Y0193160D01*
X0003635Y0193303D01*
X0003706Y0193445D01*
X0003780Y0193585D01*
X0003858Y0193722D01*
X0003940Y0193858D01*
X0004024Y0193992D01*
X0004113Y0194123D01*
X0004204Y0194252D01*
X0004299Y0194379D01*
X0004396Y0194504D01*
X0004497Y0194626D01*
X0004601Y0194745D01*
X0004708Y0194862D01*
X0004818Y0194976D01*
X0004931Y0195087D01*
X0005046Y0195196D01*
X0005164Y0195301D01*
X0005285Y0195403D01*
X0005408Y0195503D01*
X0005534Y0195599D01*
X0005662Y0195692D01*
X0005792Y0195782D01*
X0005925Y0195868D01*
X0006060Y0195952D01*
X0006196Y0196031D01*
X0006335Y0196108D01*
X0006476Y0196180D01*
X0006618Y0196250D01*
X0006762Y0196315D01*
X0006908Y0196377D01*
X0007055Y0196435D01*
X0007204Y0196490D01*
X0007354Y0196541D01*
X0007505Y0196588D01*
X0007657Y0196631D01*
X0007810Y0196670D01*
X0007965Y0196706D01*
X0008120Y0196737D01*
X0008276Y0196765D01*
X0008432Y0196789D01*
X0008589Y0196809D01*
X0008747Y0196825D01*
X0008904Y0196837D01*
X0009063Y0196845D01*
X0009221Y0196849D01*
X0009379Y0196849D01*
X0009537Y0196845D01*
X0009696Y0196837D01*
X0009853Y0196825D01*
X0010011Y0196809D01*
X0010168Y0196789D01*
X0010324Y0196765D01*
X0010480Y0196737D01*
X0010635Y0196706D01*
X0010790Y0196670D01*
X0010943Y0196631D01*
X0011095Y0196588D01*
X0011246Y0196541D01*
X0011396Y0196490D01*
X0011545Y0196435D01*
X0011692Y0196377D01*
X0011838Y0196315D01*
X0011982Y0196250D01*
X0012124Y0196180D01*
X0012265Y0196108D01*
X0012404Y0196031D01*
X0012540Y0195952D01*
X0012675Y0195868D01*
X0012808Y0195782D01*
X0012938Y0195692D01*
X0013066Y0195599D01*
X0013192Y0195503D01*
X0013315Y0195403D01*
X0013436Y0195301D01*
X0013554Y0195196D01*
X0013669Y0195087D01*
X0013782Y0194976D01*
X0013892Y0194862D01*
X0013999Y0194745D01*
X0014103Y0194626D01*
X0014204Y0194504D01*
X0014301Y0194379D01*
X0014396Y0194252D01*
X0014487Y0194123D01*
X0014576Y0193992D01*
X0014660Y0193858D01*
X0014742Y0193722D01*
X0014820Y0193585D01*
X0014894Y0193445D01*
X0014965Y0193303D01*
X0015033Y0193160D01*
X0015097Y0193015D01*
X0015157Y0192869D01*
X0015213Y0192721D01*
X0015266Y0192572D01*
X0015315Y0192421D01*
X0015360Y0192269D01*
X0015401Y0192116D01*
X0015439Y0191963D01*
X0015472Y0191808D01*
X0015502Y0191652D01*
X0015528Y0191496D01*
X0015549Y0191339D01*
X0015567Y0191182D01*
X0015581Y0191024D01*
X0015591Y0190866D01*
X0015597Y0190708D01*
X0015599Y0190550D01*
X0015597Y0190392D01*
X0015591Y0190234D01*
X0015581Y0190076D01*
X0015567Y0189918D01*
X0015549Y0189761D01*
X0015528Y0189604D01*
X0015502Y0189448D01*
X0015472Y0189292D01*
X0015439Y0189137D01*
X0015401Y0188984D01*
X0015360Y0188831D01*
X0015315Y0188679D01*
X0015266Y0188528D01*
X0015213Y0188379D01*
X0015157Y0188231D01*
X0015097Y0188085D01*
X0015033Y0187940D01*
X0014965Y0187797D01*
X0014894Y0187655D01*
X0014820Y0187515D01*
X0014742Y0187378D01*
X0014660Y0187242D01*
X0014576Y0187108D01*
X0014487Y0186977D01*
X0014396Y0186848D01*
X0014301Y0186721D01*
X0014204Y0186596D01*
X0014103Y0186474D01*
X0013999Y0186355D01*
X0013892Y0186238D01*
X0013782Y0186124D01*
X0013669Y0186013D01*
X0013554Y0185904D01*
X0013436Y0185799D01*
X0013315Y0185697D01*
X0013192Y0185597D01*
X0013066Y0185501D01*
X0012938Y0185408D01*
X0012808Y0185318D01*
X0012675Y0185232D01*
X0012540Y0185148D01*
X0012404Y0185069D01*
X0012265Y0184992D01*
X0012124Y0184920D01*
X0011982Y0184850D01*
X0011838Y0184785D01*
X0011692Y0184723D01*
X0011545Y0184665D01*
X0011396Y0184610D01*
X0011246Y0184559D01*
X0011095Y0184512D01*
X0010943Y0184469D01*
X0010790Y0184430D01*
X0010635Y0184394D01*
X0010480Y0184363D01*
X0010324Y0184335D01*
X0010168Y0184311D01*
X0010011Y0184291D01*
X0009853Y0184275D01*
X0009696Y0184263D01*
X0009537Y0184255D01*
X0009379Y0184251D01*
X0009221Y0184251D01*
X0009063Y0184255D01*
X0008904Y0184263D01*
X0008747Y0184275D01*
X0008589Y0184291D01*
X0008432Y0184311D01*
X0008276Y0184335D01*
X0008120Y0184363D01*
X0007965Y0184394D01*
X0007810Y0184430D01*
X0007657Y0184469D01*
X0007505Y0184512D01*
X0007354Y0184559D01*
X0007204Y0184610D01*
X0007055Y0184665D01*
X0006908Y0184723D01*
X0006762Y0184785D01*
X0006618Y0184850D01*
X0006476Y0184920D01*
X0006335Y0184992D01*
X0006196Y0185069D01*
X0006060Y0185148D01*
X0005925Y0185232D01*
X0005792Y0185318D01*
X0005662Y0185408D01*
X0005534Y0185501D01*
X0005408Y0185597D01*
X0005285Y0185697D01*
X0005164Y0185799D01*
X0005046Y0185904D01*
X0004931Y0186013D01*
X0004818Y0186124D01*
X0004708Y0186238D01*
X0004601Y0186355D01*
X0004497Y0186474D01*
X0004396Y0186596D01*
X0004299Y0186721D01*
X0004204Y0186848D01*
X0004113Y0186977D01*
X0004024Y0187108D01*
X0003940Y0187242D01*
X0003858Y0187378D01*
X0003780Y0187515D01*
X0003706Y0187655D01*
X0003635Y0187797D01*
X0003567Y0187940D01*
X0003503Y0188085D01*
X0003443Y0188231D01*
X0003387Y0188379D01*
X0003334Y0188528D01*
X0003285Y0188679D01*
X0003240Y0188831D01*
X0003199Y0188984D01*
X0003161Y0189137D01*
X0003128Y0189292D01*
X0003098Y0189448D01*
X0003072Y0189604D01*
X0003051Y0189761D01*
X0003033Y0189918D01*
X0003019Y0190076D01*
X0003009Y0190234D01*
X0003003Y0190392D01*
X0003001Y0190550D01*
X0184251Y0190550D02*
X0184253Y0190708D01*
X0184259Y0190866D01*
X0184269Y0191024D01*
X0184283Y0191182D01*
X0184301Y0191339D01*
X0184322Y0191496D01*
X0184348Y0191652D01*
X0184378Y0191808D01*
X0184411Y0191963D01*
X0184449Y0192116D01*
X0184490Y0192269D01*
X0184535Y0192421D01*
X0184584Y0192572D01*
X0184637Y0192721D01*
X0184693Y0192869D01*
X0184753Y0193015D01*
X0184817Y0193160D01*
X0184885Y0193303D01*
X0184956Y0193445D01*
X0185030Y0193585D01*
X0185108Y0193722D01*
X0185190Y0193858D01*
X0185274Y0193992D01*
X0185363Y0194123D01*
X0185454Y0194252D01*
X0185549Y0194379D01*
X0185646Y0194504D01*
X0185747Y0194626D01*
X0185851Y0194745D01*
X0185958Y0194862D01*
X0186068Y0194976D01*
X0186181Y0195087D01*
X0186296Y0195196D01*
X0186414Y0195301D01*
X0186535Y0195403D01*
X0186658Y0195503D01*
X0186784Y0195599D01*
X0186912Y0195692D01*
X0187042Y0195782D01*
X0187175Y0195868D01*
X0187310Y0195952D01*
X0187446Y0196031D01*
X0187585Y0196108D01*
X0187726Y0196180D01*
X0187868Y0196250D01*
X0188012Y0196315D01*
X0188158Y0196377D01*
X0188305Y0196435D01*
X0188454Y0196490D01*
X0188604Y0196541D01*
X0188755Y0196588D01*
X0188907Y0196631D01*
X0189060Y0196670D01*
X0189215Y0196706D01*
X0189370Y0196737D01*
X0189526Y0196765D01*
X0189682Y0196789D01*
X0189839Y0196809D01*
X0189997Y0196825D01*
X0190154Y0196837D01*
X0190313Y0196845D01*
X0190471Y0196849D01*
X0190629Y0196849D01*
X0190787Y0196845D01*
X0190946Y0196837D01*
X0191103Y0196825D01*
X0191261Y0196809D01*
X0191418Y0196789D01*
X0191574Y0196765D01*
X0191730Y0196737D01*
X0191885Y0196706D01*
X0192040Y0196670D01*
X0192193Y0196631D01*
X0192345Y0196588D01*
X0192496Y0196541D01*
X0192646Y0196490D01*
X0192795Y0196435D01*
X0192942Y0196377D01*
X0193088Y0196315D01*
X0193232Y0196250D01*
X0193374Y0196180D01*
X0193515Y0196108D01*
X0193654Y0196031D01*
X0193790Y0195952D01*
X0193925Y0195868D01*
X0194058Y0195782D01*
X0194188Y0195692D01*
X0194316Y0195599D01*
X0194442Y0195503D01*
X0194565Y0195403D01*
X0194686Y0195301D01*
X0194804Y0195196D01*
X0194919Y0195087D01*
X0195032Y0194976D01*
X0195142Y0194862D01*
X0195249Y0194745D01*
X0195353Y0194626D01*
X0195454Y0194504D01*
X0195551Y0194379D01*
X0195646Y0194252D01*
X0195737Y0194123D01*
X0195826Y0193992D01*
X0195910Y0193858D01*
X0195992Y0193722D01*
X0196070Y0193585D01*
X0196144Y0193445D01*
X0196215Y0193303D01*
X0196283Y0193160D01*
X0196347Y0193015D01*
X0196407Y0192869D01*
X0196463Y0192721D01*
X0196516Y0192572D01*
X0196565Y0192421D01*
X0196610Y0192269D01*
X0196651Y0192116D01*
X0196689Y0191963D01*
X0196722Y0191808D01*
X0196752Y0191652D01*
X0196778Y0191496D01*
X0196799Y0191339D01*
X0196817Y0191182D01*
X0196831Y0191024D01*
X0196841Y0190866D01*
X0196847Y0190708D01*
X0196849Y0190550D01*
X0196847Y0190392D01*
X0196841Y0190234D01*
X0196831Y0190076D01*
X0196817Y0189918D01*
X0196799Y0189761D01*
X0196778Y0189604D01*
X0196752Y0189448D01*
X0196722Y0189292D01*
X0196689Y0189137D01*
X0196651Y0188984D01*
X0196610Y0188831D01*
X0196565Y0188679D01*
X0196516Y0188528D01*
X0196463Y0188379D01*
X0196407Y0188231D01*
X0196347Y0188085D01*
X0196283Y0187940D01*
X0196215Y0187797D01*
X0196144Y0187655D01*
X0196070Y0187515D01*
X0195992Y0187378D01*
X0195910Y0187242D01*
X0195826Y0187108D01*
X0195737Y0186977D01*
X0195646Y0186848D01*
X0195551Y0186721D01*
X0195454Y0186596D01*
X0195353Y0186474D01*
X0195249Y0186355D01*
X0195142Y0186238D01*
X0195032Y0186124D01*
X0194919Y0186013D01*
X0194804Y0185904D01*
X0194686Y0185799D01*
X0194565Y0185697D01*
X0194442Y0185597D01*
X0194316Y0185501D01*
X0194188Y0185408D01*
X0194058Y0185318D01*
X0193925Y0185232D01*
X0193790Y0185148D01*
X0193654Y0185069D01*
X0193515Y0184992D01*
X0193374Y0184920D01*
X0193232Y0184850D01*
X0193088Y0184785D01*
X0192942Y0184723D01*
X0192795Y0184665D01*
X0192646Y0184610D01*
X0192496Y0184559D01*
X0192345Y0184512D01*
X0192193Y0184469D01*
X0192040Y0184430D01*
X0191885Y0184394D01*
X0191730Y0184363D01*
X0191574Y0184335D01*
X0191418Y0184311D01*
X0191261Y0184291D01*
X0191103Y0184275D01*
X0190946Y0184263D01*
X0190787Y0184255D01*
X0190629Y0184251D01*
X0190471Y0184251D01*
X0190313Y0184255D01*
X0190154Y0184263D01*
X0189997Y0184275D01*
X0189839Y0184291D01*
X0189682Y0184311D01*
X0189526Y0184335D01*
X0189370Y0184363D01*
X0189215Y0184394D01*
X0189060Y0184430D01*
X0188907Y0184469D01*
X0188755Y0184512D01*
X0188604Y0184559D01*
X0188454Y0184610D01*
X0188305Y0184665D01*
X0188158Y0184723D01*
X0188012Y0184785D01*
X0187868Y0184850D01*
X0187726Y0184920D01*
X0187585Y0184992D01*
X0187446Y0185069D01*
X0187310Y0185148D01*
X0187175Y0185232D01*
X0187042Y0185318D01*
X0186912Y0185408D01*
X0186784Y0185501D01*
X0186658Y0185597D01*
X0186535Y0185697D01*
X0186414Y0185799D01*
X0186296Y0185904D01*
X0186181Y0186013D01*
X0186068Y0186124D01*
X0185958Y0186238D01*
X0185851Y0186355D01*
X0185747Y0186474D01*
X0185646Y0186596D01*
X0185549Y0186721D01*
X0185454Y0186848D01*
X0185363Y0186977D01*
X0185274Y0187108D01*
X0185190Y0187242D01*
X0185108Y0187378D01*
X0185030Y0187515D01*
X0184956Y0187655D01*
X0184885Y0187797D01*
X0184817Y0187940D01*
X0184753Y0188085D01*
X0184693Y0188231D01*
X0184637Y0188379D01*
X0184584Y0188528D01*
X0184535Y0188679D01*
X0184490Y0188831D01*
X0184449Y0188984D01*
X0184411Y0189137D01*
X0184378Y0189292D01*
X0184348Y0189448D01*
X0184322Y0189604D01*
X0184301Y0189761D01*
X0184283Y0189918D01*
X0184269Y0190076D01*
X0184259Y0190234D01*
X0184253Y0190392D01*
X0184251Y0190550D01*
X0184251Y0009300D02*
X0184253Y0009458D01*
X0184259Y0009616D01*
X0184269Y0009774D01*
X0184283Y0009932D01*
X0184301Y0010089D01*
X0184322Y0010246D01*
X0184348Y0010402D01*
X0184378Y0010558D01*
X0184411Y0010713D01*
X0184449Y0010866D01*
X0184490Y0011019D01*
X0184535Y0011171D01*
X0184584Y0011322D01*
X0184637Y0011471D01*
X0184693Y0011619D01*
X0184753Y0011765D01*
X0184817Y0011910D01*
X0184885Y0012053D01*
X0184956Y0012195D01*
X0185030Y0012335D01*
X0185108Y0012472D01*
X0185190Y0012608D01*
X0185274Y0012742D01*
X0185363Y0012873D01*
X0185454Y0013002D01*
X0185549Y0013129D01*
X0185646Y0013254D01*
X0185747Y0013376D01*
X0185851Y0013495D01*
X0185958Y0013612D01*
X0186068Y0013726D01*
X0186181Y0013837D01*
X0186296Y0013946D01*
X0186414Y0014051D01*
X0186535Y0014153D01*
X0186658Y0014253D01*
X0186784Y0014349D01*
X0186912Y0014442D01*
X0187042Y0014532D01*
X0187175Y0014618D01*
X0187310Y0014702D01*
X0187446Y0014781D01*
X0187585Y0014858D01*
X0187726Y0014930D01*
X0187868Y0015000D01*
X0188012Y0015065D01*
X0188158Y0015127D01*
X0188305Y0015185D01*
X0188454Y0015240D01*
X0188604Y0015291D01*
X0188755Y0015338D01*
X0188907Y0015381D01*
X0189060Y0015420D01*
X0189215Y0015456D01*
X0189370Y0015487D01*
X0189526Y0015515D01*
X0189682Y0015539D01*
X0189839Y0015559D01*
X0189997Y0015575D01*
X0190154Y0015587D01*
X0190313Y0015595D01*
X0190471Y0015599D01*
X0190629Y0015599D01*
X0190787Y0015595D01*
X0190946Y0015587D01*
X0191103Y0015575D01*
X0191261Y0015559D01*
X0191418Y0015539D01*
X0191574Y0015515D01*
X0191730Y0015487D01*
X0191885Y0015456D01*
X0192040Y0015420D01*
X0192193Y0015381D01*
X0192345Y0015338D01*
X0192496Y0015291D01*
X0192646Y0015240D01*
X0192795Y0015185D01*
X0192942Y0015127D01*
X0193088Y0015065D01*
X0193232Y0015000D01*
X0193374Y0014930D01*
X0193515Y0014858D01*
X0193654Y0014781D01*
X0193790Y0014702D01*
X0193925Y0014618D01*
X0194058Y0014532D01*
X0194188Y0014442D01*
X0194316Y0014349D01*
X0194442Y0014253D01*
X0194565Y0014153D01*
X0194686Y0014051D01*
X0194804Y0013946D01*
X0194919Y0013837D01*
X0195032Y0013726D01*
X0195142Y0013612D01*
X0195249Y0013495D01*
X0195353Y0013376D01*
X0195454Y0013254D01*
X0195551Y0013129D01*
X0195646Y0013002D01*
X0195737Y0012873D01*
X0195826Y0012742D01*
X0195910Y0012608D01*
X0195992Y0012472D01*
X0196070Y0012335D01*
X0196144Y0012195D01*
X0196215Y0012053D01*
X0196283Y0011910D01*
X0196347Y0011765D01*
X0196407Y0011619D01*
X0196463Y0011471D01*
X0196516Y0011322D01*
X0196565Y0011171D01*
X0196610Y0011019D01*
X0196651Y0010866D01*
X0196689Y0010713D01*
X0196722Y0010558D01*
X0196752Y0010402D01*
X0196778Y0010246D01*
X0196799Y0010089D01*
X0196817Y0009932D01*
X0196831Y0009774D01*
X0196841Y0009616D01*
X0196847Y0009458D01*
X0196849Y0009300D01*
X0196847Y0009142D01*
X0196841Y0008984D01*
X0196831Y0008826D01*
X0196817Y0008668D01*
X0196799Y0008511D01*
X0196778Y0008354D01*
X0196752Y0008198D01*
X0196722Y0008042D01*
X0196689Y0007887D01*
X0196651Y0007734D01*
X0196610Y0007581D01*
X0196565Y0007429D01*
X0196516Y0007278D01*
X0196463Y0007129D01*
X0196407Y0006981D01*
X0196347Y0006835D01*
X0196283Y0006690D01*
X0196215Y0006547D01*
X0196144Y0006405D01*
X0196070Y0006265D01*
X0195992Y0006128D01*
X0195910Y0005992D01*
X0195826Y0005858D01*
X0195737Y0005727D01*
X0195646Y0005598D01*
X0195551Y0005471D01*
X0195454Y0005346D01*
X0195353Y0005224D01*
X0195249Y0005105D01*
X0195142Y0004988D01*
X0195032Y0004874D01*
X0194919Y0004763D01*
X0194804Y0004654D01*
X0194686Y0004549D01*
X0194565Y0004447D01*
X0194442Y0004347D01*
X0194316Y0004251D01*
X0194188Y0004158D01*
X0194058Y0004068D01*
X0193925Y0003982D01*
X0193790Y0003898D01*
X0193654Y0003819D01*
X0193515Y0003742D01*
X0193374Y0003670D01*
X0193232Y0003600D01*
X0193088Y0003535D01*
X0192942Y0003473D01*
X0192795Y0003415D01*
X0192646Y0003360D01*
X0192496Y0003309D01*
X0192345Y0003262D01*
X0192193Y0003219D01*
X0192040Y0003180D01*
X0191885Y0003144D01*
X0191730Y0003113D01*
X0191574Y0003085D01*
X0191418Y0003061D01*
X0191261Y0003041D01*
X0191103Y0003025D01*
X0190946Y0003013D01*
X0190787Y0003005D01*
X0190629Y0003001D01*
X0190471Y0003001D01*
X0190313Y0003005D01*
X0190154Y0003013D01*
X0189997Y0003025D01*
X0189839Y0003041D01*
X0189682Y0003061D01*
X0189526Y0003085D01*
X0189370Y0003113D01*
X0189215Y0003144D01*
X0189060Y0003180D01*
X0188907Y0003219D01*
X0188755Y0003262D01*
X0188604Y0003309D01*
X0188454Y0003360D01*
X0188305Y0003415D01*
X0188158Y0003473D01*
X0188012Y0003535D01*
X0187868Y0003600D01*
X0187726Y0003670D01*
X0187585Y0003742D01*
X0187446Y0003819D01*
X0187310Y0003898D01*
X0187175Y0003982D01*
X0187042Y0004068D01*
X0186912Y0004158D01*
X0186784Y0004251D01*
X0186658Y0004347D01*
X0186535Y0004447D01*
X0186414Y0004549D01*
X0186296Y0004654D01*
X0186181Y0004763D01*
X0186068Y0004874D01*
X0185958Y0004988D01*
X0185851Y0005105D01*
X0185747Y0005224D01*
X0185646Y0005346D01*
X0185549Y0005471D01*
X0185454Y0005598D01*
X0185363Y0005727D01*
X0185274Y0005858D01*
X0185190Y0005992D01*
X0185108Y0006128D01*
X0185030Y0006265D01*
X0184956Y0006405D01*
X0184885Y0006547D01*
X0184817Y0006690D01*
X0184753Y0006835D01*
X0184693Y0006981D01*
X0184637Y0007129D01*
X0184584Y0007278D01*
X0184535Y0007429D01*
X0184490Y0007581D01*
X0184449Y0007734D01*
X0184411Y0007887D01*
X0184378Y0008042D01*
X0184348Y0008198D01*
X0184322Y0008354D01*
X0184301Y0008511D01*
X0184283Y0008668D01*
X0184269Y0008826D01*
X0184259Y0008984D01*
X0184253Y0009142D01*
X0184251Y0009300D01*
D11*
X0171800Y0006800D03*
X0181800Y0026800D03*
X0191800Y0026800D03*
X0171800Y0046800D03*
X0136800Y0071800D03*
X0151800Y0136800D03*
X0131800Y0141800D03*
X0131800Y0151800D03*
X0126800Y0161800D03*
X0126800Y0171800D03*
X0106800Y0166800D03*
X0106800Y0186800D03*
X0101800Y0194300D03*
X0096800Y0186800D03*
X0076800Y0171800D03*
X0076800Y0161800D03*
X0151800Y0176800D03*
X0046800Y0051800D03*
X0031800Y0051800D03*
X0016800Y0026800D03*
X0006800Y0026800D03*
X0031800Y0011800D03*
X0046800Y0011800D03*
X0066800Y0021800D03*
X0066800Y0031800D03*
D12*
X0126800Y0071800D03*
X0096800Y0166800D03*
D13*
X0036879Y0168099D03*
X0032154Y0164950D03*
X0036879Y0161800D03*
X0032154Y0158650D03*
X0036879Y0155501D03*
D14*
X0016800Y0147430D03*
X0016800Y0176170D03*
D15*
X0006800Y0136800D03*
X0006800Y0126800D03*
X0006800Y0116800D03*
X0006800Y0106800D03*
X0006800Y0096800D03*
X0006800Y0086800D03*
X0006800Y0076800D03*
X0006800Y0066800D03*
X0071800Y0066800D03*
X0071800Y0056800D03*
X0071800Y0076800D03*
X0091800Y0008050D03*
X0111800Y0008050D03*
X0194300Y0066800D03*
X0194300Y0076800D03*
X0194300Y0086800D03*
X0194300Y0096800D03*
X0194300Y0106800D03*
X0194300Y0116800D03*
X0194300Y0126800D03*
X0194300Y0136800D03*
X0191800Y0151800D03*
X0191800Y0171800D03*
X0176800Y0191800D03*
X0166800Y0191800D03*
X0156800Y0191800D03*
X0146800Y0191800D03*
X0136800Y0191800D03*
X0126800Y0191800D03*
D16*
X0119400Y0151800D02*
X0114200Y0151800D01*
X0114200Y0141800D02*
X0119400Y0141800D01*
X0119400Y0131800D02*
X0114200Y0131800D01*
X0114200Y0121800D02*
X0119400Y0121800D01*
X0119400Y0111800D02*
X0114200Y0111800D01*
X0114200Y0101800D02*
X0119400Y0101800D01*
X0119400Y0091800D02*
X0114200Y0091800D01*
X0114200Y0081800D02*
X0119400Y0081800D01*
X0119400Y0071800D02*
X0114200Y0071800D01*
X0114200Y0061800D02*
X0119400Y0061800D01*
X0119400Y0051800D02*
X0114200Y0051800D01*
X0114200Y0041800D02*
X0119400Y0041800D01*
X0119400Y0031800D02*
X0114200Y0031800D01*
X0114200Y0021800D02*
X0119400Y0021800D01*
X0089400Y0021800D02*
X0084200Y0021800D01*
X0084200Y0031800D02*
X0089400Y0031800D01*
X0089400Y0041800D02*
X0084200Y0041800D01*
X0084200Y0051800D02*
X0089400Y0051800D01*
X0089400Y0061800D02*
X0084200Y0061800D01*
X0084200Y0071800D02*
X0089400Y0071800D01*
X0089400Y0081800D02*
X0084200Y0081800D01*
X0084200Y0091800D02*
X0089400Y0091800D01*
X0089400Y0101800D02*
X0084200Y0101800D01*
X0084200Y0111800D02*
X0089400Y0111800D01*
X0089400Y0121800D02*
X0084200Y0121800D01*
X0084200Y0131800D02*
X0089400Y0131800D01*
X0089400Y0141800D02*
X0084200Y0141800D01*
X0084200Y0151800D02*
X0089400Y0151800D01*
D17*
X0059800Y0186800D03*
X0051800Y0186800D03*
X0043800Y0186800D03*
D18*
X0046652Y0184030D02*
X0048948Y0184030D01*
X0047825Y0185154D02*
X0050154Y0182825D01*
X0053446Y0182825D01*
X0055775Y0185154D01*
X0055775Y0188446D01*
X0053446Y0190775D01*
X0050154Y0190775D01*
X0047825Y0188446D01*
X0047825Y0185154D01*
X0047775Y0185154D02*
X0045446Y0182825D01*
X0042154Y0182825D01*
X0039825Y0185154D01*
X0039825Y0188446D01*
X0042154Y0190775D01*
X0045446Y0190775D01*
X0047775Y0188446D01*
X0047775Y0185154D01*
X0047775Y0185629D02*
X0047825Y0185629D01*
X0047775Y0187227D02*
X0047825Y0187227D01*
X0048205Y0188826D02*
X0047395Y0188826D01*
X0045797Y0190424D02*
X0049803Y0190424D01*
X0053797Y0190424D02*
X0057803Y0190424D01*
X0058154Y0190775D02*
X0055825Y0188446D01*
X0055825Y0185154D01*
X0058154Y0182825D01*
X0060664Y0182825D01*
X0064600Y0178889D01*
X0064600Y0115889D01*
X0065889Y0114600D01*
X0081343Y0114600D01*
X0080809Y0114066D01*
X0080200Y0112596D01*
X0080200Y0111004D01*
X0080809Y0109534D01*
X0081934Y0108409D01*
X0083404Y0107800D01*
X0090196Y0107800D01*
X0091666Y0108409D01*
X0092791Y0109534D01*
X0093400Y0111004D01*
X0093400Y0112596D01*
X0092791Y0114066D01*
X0092257Y0114600D01*
X0111343Y0114600D01*
X0110809Y0114066D01*
X0110200Y0112596D01*
X0110200Y0111004D01*
X0110809Y0109534D01*
X0111934Y0108409D01*
X0113404Y0107800D01*
X0120196Y0107800D01*
X0121666Y0108409D01*
X0122791Y0109534D01*
X0123400Y0111004D01*
X0123400Y0112596D01*
X0122791Y0114066D01*
X0122257Y0114600D01*
X0125889Y0114600D01*
X0130889Y0109600D01*
X0137001Y0109600D01*
X0137498Y0109103D01*
X0138667Y0108619D01*
X0139933Y0108619D01*
X0140914Y0109025D01*
X0135889Y0104000D01*
X0122818Y0104000D01*
X0122791Y0104066D01*
X0121666Y0105191D01*
X0120196Y0105800D01*
X0113404Y0105800D01*
X0111934Y0105191D01*
X0110809Y0104066D01*
X0110782Y0104000D01*
X0105889Y0104000D01*
X0093400Y0091511D01*
X0093400Y0092596D01*
X0092791Y0094066D01*
X0092257Y0094600D01*
X0092711Y0094600D01*
X0096730Y0098619D01*
X0097433Y0098619D01*
X0098602Y0099103D01*
X0099497Y0099998D01*
X0099981Y0101167D01*
X0099981Y0102433D01*
X0099497Y0103602D01*
X0098602Y0104497D01*
X0097433Y0104981D01*
X0096167Y0104981D01*
X0094998Y0104497D01*
X0094103Y0103602D01*
X0093619Y0102433D01*
X0093619Y0101730D01*
X0093400Y0101511D01*
X0093400Y0102596D01*
X0092791Y0104066D01*
X0091666Y0105191D01*
X0090196Y0105800D01*
X0083404Y0105800D01*
X0081934Y0105191D01*
X0080809Y0104066D01*
X0080200Y0102596D01*
X0080200Y0101004D01*
X0080809Y0099534D01*
X0081343Y0099000D01*
X0062711Y0099000D01*
X0054000Y0107711D01*
X0054000Y0159501D01*
X0054497Y0159998D01*
X0054981Y0161167D01*
X0054981Y0162433D01*
X0054497Y0163602D01*
X0053602Y0164497D01*
X0052433Y0164981D01*
X0051167Y0164981D01*
X0049998Y0164497D01*
X0049103Y0163602D01*
X0049000Y0163353D01*
X0049000Y0172711D01*
X0047711Y0174000D01*
X0042711Y0179000D01*
X0035889Y0179000D01*
X0034600Y0177711D01*
X0029600Y0172711D01*
X0029600Y0170889D01*
X0029954Y0170534D01*
X0029954Y0168341D01*
X0029903Y0168319D01*
X0028785Y0167201D01*
X0028180Y0165740D01*
X0028180Y0164159D01*
X0028785Y0162698D01*
X0029683Y0161800D01*
X0028785Y0160902D01*
X0028180Y0159441D01*
X0028180Y0157860D01*
X0028785Y0156399D01*
X0029600Y0155584D01*
X0029600Y0060889D01*
X0030889Y0059600D01*
X0037100Y0053389D01*
X0037100Y0007139D01*
X0038389Y0005850D01*
X0039639Y0004600D01*
X0052711Y0004600D01*
X0054000Y0005889D01*
X0057711Y0009600D01*
X0067711Y0009600D01*
X0069000Y0010889D01*
X0077711Y0019600D01*
X0080782Y0019600D01*
X0080809Y0019534D01*
X0081934Y0018409D01*
X0083404Y0017800D01*
X0090196Y0017800D01*
X0091666Y0018409D01*
X0092791Y0019534D01*
X0093400Y0021004D01*
X0093400Y0022089D01*
X0095889Y0019600D01*
X0110782Y0019600D01*
X0110809Y0019534D01*
X0111934Y0018409D01*
X0113404Y0017800D01*
X0120196Y0017800D01*
X0121666Y0018409D01*
X0122791Y0019534D01*
X0123400Y0021004D01*
X0123400Y0022596D01*
X0122791Y0024066D01*
X0121666Y0025191D01*
X0120196Y0025800D01*
X0113404Y0025800D01*
X0111934Y0025191D01*
X0110809Y0024066D01*
X0110782Y0024000D01*
X0097711Y0024000D01*
X0094000Y0027711D01*
X0092765Y0028946D01*
X0093163Y0029494D01*
X0093478Y0030111D01*
X0093692Y0030770D01*
X0093800Y0031454D01*
X0093800Y0031800D01*
X0093800Y0032146D01*
X0093692Y0032830D01*
X0093478Y0033489D01*
X0093163Y0034106D01*
X0092756Y0034666D01*
X0092266Y0035156D01*
X0091706Y0035563D01*
X0091089Y0035878D01*
X0090430Y0036092D01*
X0089746Y0036200D01*
X0086800Y0036200D01*
X0086800Y0031800D01*
X0086800Y0031800D01*
X0093800Y0031800D01*
X0086800Y0031800D01*
X0086800Y0031800D01*
X0086800Y0031800D01*
X0079800Y0031800D01*
X0079800Y0032146D01*
X0079908Y0032830D01*
X0080122Y0033489D01*
X0080437Y0034106D01*
X0080844Y0034666D01*
X0081334Y0035156D01*
X0081894Y0035563D01*
X0082511Y0035878D01*
X0083170Y0036092D01*
X0083854Y0036200D01*
X0086800Y0036200D01*
X0086800Y0031800D01*
X0079800Y0031800D01*
X0079800Y0031454D01*
X0079908Y0030770D01*
X0080122Y0030111D01*
X0080437Y0029494D01*
X0080796Y0029000D01*
X0077157Y0029000D01*
X0076631Y0029175D01*
X0076281Y0029000D01*
X0075889Y0029000D01*
X0075497Y0028608D01*
X0068931Y0025325D01*
X0068457Y0025800D01*
X0065143Y0025800D01*
X0062800Y0023457D01*
X0062800Y0020143D01*
X0065143Y0017800D01*
X0068457Y0017800D01*
X0070800Y0020143D01*
X0070800Y0021340D01*
X0075658Y0023769D01*
X0065889Y0014000D01*
X0055889Y0014000D01*
X0050889Y0009000D01*
X0049657Y0009000D01*
X0050800Y0010143D01*
X0050800Y0013457D01*
X0048457Y0015800D01*
X0045143Y0015800D01*
X0042800Y0013457D01*
X0042800Y0010143D01*
X0043943Y0009000D01*
X0041500Y0009000D01*
X0041500Y0055211D01*
X0040211Y0056500D01*
X0034000Y0062711D01*
X0034000Y0152193D01*
X0034029Y0152164D01*
X0034586Y0151759D01*
X0035199Y0151446D01*
X0035854Y0151234D01*
X0036534Y0151126D01*
X0036879Y0151126D01*
X0037223Y0151126D01*
X0037903Y0151234D01*
X0038558Y0151446D01*
X0039172Y0151759D01*
X0039729Y0152164D01*
X0040216Y0152651D01*
X0040620Y0153208D01*
X0040933Y0153821D01*
X0041146Y0154476D01*
X0041254Y0155156D01*
X0041254Y0155501D01*
X0041254Y0155845D01*
X0041146Y0156525D01*
X0040933Y0157180D01*
X0040620Y0157794D01*
X0040216Y0158351D01*
X0039729Y0158838D01*
X0039618Y0158918D01*
X0040248Y0159548D01*
X0040854Y0161009D01*
X0040854Y0162591D01*
X0040248Y0164052D01*
X0039350Y0164950D01*
X0040248Y0165848D01*
X0040854Y0167309D01*
X0040854Y0168890D01*
X0040248Y0170351D01*
X0039130Y0171469D01*
X0037669Y0172074D01*
X0036088Y0172074D01*
X0034627Y0171469D01*
X0034354Y0171196D01*
X0034354Y0171243D01*
X0037711Y0174600D01*
X0040889Y0174600D01*
X0044600Y0170889D01*
X0044600Y0089099D01*
X0044103Y0088602D01*
X0043619Y0087433D01*
X0043619Y0086167D01*
X0044103Y0084998D01*
X0044998Y0084103D01*
X0046167Y0083619D01*
X0047433Y0083619D01*
X0048602Y0084103D01*
X0049497Y0084998D01*
X0049981Y0086167D01*
X0049981Y0087433D01*
X0049497Y0088602D01*
X0049000Y0089099D01*
X0049000Y0160247D01*
X0049103Y0159998D01*
X0049600Y0159501D01*
X0049600Y0105889D01*
X0059600Y0095889D01*
X0060889Y0094600D01*
X0081343Y0094600D01*
X0080809Y0094066D01*
X0080200Y0092596D01*
X0080200Y0091004D01*
X0080809Y0089534D01*
X0081934Y0088409D01*
X0083404Y0087800D01*
X0089689Y0087800D01*
X0087689Y0085800D01*
X0083404Y0085800D01*
X0081934Y0085191D01*
X0081727Y0084984D01*
X0079000Y0087711D01*
X0077711Y0089000D01*
X0060889Y0089000D01*
X0055889Y0084000D01*
X0054600Y0082711D01*
X0054600Y0062711D01*
X0047689Y0055800D01*
X0045143Y0055800D01*
X0042800Y0053457D01*
X0042800Y0050143D01*
X0045143Y0047800D01*
X0048457Y0047800D01*
X0050800Y0050143D01*
X0050800Y0052689D01*
X0059000Y0060889D01*
X0059000Y0080889D01*
X0062711Y0084600D01*
X0075889Y0084600D01*
X0080706Y0079783D01*
X0080809Y0079534D01*
X0081934Y0078409D01*
X0083404Y0077800D01*
X0090196Y0077800D01*
X0091666Y0078409D01*
X0092791Y0079534D01*
X0093400Y0081004D01*
X0093400Y0082596D01*
X0092791Y0084066D01*
X0092484Y0084373D01*
X0107711Y0099600D01*
X0110782Y0099600D01*
X0110809Y0099534D01*
X0111934Y0098409D01*
X0113404Y0097800D01*
X0120196Y0097800D01*
X0121666Y0098409D01*
X0122791Y0099534D01*
X0122818Y0099600D01*
X0137711Y0099600D01*
X0139000Y0100889D01*
X0154000Y0115889D01*
X0154000Y0133343D01*
X0155800Y0135143D01*
X0155800Y0138457D01*
X0153457Y0140800D01*
X0150143Y0140800D01*
X0147800Y0138457D01*
X0147800Y0135143D01*
X0149600Y0133343D01*
X0149600Y0117711D01*
X0142075Y0110186D01*
X0142481Y0111167D01*
X0142481Y0112433D01*
X0141997Y0113602D01*
X0141102Y0114497D01*
X0139933Y0114981D01*
X0138667Y0114981D01*
X0137498Y0114497D01*
X0137001Y0114000D01*
X0132711Y0114000D01*
X0129000Y0117711D01*
X0127711Y0119000D01*
X0122257Y0119000D01*
X0122791Y0119534D01*
X0123400Y0121004D01*
X0123400Y0122596D01*
X0122791Y0124066D01*
X0121666Y0125191D01*
X0120196Y0125800D01*
X0113404Y0125800D01*
X0111934Y0125191D01*
X0110809Y0124066D01*
X0110200Y0122596D01*
X0110200Y0121004D01*
X0110809Y0119534D01*
X0111343Y0119000D01*
X0092257Y0119000D01*
X0092791Y0119534D01*
X0093400Y0121004D01*
X0093400Y0122596D01*
X0092791Y0124066D01*
X0091666Y0125191D01*
X0090196Y0125800D01*
X0083404Y0125800D01*
X0081934Y0125191D01*
X0080809Y0124066D01*
X0080200Y0122596D01*
X0080200Y0121004D01*
X0080809Y0119534D01*
X0081343Y0119000D01*
X0069000Y0119000D01*
X0069000Y0180711D01*
X0066596Y0183115D01*
X0066798Y0183031D01*
X0068298Y0183031D01*
X0069683Y0183605D01*
X0070743Y0184665D01*
X0071317Y0186050D01*
X0071317Y0187550D01*
X0070743Y0188935D01*
X0069683Y0189995D01*
X0068298Y0190568D01*
X0066798Y0190568D01*
X0065413Y0189995D01*
X0064353Y0188935D01*
X0063780Y0187550D01*
X0063780Y0186050D01*
X0063863Y0185848D01*
X0063775Y0185936D01*
X0063775Y0188446D01*
X0061446Y0190775D01*
X0058154Y0190775D01*
X0056205Y0188826D02*
X0055395Y0188826D01*
X0055775Y0187227D02*
X0055825Y0187227D01*
X0055775Y0185629D02*
X0055825Y0185629D01*
X0056948Y0184030D02*
X0054652Y0184030D01*
X0059800Y0186800D02*
X0066800Y0179800D01*
X0066800Y0116800D01*
X0126800Y0116800D01*
X0131800Y0111800D01*
X0139300Y0111800D01*
X0142204Y0110499D02*
X0142388Y0110499D01*
X0142481Y0112097D02*
X0143986Y0112097D01*
X0145585Y0113696D02*
X0141903Y0113696D01*
X0140789Y0108900D02*
X0140612Y0108900D01*
X0139190Y0107302D02*
X0054410Y0107302D01*
X0054000Y0108900D02*
X0081443Y0108900D01*
X0080409Y0110499D02*
X0054000Y0110499D01*
X0054000Y0112097D02*
X0080200Y0112097D01*
X0080656Y0113696D02*
X0054000Y0113696D01*
X0054000Y0115294D02*
X0065194Y0115294D01*
X0064600Y0116893D02*
X0054000Y0116893D01*
X0054000Y0118491D02*
X0064600Y0118491D01*
X0064600Y0120090D02*
X0054000Y0120090D01*
X0054000Y0121688D02*
X0064600Y0121688D01*
X0064600Y0123287D02*
X0054000Y0123287D01*
X0054000Y0124885D02*
X0064600Y0124885D01*
X0064600Y0126484D02*
X0054000Y0126484D01*
X0054000Y0128082D02*
X0064600Y0128082D01*
X0064600Y0129681D02*
X0054000Y0129681D01*
X0054000Y0131279D02*
X0064600Y0131279D01*
X0064600Y0132878D02*
X0054000Y0132878D01*
X0054000Y0134476D02*
X0064600Y0134476D01*
X0064600Y0136075D02*
X0054000Y0136075D01*
X0054000Y0137673D02*
X0064600Y0137673D01*
X0064600Y0139272D02*
X0054000Y0139272D01*
X0054000Y0140870D02*
X0064600Y0140870D01*
X0064600Y0142469D02*
X0054000Y0142469D01*
X0054000Y0144068D02*
X0064600Y0144068D01*
X0064600Y0145666D02*
X0054000Y0145666D01*
X0054000Y0147265D02*
X0064600Y0147265D01*
X0064600Y0148863D02*
X0054000Y0148863D01*
X0054000Y0150462D02*
X0064600Y0150462D01*
X0064600Y0152060D02*
X0054000Y0152060D01*
X0054000Y0153659D02*
X0064600Y0153659D01*
X0064600Y0155257D02*
X0054000Y0155257D01*
X0054000Y0156856D02*
X0064600Y0156856D01*
X0064600Y0158454D02*
X0054000Y0158454D01*
X0054519Y0160053D02*
X0064600Y0160053D01*
X0064600Y0161651D02*
X0054981Y0161651D01*
X0054643Y0163250D02*
X0064600Y0163250D01*
X0064600Y0164848D02*
X0052754Y0164848D01*
X0050846Y0164848D02*
X0049000Y0164848D01*
X0049000Y0166447D02*
X0064600Y0166447D01*
X0064600Y0168045D02*
X0049000Y0168045D01*
X0049000Y0169644D02*
X0064600Y0169644D01*
X0064600Y0171242D02*
X0049000Y0171242D01*
X0048871Y0172841D02*
X0064600Y0172841D01*
X0064600Y0174439D02*
X0047272Y0174439D01*
X0045674Y0176038D02*
X0064600Y0176038D01*
X0064600Y0177636D02*
X0044075Y0177636D01*
X0041800Y0176800D02*
X0046800Y0171800D01*
X0046800Y0086800D01*
X0043903Y0088120D02*
X0034000Y0088120D01*
X0034000Y0089718D02*
X0044600Y0089718D01*
X0044600Y0091317D02*
X0034000Y0091317D01*
X0034000Y0092915D02*
X0044600Y0092915D01*
X0044600Y0094514D02*
X0034000Y0094514D01*
X0034000Y0096112D02*
X0044600Y0096112D01*
X0044600Y0097711D02*
X0034000Y0097711D01*
X0034000Y0099309D02*
X0044600Y0099309D01*
X0044600Y0100908D02*
X0034000Y0100908D01*
X0034000Y0102506D02*
X0044600Y0102506D01*
X0044600Y0104105D02*
X0034000Y0104105D01*
X0034000Y0105703D02*
X0044600Y0105703D01*
X0044600Y0107302D02*
X0034000Y0107302D01*
X0034000Y0108900D02*
X0044600Y0108900D01*
X0044600Y0110499D02*
X0034000Y0110499D01*
X0034000Y0112097D02*
X0044600Y0112097D01*
X0044600Y0113696D02*
X0034000Y0113696D01*
X0034000Y0115294D02*
X0044600Y0115294D01*
X0044600Y0116893D02*
X0034000Y0116893D01*
X0034000Y0118491D02*
X0044600Y0118491D01*
X0044600Y0120090D02*
X0034000Y0120090D01*
X0034000Y0121688D02*
X0044600Y0121688D01*
X0044600Y0123287D02*
X0034000Y0123287D01*
X0034000Y0124885D02*
X0044600Y0124885D01*
X0044600Y0126484D02*
X0034000Y0126484D01*
X0034000Y0128082D02*
X0044600Y0128082D01*
X0044600Y0129681D02*
X0034000Y0129681D01*
X0034000Y0131279D02*
X0044600Y0131279D01*
X0044600Y0132878D02*
X0034000Y0132878D01*
X0034000Y0134476D02*
X0044600Y0134476D01*
X0044600Y0136075D02*
X0034000Y0136075D01*
X0034000Y0137673D02*
X0044600Y0137673D01*
X0044600Y0139272D02*
X0034000Y0139272D01*
X0034000Y0140870D02*
X0044600Y0140870D01*
X0044600Y0142469D02*
X0034000Y0142469D01*
X0034000Y0144068D02*
X0044600Y0144068D01*
X0044600Y0145666D02*
X0034000Y0145666D01*
X0034000Y0147265D02*
X0044600Y0147265D01*
X0044600Y0148863D02*
X0034000Y0148863D01*
X0034000Y0150462D02*
X0044600Y0150462D01*
X0044600Y0152060D02*
X0039586Y0152060D01*
X0040850Y0153659D02*
X0044600Y0153659D01*
X0044600Y0155257D02*
X0041254Y0155257D01*
X0041254Y0155501D02*
X0036879Y0155501D01*
X0041254Y0155501D01*
X0041038Y0156856D02*
X0044600Y0156856D01*
X0044600Y0158454D02*
X0040112Y0158454D01*
X0040457Y0160053D02*
X0044600Y0160053D01*
X0044600Y0161651D02*
X0040854Y0161651D01*
X0040581Y0163250D02*
X0044600Y0163250D01*
X0044600Y0164848D02*
X0039452Y0164848D01*
X0040497Y0166447D02*
X0044600Y0166447D01*
X0044600Y0168045D02*
X0040854Y0168045D01*
X0040541Y0169644D02*
X0044600Y0169644D01*
X0044247Y0171242D02*
X0039357Y0171242D01*
X0042648Y0172841D02*
X0035952Y0172841D01*
X0034401Y0171242D02*
X0034354Y0171242D01*
X0032154Y0171446D02*
X0031800Y0171800D01*
X0036800Y0176800D01*
X0041800Y0176800D01*
X0041049Y0174439D02*
X0037550Y0174439D01*
X0034525Y0177636D02*
X0023781Y0177636D01*
X0023810Y0177564D02*
X0022743Y0180141D01*
X0020771Y0182113D01*
X0018194Y0183180D01*
X0015406Y0183180D01*
X0012829Y0182113D01*
X0010857Y0180141D01*
X0009790Y0177564D01*
X0009790Y0174776D01*
X0010857Y0172199D01*
X0012829Y0170227D01*
X0015406Y0169160D01*
X0018194Y0169160D01*
X0020771Y0170227D01*
X0022743Y0172199D01*
X0023810Y0174776D01*
X0023810Y0177564D01*
X0023810Y0176038D02*
X0032926Y0176038D01*
X0031328Y0174439D02*
X0023671Y0174439D01*
X0023009Y0172841D02*
X0029729Y0172841D01*
X0029600Y0171242D02*
X0021786Y0171242D01*
X0019363Y0169644D02*
X0029954Y0169644D01*
X0029629Y0168045D02*
X0003600Y0168045D01*
X0003600Y0166447D02*
X0028472Y0166447D01*
X0028180Y0164848D02*
X0003600Y0164848D01*
X0003600Y0163250D02*
X0028556Y0163250D01*
X0029534Y0161651D02*
X0003600Y0161651D01*
X0003600Y0160053D02*
X0028433Y0160053D01*
X0028180Y0158454D02*
X0003600Y0158454D01*
X0003600Y0156856D02*
X0028595Y0156856D01*
X0029600Y0155257D02*
X0003600Y0155257D01*
X0003600Y0153659D02*
X0013519Y0153659D01*
X0012829Y0153373D02*
X0010857Y0151401D01*
X0009790Y0148824D01*
X0009790Y0146035D01*
X0010857Y0143459D01*
X0012829Y0141487D01*
X0015406Y0140420D01*
X0018194Y0140420D01*
X0020771Y0141487D01*
X0022743Y0143459D01*
X0023810Y0146035D01*
X0023810Y0148824D01*
X0022743Y0151401D01*
X0020771Y0153373D01*
X0018194Y0154440D01*
X0015406Y0154440D01*
X0012829Y0153373D01*
X0011516Y0152060D02*
X0003600Y0152060D01*
X0003600Y0150462D02*
X0010468Y0150462D01*
X0009806Y0148863D02*
X0003600Y0148863D01*
X0003600Y0147265D02*
X0009790Y0147265D01*
X0009943Y0145666D02*
X0003600Y0145666D01*
X0003600Y0144068D02*
X0010605Y0144068D01*
X0011847Y0142469D02*
X0003600Y0142469D01*
X0003911Y0141124D02*
X0003600Y0140812D01*
X0003600Y0184796D01*
X0004712Y0183684D01*
X0007689Y0182451D01*
X0010911Y0182451D01*
X0013888Y0183684D01*
X0016166Y0185962D01*
X0017399Y0188939D01*
X0017399Y0192161D01*
X0016166Y0195138D01*
X0014454Y0196850D01*
X0098694Y0196850D01*
X0097800Y0195957D01*
X0097800Y0192643D01*
X0100143Y0190300D01*
X0103457Y0190300D01*
X0105800Y0192643D01*
X0105800Y0195957D01*
X0104906Y0196850D01*
X0125666Y0196850D01*
X0123911Y0196124D01*
X0122476Y0194689D01*
X0121700Y0192814D01*
X0121700Y0190786D01*
X0122476Y0188911D01*
X0123911Y0187476D01*
X0124232Y0187343D01*
X0110889Y0174000D01*
X0109600Y0172711D01*
X0109600Y0170223D01*
X0108623Y0171200D01*
X0106800Y0171200D01*
X0106800Y0166800D01*
X0106800Y0166800D01*
X0106800Y0162400D01*
X0108623Y0162400D01*
X0109600Y0163377D01*
X0109600Y0157711D01*
X0105889Y0154000D01*
X0092818Y0154000D01*
X0092791Y0154066D01*
X0091666Y0155191D01*
X0090196Y0155800D01*
X0083404Y0155800D01*
X0081934Y0155191D01*
X0080809Y0154066D01*
X0080200Y0152596D01*
X0080200Y0151004D01*
X0080809Y0149534D01*
X0081934Y0148409D01*
X0083404Y0147800D01*
X0090196Y0147800D01*
X0091666Y0148409D01*
X0092791Y0149534D01*
X0092818Y0149600D01*
X0107711Y0149600D01*
X0109000Y0150889D01*
X0110200Y0152089D01*
X0110200Y0151004D01*
X0110809Y0149534D01*
X0111934Y0148409D01*
X0113404Y0147800D01*
X0120196Y0147800D01*
X0121666Y0148409D01*
X0122791Y0149534D01*
X0123400Y0151004D01*
X0123400Y0152596D01*
X0122791Y0154066D01*
X0121666Y0155191D01*
X0120196Y0155800D01*
X0113911Y0155800D01*
X0114000Y0155889D01*
X0114000Y0170889D01*
X0126800Y0183689D01*
X0133619Y0176870D01*
X0133619Y0176167D01*
X0134103Y0174998D01*
X0134998Y0174103D01*
X0136167Y0173619D01*
X0137433Y0173619D01*
X0138602Y0174103D01*
X0139497Y0174998D01*
X0139981Y0176167D01*
X0139981Y0177433D01*
X0139497Y0178602D01*
X0138602Y0179497D01*
X0137433Y0179981D01*
X0136730Y0179981D01*
X0129368Y0187343D01*
X0129689Y0187476D01*
X0131124Y0188911D01*
X0131800Y0190544D01*
X0132476Y0188911D01*
X0133911Y0187476D01*
X0135786Y0186700D01*
X0137814Y0186700D01*
X0139689Y0187476D01*
X0141124Y0188911D01*
X0141590Y0190037D01*
X0141703Y0189689D01*
X0142096Y0188917D01*
X0142605Y0188217D01*
X0143217Y0187605D01*
X0143917Y0187096D01*
X0144689Y0186703D01*
X0145512Y0186435D01*
X0146367Y0186300D01*
X0146600Y0186300D01*
X0146600Y0191600D01*
X0147000Y0191600D01*
X0147000Y0186300D01*
X0147233Y0186300D01*
X0148088Y0186435D01*
X0148911Y0186703D01*
X0149683Y0187096D01*
X0150383Y0187605D01*
X0150995Y0188217D01*
X0151504Y0188917D01*
X0151897Y0189689D01*
X0152010Y0190037D01*
X0152476Y0188911D01*
X0153911Y0187476D01*
X0155786Y0186700D01*
X0157814Y0186700D01*
X0159689Y0187476D01*
X0161124Y0188911D01*
X0161800Y0190544D01*
X0162476Y0188911D01*
X0163911Y0187476D01*
X0165786Y0186700D01*
X0167814Y0186700D01*
X0169689Y0187476D01*
X0171124Y0188911D01*
X0171800Y0190544D01*
X0172476Y0188911D01*
X0173911Y0187476D01*
X0175786Y0186700D01*
X0177814Y0186700D01*
X0179689Y0187476D01*
X0181124Y0188911D01*
X0181900Y0190786D01*
X0181900Y0192814D01*
X0181124Y0194689D01*
X0179689Y0196124D01*
X0177934Y0196850D01*
X0185396Y0196850D01*
X0183684Y0195138D01*
X0182451Y0192161D01*
X0182451Y0188939D01*
X0183684Y0185962D01*
X0185962Y0183684D01*
X0188939Y0182451D01*
X0192161Y0182451D01*
X0195138Y0183684D01*
X0196850Y0185396D01*
X0196850Y0172934D01*
X0196124Y0174689D01*
X0194689Y0176124D01*
X0192814Y0176900D01*
X0190786Y0176900D01*
X0190097Y0176615D01*
X0187711Y0179000D01*
X0155257Y0179000D01*
X0153457Y0180800D01*
X0150143Y0180800D01*
X0147800Y0178457D01*
X0147800Y0175143D01*
X0150143Y0172800D01*
X0153457Y0172800D01*
X0155257Y0174600D01*
X0165247Y0174600D01*
X0164998Y0174497D01*
X0164103Y0173602D01*
X0163619Y0172433D01*
X0163619Y0171167D01*
X0164103Y0169998D01*
X0164600Y0169501D01*
X0164600Y0123353D01*
X0164497Y0123602D01*
X0163602Y0124497D01*
X0162750Y0124850D01*
X0162750Y0162001D01*
X0163247Y0162498D01*
X0163731Y0163667D01*
X0163731Y0164933D01*
X0163247Y0166102D01*
X0162352Y0166997D01*
X0161183Y0167481D01*
X0159917Y0167481D01*
X0158748Y0166997D01*
X0157853Y0166102D01*
X0157369Y0164933D01*
X0157369Y0163667D01*
X0157853Y0162498D01*
X0158350Y0162001D01*
X0158350Y0122139D01*
X0158619Y0121870D01*
X0158619Y0121167D01*
X0159103Y0119998D01*
X0159998Y0119103D01*
X0161167Y0118619D01*
X0162433Y0118619D01*
X0163602Y0119103D01*
X0164497Y0119998D01*
X0164600Y0120247D01*
X0164600Y0112711D01*
X0156870Y0104981D01*
X0156167Y0104981D01*
X0154998Y0104497D01*
X0154103Y0103602D01*
X0153619Y0102433D01*
X0153619Y0101167D01*
X0154103Y0099998D01*
X0154998Y0099103D01*
X0156167Y0098619D01*
X0157433Y0098619D01*
X0158602Y0099103D01*
X0159497Y0099998D01*
X0159981Y0101167D01*
X0159981Y0101870D01*
X0169000Y0110889D01*
X0169000Y0169501D01*
X0169497Y0169998D01*
X0169981Y0171167D01*
X0169981Y0172433D01*
X0169497Y0173602D01*
X0168602Y0174497D01*
X0168353Y0174600D01*
X0185889Y0174600D01*
X0186985Y0173503D01*
X0186700Y0172814D01*
X0186700Y0170786D01*
X0187476Y0168911D01*
X0188911Y0167476D01*
X0190786Y0166700D01*
X0192814Y0166700D01*
X0194689Y0167476D01*
X0196124Y0168911D01*
X0196850Y0170666D01*
X0196850Y0154003D01*
X0196504Y0154683D01*
X0195995Y0155383D01*
X0195383Y0155995D01*
X0194683Y0156504D01*
X0193911Y0156897D01*
X0193088Y0157165D01*
X0192233Y0157300D01*
X0192000Y0157300D01*
X0192000Y0152000D01*
X0191600Y0152000D01*
X0191600Y0157300D01*
X0191367Y0157300D01*
X0190512Y0157165D01*
X0189689Y0156897D01*
X0188917Y0156504D01*
X0188217Y0155995D01*
X0187605Y0155383D01*
X0187096Y0154683D01*
X0186703Y0153911D01*
X0186435Y0153088D01*
X0186300Y0152233D01*
X0186300Y0152000D01*
X0191600Y0152000D01*
X0191600Y0151600D01*
X0192000Y0151600D01*
X0192000Y0146300D01*
X0192233Y0146300D01*
X0193088Y0146435D01*
X0193911Y0146703D01*
X0194683Y0147096D01*
X0195383Y0147605D01*
X0195995Y0148217D01*
X0196504Y0148917D01*
X0196850Y0149597D01*
X0196850Y0141264D01*
X0195314Y0141900D01*
X0193286Y0141900D01*
X0191411Y0141124D01*
X0189976Y0139689D01*
X0189200Y0137814D01*
X0189200Y0135786D01*
X0189976Y0133911D01*
X0191411Y0132476D01*
X0193044Y0131800D01*
X0191411Y0131124D01*
X0189976Y0129689D01*
X0189200Y0127814D01*
X0189200Y0125786D01*
X0189976Y0123911D01*
X0191411Y0122476D01*
X0193044Y0121800D01*
X0191411Y0121124D01*
X0189976Y0119689D01*
X0189200Y0117814D01*
X0189200Y0115786D01*
X0189976Y0113911D01*
X0191411Y0112476D01*
X0193044Y0111800D01*
X0191411Y0111124D01*
X0189976Y0109689D01*
X0189200Y0107814D01*
X0189200Y0105786D01*
X0189976Y0103911D01*
X0191411Y0102476D01*
X0193044Y0101800D01*
X0191411Y0101124D01*
X0189976Y0099689D01*
X0189200Y0097814D01*
X0189200Y0095786D01*
X0189976Y0093911D01*
X0191411Y0092476D01*
X0193044Y0091800D01*
X0191411Y0091124D01*
X0189976Y0089689D01*
X0189200Y0087814D01*
X0189200Y0085786D01*
X0189976Y0083911D01*
X0191411Y0082476D01*
X0193044Y0081800D01*
X0191411Y0081124D01*
X0189976Y0079689D01*
X0189200Y0077814D01*
X0189200Y0075786D01*
X0189976Y0073911D01*
X0191411Y0072476D01*
X0192537Y0072010D01*
X0192189Y0071897D01*
X0191417Y0071504D01*
X0190717Y0070995D01*
X0190105Y0070383D01*
X0189596Y0069683D01*
X0189203Y0068911D01*
X0188935Y0068088D01*
X0188800Y0067233D01*
X0188800Y0067000D01*
X0194100Y0067000D01*
X0194100Y0066600D01*
X0194500Y0066600D01*
X0194500Y0061300D01*
X0194733Y0061300D01*
X0195588Y0061435D01*
X0196411Y0061703D01*
X0196850Y0061927D01*
X0196850Y0014454D01*
X0195138Y0016166D01*
X0192161Y0017399D01*
X0188939Y0017399D01*
X0185962Y0016166D01*
X0183684Y0013888D01*
X0182451Y0010911D01*
X0182451Y0007689D01*
X0183684Y0004712D01*
X0184796Y0003600D01*
X0174257Y0003600D01*
X0175800Y0005143D01*
X0175800Y0008457D01*
X0173457Y0010800D01*
X0170143Y0010800D01*
X0167800Y0008457D01*
X0167800Y0005143D01*
X0169343Y0003600D01*
X0115032Y0003600D01*
X0115383Y0003855D01*
X0115995Y0004467D01*
X0116504Y0005167D01*
X0116897Y0005939D01*
X0117165Y0006762D01*
X0117300Y0007617D01*
X0117300Y0007850D01*
X0112000Y0007850D01*
X0112000Y0008250D01*
X0111600Y0008250D01*
X0111600Y0013550D01*
X0111367Y0013550D01*
X0110512Y0013415D01*
X0109689Y0013147D01*
X0108917Y0012754D01*
X0108217Y0012245D01*
X0107605Y0011633D01*
X0107096Y0010933D01*
X0106703Y0010161D01*
X0106435Y0009338D01*
X0106300Y0008483D01*
X0106300Y0008250D01*
X0111600Y0008250D01*
X0111600Y0007850D01*
X0106300Y0007850D01*
X0106300Y0007617D01*
X0106435Y0006762D01*
X0106703Y0005939D01*
X0107096Y0005167D01*
X0107605Y0004467D01*
X0108217Y0003855D01*
X0108568Y0003600D01*
X0094384Y0003600D01*
X0094689Y0003726D01*
X0096124Y0005161D01*
X0096900Y0007036D01*
X0096900Y0009064D01*
X0096124Y0010939D01*
X0094689Y0012374D01*
X0092814Y0013150D01*
X0090786Y0013150D01*
X0088911Y0012374D01*
X0087476Y0010939D01*
X0086700Y0009064D01*
X0086700Y0007036D01*
X0087476Y0005161D01*
X0088911Y0003726D01*
X0089216Y0003600D01*
X0015054Y0003600D01*
X0016166Y0004712D01*
X0017399Y0007689D01*
X0017399Y0010911D01*
X0016166Y0013888D01*
X0013888Y0016166D01*
X0010911Y0017399D01*
X0007689Y0017399D01*
X0004712Y0016166D01*
X0003600Y0015054D01*
X0003600Y0023777D01*
X0004977Y0022400D01*
X0006800Y0022400D01*
X0008623Y0022400D01*
X0011200Y0024977D01*
X0011200Y0026800D01*
X0011200Y0028623D01*
X0008623Y0031200D01*
X0006800Y0031200D01*
X0006800Y0026800D01*
X0006800Y0026800D01*
X0011200Y0026800D01*
X0006800Y0026800D01*
X0006800Y0026800D01*
X0006800Y0031200D01*
X0004977Y0031200D01*
X0003600Y0029823D01*
X0003600Y0062327D01*
X0003917Y0062096D01*
X0004689Y0061703D01*
X0005512Y0061435D01*
X0006367Y0061300D01*
X0006600Y0061300D01*
X0006600Y0066600D01*
X0007000Y0066600D01*
X0007000Y0067000D01*
X0012300Y0067000D01*
X0012300Y0067233D01*
X0012165Y0068088D01*
X0011897Y0068911D01*
X0011504Y0069683D01*
X0010995Y0070383D01*
X0010383Y0070995D01*
X0009683Y0071504D01*
X0008911Y0071897D01*
X0008563Y0072010D01*
X0009689Y0072476D01*
X0011124Y0073911D01*
X0011900Y0075786D01*
X0011900Y0077814D01*
X0011124Y0079689D01*
X0009689Y0081124D01*
X0008056Y0081800D01*
X0009689Y0082476D01*
X0011124Y0083911D01*
X0011900Y0085786D01*
X0011900Y0087814D01*
X0011124Y0089689D01*
X0009689Y0091124D01*
X0008056Y0091800D01*
X0009689Y0092476D01*
X0011124Y0093911D01*
X0011900Y0095786D01*
X0011900Y0097814D01*
X0011124Y0099689D01*
X0009689Y0101124D01*
X0008056Y0101800D01*
X0009689Y0102476D01*
X0011124Y0103911D01*
X0011900Y0105786D01*
X0011900Y0107814D01*
X0011124Y0109689D01*
X0009689Y0111124D01*
X0008056Y0111800D01*
X0009689Y0112476D01*
X0011124Y0113911D01*
X0011900Y0115786D01*
X0011900Y0117814D01*
X0011124Y0119689D01*
X0009689Y0121124D01*
X0008056Y0121800D01*
X0009689Y0122476D01*
X0011124Y0123911D01*
X0011900Y0125786D01*
X0011900Y0127814D01*
X0011124Y0129689D01*
X0009689Y0131124D01*
X0008056Y0131800D01*
X0009689Y0132476D01*
X0011124Y0133911D01*
X0011900Y0135786D01*
X0011900Y0137814D01*
X0011124Y0139689D01*
X0009689Y0141124D01*
X0007814Y0141900D01*
X0005786Y0141900D01*
X0003911Y0141124D01*
X0003658Y0140870D02*
X0003600Y0140870D01*
X0009942Y0140870D02*
X0014317Y0140870D01*
X0011296Y0139272D02*
X0029600Y0139272D01*
X0029600Y0140870D02*
X0019283Y0140870D01*
X0021753Y0142469D02*
X0029600Y0142469D01*
X0029600Y0144068D02*
X0022995Y0144068D01*
X0023657Y0145666D02*
X0029600Y0145666D01*
X0029600Y0147265D02*
X0023810Y0147265D01*
X0023794Y0148863D02*
X0029600Y0148863D01*
X0029600Y0150462D02*
X0023132Y0150462D01*
X0022084Y0152060D02*
X0029600Y0152060D01*
X0029600Y0153659D02*
X0020081Y0153659D01*
X0031800Y0158296D02*
X0032154Y0158650D01*
X0031800Y0158296D02*
X0031800Y0061800D01*
X0039300Y0054300D01*
X0039300Y0008050D01*
X0040550Y0006800D01*
X0051800Y0006800D01*
X0056800Y0011800D01*
X0066800Y0011800D01*
X0076800Y0021800D01*
X0086800Y0021800D01*
X0092640Y0019384D02*
X0110960Y0019384D01*
X0110922Y0024179D02*
X0097532Y0024179D01*
X0095934Y0025778D02*
X0113350Y0025778D01*
X0113404Y0027800D02*
X0111934Y0028409D01*
X0110809Y0029534D01*
X0110200Y0031004D01*
X0110200Y0032596D01*
X0110809Y0034066D01*
X0111934Y0035191D01*
X0113404Y0035800D01*
X0120196Y0035800D01*
X0121666Y0035191D01*
X0122791Y0034066D01*
X0123400Y0032596D01*
X0123400Y0031004D01*
X0122791Y0029534D01*
X0121666Y0028409D01*
X0120196Y0027800D01*
X0113404Y0027800D01*
X0111368Y0028975D02*
X0092786Y0028975D01*
X0093628Y0030573D02*
X0110379Y0030573D01*
X0110200Y0032172D02*
X0093796Y0032172D01*
X0093334Y0033770D02*
X0110687Y0033770D01*
X0112363Y0035369D02*
X0091974Y0035369D01*
X0090196Y0037800D02*
X0091666Y0038409D01*
X0092791Y0039534D01*
X0093400Y0041004D01*
X0093400Y0042596D01*
X0092791Y0044066D01*
X0091666Y0045191D01*
X0090196Y0045800D01*
X0083404Y0045800D01*
X0081934Y0045191D01*
X0080809Y0044066D01*
X0080200Y0042596D01*
X0080200Y0041004D01*
X0080809Y0039534D01*
X0081934Y0038409D01*
X0083404Y0037800D01*
X0090196Y0037800D01*
X0091823Y0038566D02*
X0111777Y0038566D01*
X0111934Y0038409D02*
X0113404Y0037800D01*
X0120196Y0037800D01*
X0121666Y0038409D01*
X0122791Y0039534D01*
X0123400Y0041004D01*
X0123400Y0042596D01*
X0122791Y0044066D01*
X0121666Y0045191D01*
X0120196Y0045800D01*
X0113404Y0045800D01*
X0111934Y0045191D01*
X0110809Y0044066D01*
X0110200Y0042596D01*
X0110200Y0041004D01*
X0110809Y0039534D01*
X0111934Y0038409D01*
X0110548Y0040164D02*
X0093052Y0040164D01*
X0093400Y0041763D02*
X0110200Y0041763D01*
X0110517Y0043361D02*
X0093083Y0043361D01*
X0091897Y0044960D02*
X0111703Y0044960D01*
X0112543Y0048157D02*
X0091057Y0048157D01*
X0091666Y0048409D02*
X0090196Y0047800D01*
X0083404Y0047800D01*
X0081934Y0048409D01*
X0081727Y0048616D01*
X0079000Y0045889D01*
X0079000Y0039981D01*
X0079161Y0039981D01*
X0079981Y0039161D01*
X0079981Y0034439D01*
X0079161Y0033619D01*
X0074439Y0033619D01*
X0073619Y0034439D01*
X0073619Y0039161D01*
X0074439Y0039981D01*
X0074600Y0039981D01*
X0074600Y0047711D01*
X0075889Y0049000D01*
X0080706Y0053817D01*
X0080809Y0054066D01*
X0081934Y0055191D01*
X0083404Y0055800D01*
X0090196Y0055800D01*
X0091666Y0055191D01*
X0092791Y0054066D01*
X0093400Y0052596D01*
X0093400Y0051004D01*
X0092791Y0049534D01*
X0091666Y0048409D01*
X0092883Y0049755D02*
X0110717Y0049755D01*
X0110809Y0049534D02*
X0110200Y0051004D01*
X0110200Y0052596D01*
X0110809Y0054066D01*
X0111934Y0055191D01*
X0113404Y0055800D01*
X0120196Y0055800D01*
X0121666Y0055191D01*
X0122791Y0054066D01*
X0123400Y0052596D01*
X0123400Y0051004D01*
X0122791Y0049534D01*
X0121666Y0048409D01*
X0120196Y0047800D01*
X0113404Y0047800D01*
X0111934Y0048409D01*
X0110809Y0049534D01*
X0110200Y0051354D02*
X0093400Y0051354D01*
X0093252Y0052952D02*
X0110348Y0052952D01*
X0111294Y0054551D02*
X0092306Y0054551D01*
X0090196Y0057800D02*
X0091666Y0058409D01*
X0092791Y0059534D01*
X0093400Y0061004D01*
X0093400Y0062596D01*
X0092791Y0064066D01*
X0091666Y0065191D01*
X0090196Y0065800D01*
X0083404Y0065800D01*
X0081934Y0065191D01*
X0080809Y0064066D01*
X0080200Y0062596D01*
X0080200Y0061004D01*
X0080809Y0059534D01*
X0081934Y0058409D01*
X0083404Y0057800D01*
X0090196Y0057800D01*
X0092603Y0059346D02*
X0110544Y0059346D01*
X0110437Y0059494D02*
X0110844Y0058934D01*
X0111334Y0058444D01*
X0111894Y0058037D01*
X0112511Y0057722D01*
X0113170Y0057508D01*
X0113854Y0057400D01*
X0116800Y0057400D01*
X0119746Y0057400D01*
X0120430Y0057508D01*
X0121089Y0057722D01*
X0121706Y0058037D01*
X0122266Y0058444D01*
X0122756Y0058934D01*
X0123163Y0059494D01*
X0123478Y0060111D01*
X0123692Y0060770D01*
X0123800Y0061454D01*
X0123800Y0061800D01*
X0123800Y0062146D01*
X0123692Y0062830D01*
X0123478Y0063489D01*
X0123163Y0064106D01*
X0122756Y0064666D01*
X0122266Y0065156D01*
X0121706Y0065563D01*
X0121089Y0065878D01*
X0120430Y0066092D01*
X0119746Y0066200D01*
X0116800Y0066200D01*
X0116800Y0061800D01*
X0116800Y0061800D01*
X0123800Y0061800D01*
X0116800Y0061800D01*
X0116800Y0061800D01*
X0116800Y0057400D01*
X0116800Y0061800D01*
X0116800Y0061800D01*
X0116800Y0061800D01*
X0109800Y0061800D01*
X0109800Y0062146D01*
X0109908Y0062830D01*
X0110122Y0063489D01*
X0110437Y0064106D01*
X0110844Y0064666D01*
X0111334Y0065156D01*
X0111894Y0065563D01*
X0112511Y0065878D01*
X0113170Y0066092D01*
X0113854Y0066200D01*
X0116800Y0066200D01*
X0116800Y0061800D01*
X0109800Y0061800D01*
X0109800Y0061454D01*
X0109908Y0060770D01*
X0110122Y0060111D01*
X0110437Y0059494D01*
X0109881Y0060945D02*
X0093375Y0060945D01*
X0093400Y0062543D02*
X0109863Y0062543D01*
X0110463Y0064142D02*
X0092715Y0064142D01*
X0090339Y0065740D02*
X0112242Y0065740D01*
X0113404Y0067800D02*
X0120196Y0067800D01*
X0121666Y0068409D01*
X0122791Y0069534D01*
X0123100Y0070280D01*
X0123409Y0069534D01*
X0124534Y0068409D01*
X0126004Y0067800D01*
X0127596Y0067800D01*
X0129066Y0068409D01*
X0130191Y0069534D01*
X0130800Y0071004D01*
X0130800Y0072596D01*
X0130191Y0074066D01*
X0129066Y0075191D01*
X0127596Y0075800D01*
X0126004Y0075800D01*
X0124534Y0075191D01*
X0123409Y0074066D01*
X0123100Y0073320D01*
X0122791Y0074066D01*
X0121666Y0075191D01*
X0120196Y0075800D01*
X0113404Y0075800D01*
X0111934Y0075191D01*
X0110809Y0074066D01*
X0110200Y0072596D01*
X0110200Y0071004D01*
X0110809Y0069534D01*
X0111934Y0068409D01*
X0113404Y0067800D01*
X0111406Y0068937D02*
X0092194Y0068937D01*
X0091666Y0068409D02*
X0092791Y0069534D01*
X0093400Y0071004D01*
X0093400Y0072596D01*
X0092791Y0074066D01*
X0091666Y0075191D01*
X0090196Y0075800D01*
X0083404Y0075800D01*
X0081934Y0075191D01*
X0080809Y0074066D01*
X0080200Y0072596D01*
X0080200Y0071004D01*
X0080809Y0069534D01*
X0081934Y0068409D01*
X0083404Y0067800D01*
X0090196Y0067800D01*
X0091666Y0068409D01*
X0093206Y0070536D02*
X0110394Y0070536D01*
X0110200Y0072134D02*
X0093400Y0072134D01*
X0092929Y0073733D02*
X0110671Y0073733D01*
X0112273Y0075332D02*
X0091327Y0075332D01*
X0091785Y0078529D02*
X0111815Y0078529D01*
X0111934Y0078409D02*
X0110809Y0079534D01*
X0110200Y0081004D01*
X0110200Y0082596D01*
X0110809Y0084066D01*
X0111934Y0085191D01*
X0113404Y0085800D01*
X0120196Y0085800D01*
X0121666Y0085191D01*
X0122791Y0084066D01*
X0123400Y0082596D01*
X0123400Y0081004D01*
X0122791Y0079534D01*
X0121666Y0078409D01*
X0120196Y0077800D01*
X0113404Y0077800D01*
X0111934Y0078409D01*
X0110563Y0080127D02*
X0093037Y0080127D01*
X0093400Y0081726D02*
X0110200Y0081726D01*
X0110502Y0083324D02*
X0093098Y0083324D01*
X0093034Y0084923D02*
X0111666Y0084923D01*
X0112633Y0088120D02*
X0096231Y0088120D01*
X0097829Y0089718D02*
X0110733Y0089718D01*
X0110809Y0089534D02*
X0111934Y0088409D01*
X0113404Y0087800D01*
X0120196Y0087800D01*
X0121666Y0088409D01*
X0122791Y0089534D01*
X0123400Y0091004D01*
X0123400Y0092596D01*
X0122791Y0094066D01*
X0121666Y0095191D01*
X0120196Y0095800D01*
X0113404Y0095800D01*
X0111934Y0095191D01*
X0110809Y0094066D01*
X0110200Y0092596D01*
X0110200Y0091004D01*
X0110809Y0089534D01*
X0110200Y0091317D02*
X0099428Y0091317D01*
X0101026Y0092915D02*
X0110332Y0092915D01*
X0111257Y0094514D02*
X0102625Y0094514D01*
X0104223Y0096112D02*
X0174600Y0096112D01*
X0174600Y0094514D02*
X0122343Y0094514D01*
X0123268Y0092915D02*
X0174600Y0092915D01*
X0174600Y0091317D02*
X0123400Y0091317D01*
X0122867Y0089718D02*
X0174600Y0089718D01*
X0174600Y0088120D02*
X0120967Y0088120D01*
X0121934Y0084923D02*
X0174600Y0084923D01*
X0174600Y0086521D02*
X0094632Y0086521D01*
X0088410Y0086521D02*
X0080190Y0086521D01*
X0078592Y0088120D02*
X0082633Y0088120D01*
X0080733Y0089718D02*
X0049000Y0089718D01*
X0049000Y0091317D02*
X0080200Y0091317D01*
X0080332Y0092915D02*
X0049000Y0092915D01*
X0049000Y0094514D02*
X0081257Y0094514D01*
X0081034Y0099309D02*
X0062402Y0099309D01*
X0060804Y0100908D02*
X0080240Y0100908D01*
X0080200Y0102506D02*
X0059205Y0102506D01*
X0057607Y0104105D02*
X0080848Y0104105D01*
X0083171Y0105703D02*
X0056008Y0105703D01*
X0051800Y0106800D02*
X0061800Y0096800D01*
X0091800Y0096800D01*
X0096800Y0101800D01*
X0098994Y0104105D02*
X0110848Y0104105D01*
X0113171Y0105703D02*
X0090429Y0105703D01*
X0092752Y0104105D02*
X0094606Y0104105D01*
X0093649Y0102506D02*
X0093400Y0102506D01*
X0095822Y0097711D02*
X0099599Y0097711D01*
X0098808Y0099309D02*
X0101198Y0099309D01*
X0099874Y0100908D02*
X0102796Y0100908D01*
X0104395Y0102506D02*
X0099951Y0102506D01*
X0105822Y0097711D02*
X0174600Y0097711D01*
X0174600Y0099309D02*
X0158808Y0099309D01*
X0159874Y0100908D02*
X0174600Y0100908D01*
X0174600Y0102506D02*
X0160617Y0102506D01*
X0162216Y0104105D02*
X0174600Y0104105D01*
X0174600Y0105703D02*
X0163815Y0105703D01*
X0165413Y0107302D02*
X0174600Y0107302D01*
X0174600Y0108900D02*
X0167012Y0108900D01*
X0168610Y0110499D02*
X0173896Y0110499D01*
X0174103Y0109998D02*
X0174600Y0109501D01*
X0174600Y0079099D01*
X0174103Y0078602D01*
X0173619Y0077433D01*
X0173619Y0076167D01*
X0174103Y0074998D01*
X0174998Y0074103D01*
X0176167Y0073619D01*
X0177433Y0073619D01*
X0178602Y0074103D01*
X0179497Y0074998D01*
X0179981Y0076167D01*
X0179981Y0077433D01*
X0179497Y0078602D01*
X0179000Y0079099D01*
X0179000Y0109501D01*
X0179497Y0109998D01*
X0179981Y0111167D01*
X0179981Y0112433D01*
X0179497Y0113602D01*
X0178602Y0114497D01*
X0177433Y0114981D01*
X0176167Y0114981D01*
X0174998Y0114497D01*
X0174103Y0113602D01*
X0173619Y0112433D01*
X0173619Y0111167D01*
X0174103Y0109998D01*
X0173619Y0112097D02*
X0169000Y0112097D01*
X0169000Y0113696D02*
X0174197Y0113696D01*
X0176800Y0111800D02*
X0176800Y0076800D01*
X0173619Y0076930D02*
X0076900Y0076930D01*
X0076900Y0077814D02*
X0076124Y0079689D01*
X0074689Y0081124D01*
X0072814Y0081900D01*
X0070786Y0081900D01*
X0068911Y0081124D01*
X0067476Y0079689D01*
X0066700Y0077814D01*
X0066700Y0075786D01*
X0067476Y0073911D01*
X0068911Y0072476D01*
X0070037Y0072010D01*
X0069689Y0071897D01*
X0068917Y0071504D01*
X0068217Y0070995D01*
X0067605Y0070383D01*
X0067096Y0069683D01*
X0066703Y0068911D01*
X0066435Y0068088D01*
X0066300Y0067233D01*
X0066300Y0067000D01*
X0071600Y0067000D01*
X0071600Y0066600D01*
X0066300Y0066600D01*
X0066300Y0066367D01*
X0066435Y0065512D01*
X0066703Y0064689D01*
X0067096Y0063917D01*
X0067605Y0063217D01*
X0068217Y0062605D01*
X0068917Y0062096D01*
X0069689Y0061703D01*
X0070037Y0061590D01*
X0068911Y0061124D01*
X0067476Y0059689D01*
X0066700Y0057814D01*
X0066700Y0055786D01*
X0067476Y0053911D01*
X0068911Y0052476D01*
X0070786Y0051700D01*
X0072814Y0051700D01*
X0074689Y0052476D01*
X0076124Y0053911D01*
X0076900Y0055786D01*
X0076900Y0057814D01*
X0076124Y0059689D01*
X0074689Y0061124D01*
X0073563Y0061590D01*
X0073911Y0061703D01*
X0074683Y0062096D01*
X0075383Y0062605D01*
X0075995Y0063217D01*
X0076504Y0063917D01*
X0076897Y0064689D01*
X0077165Y0065512D01*
X0077300Y0066367D01*
X0077300Y0066600D01*
X0072000Y0066600D01*
X0072000Y0067000D01*
X0077300Y0067000D01*
X0077300Y0067233D01*
X0077165Y0068088D01*
X0076897Y0068911D01*
X0076504Y0069683D01*
X0075995Y0070383D01*
X0075383Y0070995D01*
X0074683Y0071504D01*
X0073911Y0071897D01*
X0073563Y0072010D01*
X0074689Y0072476D01*
X0076124Y0073911D01*
X0076900Y0075786D01*
X0076900Y0077814D01*
X0076604Y0078529D02*
X0081815Y0078529D01*
X0080362Y0080127D02*
X0075685Y0080127D01*
X0073236Y0081726D02*
X0078763Y0081726D01*
X0077165Y0083324D02*
X0061435Y0083324D01*
X0059837Y0081726D02*
X0070364Y0081726D01*
X0067915Y0080127D02*
X0059000Y0080127D01*
X0059000Y0078529D02*
X0066996Y0078529D01*
X0066700Y0076930D02*
X0059000Y0076930D01*
X0059000Y0075332D02*
X0066888Y0075332D01*
X0067654Y0073733D02*
X0059000Y0073733D01*
X0059000Y0072134D02*
X0069737Y0072134D01*
X0067758Y0070536D02*
X0059000Y0070536D01*
X0059000Y0068937D02*
X0066716Y0068937D01*
X0066317Y0067339D02*
X0059000Y0067339D01*
X0059000Y0065740D02*
X0066399Y0065740D01*
X0066982Y0064142D02*
X0059000Y0064142D01*
X0059000Y0062543D02*
X0068302Y0062543D01*
X0068732Y0060945D02*
X0059000Y0060945D01*
X0057458Y0059346D02*
X0067335Y0059346D01*
X0066700Y0057748D02*
X0055859Y0057748D01*
X0054261Y0056149D02*
X0066700Y0056149D01*
X0067211Y0054551D02*
X0052662Y0054551D01*
X0051064Y0052952D02*
X0068435Y0052952D01*
X0075165Y0052952D02*
X0079841Y0052952D01*
X0081294Y0054551D02*
X0076389Y0054551D01*
X0076900Y0056149D02*
X0196850Y0056149D01*
X0196850Y0054551D02*
X0122306Y0054551D01*
X0123252Y0052952D02*
X0196850Y0052952D01*
X0196850Y0051354D02*
X0123400Y0051354D01*
X0122883Y0049755D02*
X0169098Y0049755D01*
X0170143Y0050800D02*
X0167800Y0048457D01*
X0167800Y0045143D01*
X0170143Y0042800D01*
X0173457Y0042800D01*
X0175800Y0045143D01*
X0175800Y0048457D01*
X0173457Y0050800D01*
X0170143Y0050800D01*
X0167800Y0048157D02*
X0121057Y0048157D01*
X0121897Y0044960D02*
X0167983Y0044960D01*
X0167800Y0046558D02*
X0079670Y0046558D01*
X0079000Y0044960D02*
X0081703Y0044960D01*
X0080517Y0043361D02*
X0079000Y0043361D01*
X0079000Y0041763D02*
X0080200Y0041763D01*
X0080548Y0040164D02*
X0079000Y0040164D01*
X0079981Y0038566D02*
X0081777Y0038566D01*
X0079981Y0036967D02*
X0196850Y0036967D01*
X0196850Y0035369D02*
X0121237Y0035369D01*
X0122913Y0033770D02*
X0196850Y0033770D01*
X0196850Y0032172D02*
X0123400Y0032172D01*
X0123221Y0030573D02*
X0179916Y0030573D01*
X0180143Y0030800D02*
X0177800Y0028457D01*
X0177800Y0025143D01*
X0180143Y0022800D01*
X0183457Y0022800D01*
X0185800Y0025143D01*
X0185800Y0028457D01*
X0183457Y0030800D01*
X0180143Y0030800D01*
X0178318Y0028975D02*
X0122232Y0028975D01*
X0120250Y0025778D02*
X0177800Y0025778D01*
X0177800Y0027376D02*
X0094335Y0027376D01*
X0091800Y0026800D02*
X0076800Y0026800D01*
X0066800Y0021800D01*
X0063560Y0019384D02*
X0041500Y0019384D01*
X0041500Y0020982D02*
X0062800Y0020982D01*
X0062800Y0022581D02*
X0041500Y0022581D01*
X0041500Y0024179D02*
X0063522Y0024179D01*
X0065121Y0025778D02*
X0041500Y0025778D01*
X0041500Y0027376D02*
X0073033Y0027376D01*
X0071200Y0029977D02*
X0071200Y0031800D01*
X0071200Y0033623D01*
X0068623Y0036200D01*
X0066800Y0036200D01*
X0066800Y0031800D01*
X0066800Y0031800D01*
X0071200Y0031800D01*
X0066800Y0031800D01*
X0066800Y0031800D01*
X0066800Y0031800D01*
X0062400Y0031800D01*
X0062400Y0033623D01*
X0064977Y0036200D01*
X0066800Y0036200D01*
X0066800Y0031800D01*
X0066800Y0027400D01*
X0068623Y0027400D01*
X0071200Y0029977D01*
X0071200Y0030573D02*
X0079972Y0030573D01*
X0079804Y0032172D02*
X0071200Y0032172D01*
X0071052Y0033770D02*
X0074288Y0033770D01*
X0073619Y0035369D02*
X0069454Y0035369D01*
X0066800Y0035369D02*
X0066800Y0035369D01*
X0066800Y0033770D02*
X0066800Y0033770D01*
X0066800Y0032172D02*
X0066800Y0032172D01*
X0066800Y0031800D02*
X0062400Y0031800D01*
X0062400Y0029977D01*
X0064977Y0027400D01*
X0066800Y0027400D01*
X0066800Y0031800D01*
X0066800Y0031800D01*
X0066800Y0030573D02*
X0066800Y0030573D01*
X0066800Y0028975D02*
X0066800Y0028975D01*
X0063403Y0028975D02*
X0041500Y0028975D01*
X0041500Y0030573D02*
X0062400Y0030573D01*
X0062400Y0032172D02*
X0041500Y0032172D01*
X0041500Y0033770D02*
X0062548Y0033770D01*
X0064146Y0035369D02*
X0041500Y0035369D01*
X0041500Y0036967D02*
X0073619Y0036967D01*
X0073619Y0038566D02*
X0041500Y0038566D01*
X0041500Y0040164D02*
X0074600Y0040164D01*
X0074600Y0041763D02*
X0041500Y0041763D01*
X0041500Y0043361D02*
X0074600Y0043361D01*
X0074600Y0044960D02*
X0041500Y0044960D01*
X0041500Y0046558D02*
X0074600Y0046558D01*
X0075046Y0048157D02*
X0048814Y0048157D01*
X0050412Y0049755D02*
X0076644Y0049755D01*
X0078243Y0051354D02*
X0050800Y0051354D01*
X0046800Y0051800D02*
X0056800Y0061800D01*
X0056800Y0081800D01*
X0061800Y0086800D01*
X0076800Y0086800D01*
X0081800Y0081800D01*
X0086800Y0081800D01*
X0106800Y0101800D01*
X0116800Y0101800D01*
X0136800Y0101800D01*
X0151800Y0116800D01*
X0151800Y0136800D01*
X0148615Y0139272D02*
X0135495Y0139272D01*
X0136200Y0139977D02*
X0136200Y0141800D01*
X0136200Y0143623D01*
X0133623Y0146200D01*
X0131800Y0146200D01*
X0131800Y0141800D01*
X0131800Y0141800D01*
X0136200Y0141800D01*
X0131800Y0141800D01*
X0131800Y0141800D01*
X0131800Y0141800D01*
X0127400Y0141800D01*
X0127400Y0143623D01*
X0129977Y0146200D01*
X0131800Y0146200D01*
X0131800Y0141800D01*
X0131800Y0137400D01*
X0133623Y0137400D01*
X0136200Y0139977D01*
X0136200Y0140870D02*
X0158350Y0140870D01*
X0158350Y0139272D02*
X0154985Y0139272D01*
X0155800Y0137673D02*
X0158350Y0137673D01*
X0158350Y0136075D02*
X0155800Y0136075D01*
X0155133Y0134476D02*
X0158350Y0134476D01*
X0158350Y0132878D02*
X0154000Y0132878D01*
X0154000Y0131279D02*
X0158350Y0131279D01*
X0158350Y0129681D02*
X0154000Y0129681D01*
X0154000Y0128082D02*
X0158350Y0128082D01*
X0158350Y0126484D02*
X0154000Y0126484D01*
X0154000Y0124885D02*
X0158350Y0124885D01*
X0158350Y0123287D02*
X0154000Y0123287D01*
X0154000Y0121688D02*
X0158619Y0121688D01*
X0159065Y0120090D02*
X0154000Y0120090D01*
X0154000Y0118491D02*
X0164600Y0118491D01*
X0164600Y0116893D02*
X0154000Y0116893D01*
X0153406Y0115294D02*
X0164600Y0115294D01*
X0164600Y0113696D02*
X0151807Y0113696D01*
X0150209Y0112097D02*
X0163986Y0112097D01*
X0162388Y0110499D02*
X0148610Y0110499D01*
X0147012Y0108900D02*
X0160789Y0108900D01*
X0159190Y0107302D02*
X0145413Y0107302D01*
X0143815Y0105703D02*
X0157592Y0105703D01*
X0154606Y0104105D02*
X0142216Y0104105D01*
X0140617Y0102506D02*
X0153649Y0102506D01*
X0153726Y0100908D02*
X0139019Y0100908D01*
X0135993Y0104105D02*
X0122752Y0104105D01*
X0120429Y0105703D02*
X0137592Y0105703D01*
X0137988Y0108900D02*
X0122157Y0108900D01*
X0123191Y0110499D02*
X0129990Y0110499D01*
X0128391Y0112097D02*
X0123400Y0112097D01*
X0122944Y0113696D02*
X0126793Y0113696D01*
X0129818Y0116893D02*
X0148782Y0116893D01*
X0149600Y0118491D02*
X0128220Y0118491D01*
X0131417Y0115294D02*
X0147183Y0115294D01*
X0149600Y0120090D02*
X0123021Y0120090D01*
X0123400Y0121688D02*
X0149600Y0121688D01*
X0149600Y0123287D02*
X0123114Y0123287D01*
X0121971Y0124885D02*
X0149600Y0124885D01*
X0149600Y0126484D02*
X0069000Y0126484D01*
X0069000Y0128082D02*
X0082723Y0128082D01*
X0083404Y0127800D02*
X0081934Y0128409D01*
X0080809Y0129534D01*
X0080200Y0131004D01*
X0080200Y0132596D01*
X0080809Y0134066D01*
X0081934Y0135191D01*
X0083404Y0135800D01*
X0090196Y0135800D01*
X0091666Y0135191D01*
X0092791Y0134066D01*
X0093400Y0132596D01*
X0093400Y0131004D01*
X0092791Y0129534D01*
X0091666Y0128409D01*
X0090196Y0127800D01*
X0083404Y0127800D01*
X0080748Y0129681D02*
X0069000Y0129681D01*
X0069000Y0131279D02*
X0080200Y0131279D01*
X0080317Y0132878D02*
X0069000Y0132878D01*
X0069000Y0134476D02*
X0081220Y0134476D01*
X0083404Y0137800D02*
X0090196Y0137800D01*
X0091666Y0138409D01*
X0092791Y0139534D01*
X0093400Y0141004D01*
X0093400Y0142596D01*
X0092791Y0144066D01*
X0091666Y0145191D01*
X0090196Y0145800D01*
X0083404Y0145800D01*
X0081934Y0145191D01*
X0080809Y0144066D01*
X0080200Y0142596D01*
X0080200Y0141004D01*
X0080809Y0139534D01*
X0081934Y0138409D01*
X0083404Y0137800D01*
X0081071Y0139272D02*
X0069000Y0139272D01*
X0069000Y0140870D02*
X0080255Y0140870D01*
X0080200Y0142469D02*
X0069000Y0142469D01*
X0069000Y0144068D02*
X0080811Y0144068D01*
X0083081Y0145666D02*
X0069000Y0145666D01*
X0069000Y0147265D02*
X0158350Y0147265D01*
X0158350Y0148863D02*
X0134520Y0148863D01*
X0133457Y0147800D02*
X0135800Y0150143D01*
X0135800Y0153457D01*
X0133457Y0155800D01*
X0130143Y0155800D01*
X0127800Y0153457D01*
X0127800Y0150143D01*
X0130143Y0147800D01*
X0133457Y0147800D01*
X0134156Y0145666D02*
X0158350Y0145666D01*
X0158350Y0144068D02*
X0135755Y0144068D01*
X0136200Y0142469D02*
X0158350Y0142469D01*
X0162750Y0142469D02*
X0164600Y0142469D01*
X0164600Y0140870D02*
X0162750Y0140870D01*
X0162750Y0139272D02*
X0164600Y0139272D01*
X0164600Y0137673D02*
X0162750Y0137673D01*
X0162750Y0136075D02*
X0164600Y0136075D01*
X0164600Y0134476D02*
X0162750Y0134476D01*
X0162750Y0132878D02*
X0164600Y0132878D01*
X0164600Y0131279D02*
X0162750Y0131279D01*
X0162750Y0129681D02*
X0164600Y0129681D01*
X0164600Y0128082D02*
X0162750Y0128082D01*
X0162750Y0126484D02*
X0164600Y0126484D01*
X0164600Y0124885D02*
X0162750Y0124885D01*
X0160550Y0123050D02*
X0161800Y0121800D01*
X0160550Y0123050D02*
X0160550Y0164300D01*
X0158198Y0166447D02*
X0114000Y0166447D01*
X0114000Y0168045D02*
X0124898Y0168045D01*
X0125143Y0167800D02*
X0128457Y0167800D01*
X0130800Y0170143D01*
X0130800Y0173457D01*
X0128457Y0175800D01*
X0125143Y0175800D01*
X0122800Y0173457D01*
X0122800Y0170143D01*
X0125143Y0167800D01*
X0124977Y0166200D02*
X0122400Y0163623D01*
X0122400Y0161800D01*
X0126800Y0161800D01*
X0126800Y0161800D01*
X0126800Y0166200D01*
X0128623Y0166200D01*
X0131200Y0163623D01*
X0131200Y0161800D01*
X0126800Y0161800D01*
X0126800Y0161800D01*
X0126800Y0161800D01*
X0126800Y0166200D01*
X0124977Y0166200D01*
X0123626Y0164848D02*
X0114000Y0164848D01*
X0114000Y0163250D02*
X0122400Y0163250D01*
X0122400Y0161800D02*
X0122400Y0159977D01*
X0124977Y0157400D01*
X0126800Y0157400D01*
X0128623Y0157400D01*
X0131200Y0159977D01*
X0131200Y0161800D01*
X0126800Y0161800D01*
X0126800Y0157400D01*
X0126800Y0161800D01*
X0126800Y0161800D01*
X0122400Y0161800D01*
X0122400Y0161651D02*
X0114000Y0161651D01*
X0114000Y0160053D02*
X0122400Y0160053D01*
X0123923Y0158454D02*
X0114000Y0158454D01*
X0114000Y0156856D02*
X0158350Y0156856D01*
X0158350Y0158454D02*
X0129677Y0158454D01*
X0131200Y0160053D02*
X0158350Y0160053D01*
X0158350Y0161651D02*
X0131200Y0161651D01*
X0131200Y0163250D02*
X0157542Y0163250D01*
X0157369Y0164848D02*
X0129974Y0164848D01*
X0126800Y0164848D02*
X0126800Y0164848D01*
X0126800Y0163250D02*
X0126800Y0163250D01*
X0126800Y0161651D02*
X0126800Y0161651D01*
X0126800Y0160053D02*
X0126800Y0160053D01*
X0126800Y0158454D02*
X0126800Y0158454D01*
X0129600Y0155257D02*
X0121506Y0155257D01*
X0122960Y0153659D02*
X0128002Y0153659D01*
X0127800Y0152060D02*
X0123400Y0152060D01*
X0123175Y0150462D02*
X0127800Y0150462D01*
X0129080Y0148863D02*
X0122120Y0148863D01*
X0121089Y0145878D02*
X0120430Y0146092D01*
X0119746Y0146200D01*
X0116800Y0146200D01*
X0116800Y0141800D01*
X0116800Y0141800D01*
X0123800Y0141800D01*
X0123800Y0142146D01*
X0123692Y0142830D01*
X0123478Y0143489D01*
X0123163Y0144106D01*
X0122756Y0144666D01*
X0122266Y0145156D01*
X0121706Y0145563D01*
X0121089Y0145878D01*
X0121504Y0145666D02*
X0129443Y0145666D01*
X0127845Y0144068D02*
X0123183Y0144068D01*
X0123749Y0142469D02*
X0127400Y0142469D01*
X0127400Y0141800D02*
X0127400Y0139977D01*
X0129977Y0137400D01*
X0131800Y0137400D01*
X0131800Y0141800D01*
X0131800Y0141800D01*
X0127400Y0141800D01*
X0127400Y0140870D02*
X0123708Y0140870D01*
X0123692Y0140770D02*
X0123800Y0141454D01*
X0123800Y0141800D01*
X0116800Y0141800D01*
X0116800Y0141800D01*
X0116800Y0137400D01*
X0119746Y0137400D01*
X0120430Y0137508D01*
X0121089Y0137722D01*
X0121706Y0138037D01*
X0122266Y0138444D01*
X0122756Y0138934D01*
X0123163Y0139494D01*
X0123478Y0140111D01*
X0123692Y0140770D01*
X0123002Y0139272D02*
X0128105Y0139272D01*
X0129704Y0137673D02*
X0120939Y0137673D01*
X0120196Y0135800D02*
X0121666Y0135191D01*
X0122791Y0134066D01*
X0123400Y0132596D01*
X0123400Y0131004D01*
X0122791Y0129534D01*
X0121666Y0128409D01*
X0120196Y0127800D01*
X0113404Y0127800D01*
X0111934Y0128409D01*
X0110809Y0129534D01*
X0110200Y0131004D01*
X0110200Y0132596D01*
X0110809Y0134066D01*
X0111934Y0135191D01*
X0113404Y0135800D01*
X0120196Y0135800D01*
X0122380Y0134476D02*
X0148467Y0134476D01*
X0147800Y0136075D02*
X0069000Y0136075D01*
X0069000Y0137673D02*
X0112661Y0137673D01*
X0112511Y0137722D02*
X0113170Y0137508D01*
X0113854Y0137400D01*
X0116800Y0137400D01*
X0116800Y0141800D01*
X0116800Y0141800D01*
X0116800Y0141800D01*
X0109800Y0141800D01*
X0109800Y0142146D01*
X0109908Y0142830D01*
X0110122Y0143489D01*
X0110437Y0144106D01*
X0110844Y0144666D01*
X0111334Y0145156D01*
X0111894Y0145563D01*
X0112511Y0145878D01*
X0113170Y0146092D01*
X0113854Y0146200D01*
X0116800Y0146200D01*
X0116800Y0141800D01*
X0109800Y0141800D01*
X0109800Y0141454D01*
X0109908Y0140770D01*
X0110122Y0140111D01*
X0110437Y0139494D01*
X0110844Y0138934D01*
X0111334Y0138444D01*
X0111894Y0138037D01*
X0112511Y0137722D01*
X0110598Y0139272D02*
X0092529Y0139272D01*
X0093345Y0140870D02*
X0109892Y0140870D01*
X0109851Y0142469D02*
X0093400Y0142469D01*
X0092789Y0144068D02*
X0110417Y0144068D01*
X0112096Y0145666D02*
X0090519Y0145666D01*
X0092120Y0148863D02*
X0111480Y0148863D01*
X0110425Y0150462D02*
X0108573Y0150462D01*
X0106800Y0151800D02*
X0086800Y0151800D01*
X0082094Y0155257D02*
X0069000Y0155257D01*
X0069000Y0153659D02*
X0080640Y0153659D01*
X0080200Y0152060D02*
X0069000Y0152060D01*
X0069000Y0150462D02*
X0080425Y0150462D01*
X0081480Y0148863D02*
X0069000Y0148863D01*
X0069000Y0156856D02*
X0108744Y0156856D01*
X0109600Y0158454D02*
X0079111Y0158454D01*
X0078457Y0157800D02*
X0080800Y0160143D01*
X0080800Y0163457D01*
X0078457Y0165800D01*
X0075143Y0165800D01*
X0072800Y0163457D01*
X0072800Y0160143D01*
X0075143Y0157800D01*
X0078457Y0157800D01*
X0080709Y0160053D02*
X0109600Y0160053D01*
X0109600Y0161651D02*
X0080800Y0161651D01*
X0080800Y0163250D02*
X0094919Y0163250D01*
X0094534Y0163409D02*
X0096004Y0162800D01*
X0097596Y0162800D01*
X0099066Y0163409D01*
X0100191Y0164534D01*
X0100800Y0166004D01*
X0100800Y0167596D01*
X0100191Y0169066D01*
X0099066Y0170191D01*
X0097596Y0170800D01*
X0096004Y0170800D01*
X0094534Y0170191D01*
X0093409Y0169066D01*
X0092800Y0167596D01*
X0092800Y0166004D01*
X0093409Y0164534D01*
X0094534Y0163409D01*
X0093279Y0164848D02*
X0079409Y0164848D01*
X0078623Y0167400D02*
X0076800Y0167400D01*
X0076800Y0171800D01*
X0076800Y0171800D01*
X0076800Y0176200D01*
X0078623Y0176200D01*
X0081200Y0173623D01*
X0081200Y0171800D01*
X0076800Y0171800D01*
X0076800Y0171800D01*
X0076800Y0171800D01*
X0072400Y0171800D01*
X0072400Y0173623D01*
X0074977Y0176200D01*
X0076800Y0176200D01*
X0076800Y0171800D01*
X0081200Y0171800D01*
X0081200Y0169977D01*
X0078623Y0167400D01*
X0079268Y0168045D02*
X0092986Y0168045D01*
X0092800Y0166447D02*
X0069000Y0166447D01*
X0069000Y0168045D02*
X0074332Y0168045D01*
X0074977Y0167400D02*
X0072400Y0169977D01*
X0072400Y0171800D01*
X0076800Y0171800D01*
X0076800Y0171800D01*
X0076800Y0167400D01*
X0074977Y0167400D01*
X0076800Y0168045D02*
X0076800Y0168045D01*
X0076800Y0169644D02*
X0076800Y0169644D01*
X0076800Y0171242D02*
X0076800Y0171242D01*
X0076800Y0172841D02*
X0076800Y0172841D01*
X0076800Y0174439D02*
X0076800Y0174439D01*
X0076800Y0176038D02*
X0076800Y0176038D01*
X0078785Y0176038D02*
X0112926Y0176038D01*
X0111328Y0174439D02*
X0080383Y0174439D01*
X0081200Y0172841D02*
X0109729Y0172841D01*
X0109600Y0171242D02*
X0081200Y0171242D01*
X0080866Y0169644D02*
X0093987Y0169644D01*
X0099613Y0169644D02*
X0103421Y0169644D01*
X0102400Y0168623D02*
X0102400Y0166800D01*
X0106800Y0166800D01*
X0106800Y0166800D01*
X0106800Y0166800D01*
X0106800Y0171200D01*
X0104977Y0171200D01*
X0102400Y0168623D01*
X0102400Y0168045D02*
X0100614Y0168045D01*
X0100800Y0166447D02*
X0102400Y0166447D01*
X0102400Y0166800D02*
X0102400Y0164977D01*
X0104977Y0162400D01*
X0106800Y0162400D01*
X0106800Y0166800D01*
X0102400Y0166800D01*
X0102529Y0164848D02*
X0100321Y0164848D01*
X0098681Y0163250D02*
X0104128Y0163250D01*
X0106800Y0163250D02*
X0106800Y0163250D01*
X0106800Y0164848D02*
X0106800Y0164848D01*
X0106800Y0166447D02*
X0106800Y0166447D01*
X0106800Y0168045D02*
X0106800Y0168045D01*
X0106800Y0169644D02*
X0106800Y0169644D01*
X0111800Y0171800D02*
X0111800Y0156800D01*
X0106800Y0151800D01*
X0110171Y0152060D02*
X0110200Y0152060D01*
X0107146Y0155257D02*
X0091506Y0155257D01*
X0074489Y0158454D02*
X0069000Y0158454D01*
X0069000Y0160053D02*
X0072891Y0160053D01*
X0072800Y0161651D02*
X0069000Y0161651D01*
X0069000Y0163250D02*
X0072800Y0163250D01*
X0074191Y0164848D02*
X0069000Y0164848D01*
X0069000Y0169644D02*
X0072734Y0169644D01*
X0072400Y0171242D02*
X0069000Y0171242D01*
X0069000Y0172841D02*
X0072400Y0172841D01*
X0073217Y0174439D02*
X0069000Y0174439D01*
X0069000Y0176038D02*
X0074815Y0176038D01*
X0069000Y0177636D02*
X0114525Y0177636D01*
X0116123Y0179235D02*
X0069000Y0179235D01*
X0068878Y0180833D02*
X0117722Y0180833D01*
X0119321Y0182432D02*
X0098654Y0182432D01*
X0098623Y0182400D02*
X0101200Y0184977D01*
X0101200Y0186800D01*
X0101200Y0188623D01*
X0098623Y0191200D01*
X0096800Y0191200D01*
X0096800Y0186800D01*
X0101200Y0186800D01*
X0096800Y0186800D01*
X0096800Y0186800D01*
X0096800Y0186800D01*
X0096800Y0182400D01*
X0098623Y0182400D01*
X0096800Y0182400D02*
X0096800Y0186800D01*
X0096800Y0186800D01*
X0096800Y0186800D01*
X0092400Y0186800D01*
X0092400Y0188623D01*
X0094977Y0191200D01*
X0096800Y0191200D01*
X0096800Y0186800D01*
X0092400Y0186800D01*
X0092400Y0184977D01*
X0094977Y0182400D01*
X0096800Y0182400D01*
X0096800Y0182432D02*
X0096800Y0182432D01*
X0096800Y0184030D02*
X0096800Y0184030D01*
X0096800Y0185629D02*
X0096800Y0185629D01*
X0096800Y0187227D02*
X0096800Y0187227D01*
X0096800Y0188826D02*
X0096800Y0188826D01*
X0096800Y0190424D02*
X0096800Y0190424D01*
X0098420Y0192023D02*
X0017399Y0192023D01*
X0017399Y0190424D02*
X0034954Y0190424D01*
X0035302Y0190568D02*
X0033917Y0189995D01*
X0032857Y0188935D01*
X0032283Y0187550D01*
X0032283Y0186050D01*
X0032857Y0184665D01*
X0033917Y0183605D01*
X0035302Y0183031D01*
X0036802Y0183031D01*
X0038187Y0183605D01*
X0039247Y0184665D01*
X0039820Y0186050D01*
X0039820Y0187550D01*
X0039247Y0188935D01*
X0038187Y0189995D01*
X0036802Y0190568D01*
X0035302Y0190568D01*
X0037150Y0190424D02*
X0041803Y0190424D01*
X0040205Y0188826D02*
X0039292Y0188826D01*
X0039820Y0187227D02*
X0039825Y0187227D01*
X0039825Y0185629D02*
X0039646Y0185629D01*
X0038612Y0184030D02*
X0040948Y0184030D01*
X0033492Y0184030D02*
X0014234Y0184030D01*
X0013598Y0182432D02*
X0003600Y0182432D01*
X0003600Y0184030D02*
X0004366Y0184030D01*
X0003600Y0180833D02*
X0011549Y0180833D01*
X0010482Y0179235D02*
X0003600Y0179235D01*
X0003600Y0177636D02*
X0009819Y0177636D01*
X0009790Y0176038D02*
X0003600Y0176038D01*
X0003600Y0174439D02*
X0009929Y0174439D01*
X0010591Y0172841D02*
X0003600Y0172841D01*
X0003600Y0171242D02*
X0011814Y0171242D01*
X0014237Y0169644D02*
X0003600Y0169644D01*
X0015833Y0185629D02*
X0032458Y0185629D01*
X0032283Y0187227D02*
X0016690Y0187227D01*
X0017352Y0188826D02*
X0032812Y0188826D01*
X0023118Y0179235D02*
X0064254Y0179235D01*
X0062655Y0180833D02*
X0022051Y0180833D01*
X0020002Y0182432D02*
X0061057Y0182432D01*
X0063775Y0187227D02*
X0063780Y0187227D01*
X0063395Y0188826D02*
X0064308Y0188826D01*
X0066450Y0190424D02*
X0061797Y0190424D01*
X0068646Y0190424D02*
X0094202Y0190424D01*
X0092603Y0188826D02*
X0070788Y0188826D01*
X0071317Y0187227D02*
X0092400Y0187227D01*
X0092400Y0185629D02*
X0071142Y0185629D01*
X0070108Y0184030D02*
X0093347Y0184030D01*
X0094946Y0182432D02*
X0067279Y0182432D01*
X0051800Y0161800D02*
X0051800Y0106800D01*
X0049600Y0107302D02*
X0049000Y0107302D01*
X0049000Y0108900D02*
X0049600Y0108900D01*
X0049600Y0110499D02*
X0049000Y0110499D01*
X0049000Y0112097D02*
X0049600Y0112097D01*
X0049600Y0113696D02*
X0049000Y0113696D01*
X0049000Y0115294D02*
X0049600Y0115294D01*
X0049600Y0116893D02*
X0049000Y0116893D01*
X0049000Y0118491D02*
X0049600Y0118491D01*
X0049600Y0120090D02*
X0049000Y0120090D01*
X0049000Y0121688D02*
X0049600Y0121688D01*
X0049600Y0123287D02*
X0049000Y0123287D01*
X0049000Y0124885D02*
X0049600Y0124885D01*
X0049600Y0126484D02*
X0049000Y0126484D01*
X0049000Y0128082D02*
X0049600Y0128082D01*
X0049600Y0129681D02*
X0049000Y0129681D01*
X0049000Y0131279D02*
X0049600Y0131279D01*
X0049600Y0132878D02*
X0049000Y0132878D01*
X0049000Y0134476D02*
X0049600Y0134476D01*
X0049600Y0136075D02*
X0049000Y0136075D01*
X0049000Y0137673D02*
X0049600Y0137673D01*
X0049600Y0139272D02*
X0049000Y0139272D01*
X0049000Y0140870D02*
X0049600Y0140870D01*
X0049600Y0142469D02*
X0049000Y0142469D01*
X0049000Y0144068D02*
X0049600Y0144068D01*
X0049600Y0145666D02*
X0049000Y0145666D01*
X0049000Y0147265D02*
X0049600Y0147265D01*
X0049600Y0148863D02*
X0049000Y0148863D01*
X0049000Y0150462D02*
X0049600Y0150462D01*
X0049600Y0152060D02*
X0049000Y0152060D01*
X0049000Y0153659D02*
X0049600Y0153659D01*
X0049600Y0155257D02*
X0049000Y0155257D01*
X0049000Y0156856D02*
X0049600Y0156856D01*
X0049600Y0158454D02*
X0049000Y0158454D01*
X0049000Y0160053D02*
X0049081Y0160053D01*
X0036879Y0155501D02*
X0036879Y0155501D01*
X0036879Y0151126D01*
X0036879Y0155501D01*
X0036879Y0155501D01*
X0036879Y0155257D02*
X0036879Y0155257D01*
X0036879Y0153659D02*
X0036879Y0153659D01*
X0036879Y0152060D02*
X0036879Y0152060D01*
X0034172Y0152060D02*
X0034000Y0152060D01*
X0032154Y0164950D02*
X0032154Y0171446D01*
X0016794Y0193621D02*
X0097800Y0193621D01*
X0097800Y0195220D02*
X0016084Y0195220D01*
X0014486Y0196818D02*
X0098662Y0196818D01*
X0104938Y0196818D02*
X0125589Y0196818D01*
X0123007Y0195220D02*
X0105800Y0195220D01*
X0105800Y0193621D02*
X0122034Y0193621D01*
X0121700Y0192023D02*
X0105180Y0192023D01*
X0105143Y0190800D02*
X0102800Y0188457D01*
X0102800Y0185143D01*
X0105143Y0182800D01*
X0108457Y0182800D01*
X0110800Y0185143D01*
X0110800Y0188457D01*
X0108457Y0190800D01*
X0105143Y0190800D01*
X0104767Y0190424D02*
X0103581Y0190424D01*
X0103169Y0188826D02*
X0100997Y0188826D01*
X0101200Y0187227D02*
X0102800Y0187227D01*
X0102800Y0185629D02*
X0101200Y0185629D01*
X0100253Y0184030D02*
X0103913Y0184030D01*
X0109687Y0184030D02*
X0120919Y0184030D01*
X0122518Y0185629D02*
X0110800Y0185629D01*
X0110800Y0187227D02*
X0124116Y0187227D01*
X0122562Y0188826D02*
X0110431Y0188826D01*
X0108832Y0190424D02*
X0121850Y0190424D01*
X0126800Y0191800D02*
X0126800Y0186800D01*
X0136800Y0176800D01*
X0138938Y0174439D02*
X0148504Y0174439D01*
X0147800Y0176038D02*
X0139927Y0176038D01*
X0139897Y0177636D02*
X0147800Y0177636D01*
X0148578Y0179235D02*
X0138864Y0179235D01*
X0135878Y0180833D02*
X0196850Y0180833D01*
X0196850Y0179235D02*
X0155022Y0179235D01*
X0151800Y0176800D02*
X0186800Y0176800D01*
X0191800Y0171800D01*
X0195258Y0168045D02*
X0196850Y0168045D01*
X0196850Y0166447D02*
X0169000Y0166447D01*
X0169000Y0168045D02*
X0188342Y0168045D01*
X0187173Y0169644D02*
X0169142Y0169644D01*
X0169981Y0171242D02*
X0186700Y0171242D01*
X0186711Y0172841D02*
X0169812Y0172841D01*
X0168660Y0174439D02*
X0186049Y0174439D01*
X0189075Y0177636D02*
X0196850Y0177636D01*
X0196850Y0176038D02*
X0194775Y0176038D01*
X0196227Y0174439D02*
X0196850Y0174439D01*
X0196850Y0169644D02*
X0196427Y0169644D01*
X0196850Y0164848D02*
X0169000Y0164848D01*
X0169000Y0163250D02*
X0196850Y0163250D01*
X0196850Y0161651D02*
X0169000Y0161651D01*
X0169000Y0160053D02*
X0196850Y0160053D01*
X0196850Y0158454D02*
X0169000Y0158454D01*
X0169000Y0156856D02*
X0189607Y0156856D01*
X0191600Y0156856D02*
X0192000Y0156856D01*
X0192000Y0155257D02*
X0191600Y0155257D01*
X0191600Y0153659D02*
X0192000Y0153659D01*
X0192000Y0152060D02*
X0191600Y0152060D01*
X0191600Y0151600D02*
X0186300Y0151600D01*
X0186300Y0151367D01*
X0186435Y0150512D01*
X0186703Y0149689D01*
X0187096Y0148917D01*
X0187605Y0148217D01*
X0188217Y0147605D01*
X0188917Y0147096D01*
X0189689Y0146703D01*
X0190512Y0146435D01*
X0191367Y0146300D01*
X0191600Y0146300D01*
X0191600Y0151600D01*
X0191600Y0150462D02*
X0192000Y0150462D01*
X0192000Y0148863D02*
X0191600Y0148863D01*
X0191600Y0147265D02*
X0192000Y0147265D01*
X0194915Y0147265D02*
X0196850Y0147265D01*
X0196850Y0148863D02*
X0196465Y0148863D01*
X0196850Y0145666D02*
X0169000Y0145666D01*
X0169000Y0144068D02*
X0196850Y0144068D01*
X0196850Y0142469D02*
X0169000Y0142469D01*
X0169000Y0140870D02*
X0191158Y0140870D01*
X0189804Y0139272D02*
X0169000Y0139272D01*
X0169000Y0137673D02*
X0189200Y0137673D01*
X0189200Y0136075D02*
X0169000Y0136075D01*
X0169000Y0134476D02*
X0189742Y0134476D01*
X0191010Y0132878D02*
X0169000Y0132878D01*
X0169000Y0131279D02*
X0191787Y0131279D01*
X0189973Y0129681D02*
X0169000Y0129681D01*
X0169000Y0128082D02*
X0189311Y0128082D01*
X0189200Y0126484D02*
X0169000Y0126484D01*
X0169000Y0124885D02*
X0189573Y0124885D01*
X0190601Y0123287D02*
X0169000Y0123287D01*
X0169000Y0121688D02*
X0192775Y0121688D01*
X0190377Y0120090D02*
X0169000Y0120090D01*
X0169000Y0118491D02*
X0189480Y0118491D01*
X0189200Y0116893D02*
X0169000Y0116893D01*
X0169000Y0115294D02*
X0189403Y0115294D01*
X0190192Y0113696D02*
X0179403Y0113696D01*
X0179981Y0112097D02*
X0192326Y0112097D01*
X0190786Y0110499D02*
X0179704Y0110499D01*
X0179000Y0108900D02*
X0189650Y0108900D01*
X0189200Y0107302D02*
X0179000Y0107302D01*
X0179000Y0105703D02*
X0189234Y0105703D01*
X0189896Y0104105D02*
X0179000Y0104105D01*
X0179000Y0102506D02*
X0191381Y0102506D01*
X0191195Y0100908D02*
X0179000Y0100908D01*
X0179000Y0099309D02*
X0189819Y0099309D01*
X0189200Y0097711D02*
X0179000Y0097711D01*
X0179000Y0096112D02*
X0189200Y0096112D01*
X0189727Y0094514D02*
X0179000Y0094514D01*
X0179000Y0092915D02*
X0190972Y0092915D01*
X0191877Y0091317D02*
X0179000Y0091317D01*
X0179000Y0089718D02*
X0190006Y0089718D01*
X0189326Y0088120D02*
X0179000Y0088120D01*
X0179000Y0086521D02*
X0189200Y0086521D01*
X0189557Y0084923D02*
X0179000Y0084923D01*
X0179000Y0083324D02*
X0190563Y0083324D01*
X0192864Y0081726D02*
X0179000Y0081726D01*
X0179000Y0080127D02*
X0190415Y0080127D01*
X0189496Y0078529D02*
X0179527Y0078529D01*
X0179981Y0076930D02*
X0189200Y0076930D01*
X0189388Y0075332D02*
X0179635Y0075332D01*
X0177708Y0073733D02*
X0190154Y0073733D01*
X0192237Y0072134D02*
X0141200Y0072134D01*
X0141200Y0071800D02*
X0141200Y0073623D01*
X0138623Y0076200D01*
X0136800Y0076200D01*
X0136800Y0071800D01*
X0141200Y0071800D01*
X0136800Y0071800D01*
X0136800Y0071800D01*
X0136800Y0071800D01*
X0136800Y0067400D01*
X0138623Y0067400D01*
X0141200Y0069977D01*
X0141200Y0071800D01*
X0141200Y0070536D02*
X0190258Y0070536D01*
X0189216Y0068937D02*
X0140160Y0068937D01*
X0136800Y0068937D02*
X0136800Y0068937D01*
X0136800Y0067400D02*
X0134977Y0067400D01*
X0132400Y0069977D01*
X0132400Y0071800D01*
X0136800Y0071800D01*
X0136800Y0071800D01*
X0136800Y0071800D01*
X0136800Y0076200D01*
X0134977Y0076200D01*
X0132400Y0073623D01*
X0132400Y0071800D01*
X0136800Y0071800D01*
X0136800Y0067400D01*
X0136800Y0070536D02*
X0136800Y0070536D01*
X0136800Y0072134D02*
X0136800Y0072134D01*
X0136800Y0073733D02*
X0136800Y0073733D01*
X0136800Y0075332D02*
X0136800Y0075332D01*
X0139491Y0075332D02*
X0173965Y0075332D01*
X0175892Y0073733D02*
X0141090Y0073733D01*
X0134109Y0075332D02*
X0128727Y0075332D01*
X0130329Y0073733D02*
X0132510Y0073733D01*
X0132400Y0072134D02*
X0130800Y0072134D01*
X0130606Y0070536D02*
X0132400Y0070536D01*
X0133440Y0068937D02*
X0129594Y0068937D01*
X0124006Y0068937D02*
X0122194Y0068937D01*
X0121358Y0065740D02*
X0188899Y0065740D01*
X0188935Y0065512D02*
X0189203Y0064689D01*
X0189596Y0063917D01*
X0190105Y0063217D01*
X0190717Y0062605D01*
X0191417Y0062096D01*
X0192189Y0061703D01*
X0193012Y0061435D01*
X0193867Y0061300D01*
X0194100Y0061300D01*
X0194100Y0066600D01*
X0188800Y0066600D01*
X0188800Y0066367D01*
X0188935Y0065512D01*
X0189482Y0064142D02*
X0123137Y0064142D01*
X0123737Y0062543D02*
X0190802Y0062543D01*
X0194100Y0062543D02*
X0194500Y0062543D01*
X0194500Y0064142D02*
X0194100Y0064142D01*
X0194100Y0065740D02*
X0194500Y0065740D01*
X0194300Y0066800D02*
X0194300Y0029300D01*
X0191800Y0026800D01*
X0196200Y0026800D01*
X0196200Y0028623D01*
X0193623Y0031200D01*
X0191800Y0031200D01*
X0191800Y0026800D01*
X0191800Y0026800D01*
X0191800Y0026800D01*
X0196200Y0026800D01*
X0196200Y0024977D01*
X0193623Y0022400D01*
X0191800Y0022400D01*
X0191800Y0026800D01*
X0191800Y0026800D01*
X0191800Y0026800D01*
X0187400Y0026800D01*
X0187400Y0028623D01*
X0189977Y0031200D01*
X0191800Y0031200D01*
X0191800Y0026800D01*
X0191800Y0022400D01*
X0189977Y0022400D01*
X0187400Y0024977D01*
X0187400Y0026800D01*
X0191800Y0026800D01*
X0191800Y0027376D02*
X0191800Y0027376D01*
X0191800Y0025778D02*
X0191800Y0025778D01*
X0191800Y0024179D02*
X0191800Y0024179D01*
X0191800Y0022581D02*
X0191800Y0022581D01*
X0193803Y0022581D02*
X0196850Y0022581D01*
X0196850Y0024179D02*
X0195402Y0024179D01*
X0196200Y0025778D02*
X0196850Y0025778D01*
X0196850Y0027376D02*
X0196200Y0027376D01*
X0195848Y0028975D02*
X0196850Y0028975D01*
X0196850Y0030573D02*
X0194249Y0030573D01*
X0191800Y0030573D02*
X0191800Y0030573D01*
X0191800Y0028975D02*
X0191800Y0028975D01*
X0189351Y0030573D02*
X0183684Y0030573D01*
X0185282Y0028975D02*
X0187752Y0028975D01*
X0187400Y0027376D02*
X0185800Y0027376D01*
X0185800Y0025778D02*
X0187400Y0025778D01*
X0188198Y0024179D02*
X0184836Y0024179D01*
X0189797Y0022581D02*
X0123400Y0022581D01*
X0123391Y0020982D02*
X0196850Y0020982D01*
X0196850Y0019384D02*
X0122640Y0019384D01*
X0122678Y0024179D02*
X0178764Y0024179D01*
X0186011Y0016187D02*
X0074298Y0016187D01*
X0075896Y0017785D02*
X0196850Y0017785D01*
X0196850Y0016187D02*
X0195089Y0016187D01*
X0196716Y0014588D02*
X0196850Y0014588D01*
X0184384Y0014588D02*
X0072699Y0014588D01*
X0071101Y0012990D02*
X0090398Y0012990D01*
X0093202Y0012990D02*
X0109380Y0012990D01*
X0111600Y0012990D02*
X0112000Y0012990D01*
X0112000Y0013550D02*
X0112000Y0008250D01*
X0117300Y0008250D01*
X0117300Y0008483D01*
X0117165Y0009338D01*
X0116897Y0010161D01*
X0116504Y0010933D01*
X0115995Y0011633D01*
X0115383Y0012245D01*
X0114683Y0012754D01*
X0113911Y0013147D01*
X0113088Y0013415D01*
X0112233Y0013550D01*
X0112000Y0013550D01*
X0112000Y0011391D02*
X0111600Y0011391D01*
X0111600Y0009793D02*
X0112000Y0009793D01*
X0112000Y0008194D02*
X0167800Y0008194D01*
X0167800Y0006596D02*
X0117110Y0006596D01*
X0116380Y0004997D02*
X0167946Y0004997D01*
X0169136Y0009793D02*
X0117017Y0009793D01*
X0116171Y0011391D02*
X0182650Y0011391D01*
X0182451Y0009793D02*
X0174464Y0009793D01*
X0175800Y0008194D02*
X0182451Y0008194D01*
X0182904Y0006596D02*
X0175800Y0006596D01*
X0175654Y0004997D02*
X0183566Y0004997D01*
X0183312Y0012990D02*
X0114220Y0012990D01*
X0111600Y0008194D02*
X0096900Y0008194D01*
X0096718Y0006596D02*
X0106490Y0006596D01*
X0107220Y0004997D02*
X0095960Y0004997D01*
X0096598Y0009793D02*
X0106583Y0009793D01*
X0107429Y0011391D02*
X0095671Y0011391D01*
X0087929Y0011391D02*
X0069502Y0011391D01*
X0067904Y0009793D02*
X0087002Y0009793D01*
X0086700Y0008194D02*
X0056305Y0008194D01*
X0054707Y0006596D02*
X0086882Y0006596D01*
X0087640Y0004997D02*
X0053108Y0004997D01*
X0051681Y0009793D02*
X0050449Y0009793D01*
X0050800Y0011391D02*
X0053280Y0011391D01*
X0054878Y0012990D02*
X0050800Y0012990D01*
X0049669Y0014588D02*
X0066477Y0014588D01*
X0068075Y0016187D02*
X0041500Y0016187D01*
X0041500Y0017785D02*
X0069674Y0017785D01*
X0070040Y0019384D02*
X0071272Y0019384D01*
X0070800Y0020982D02*
X0072871Y0020982D01*
X0073281Y0022581D02*
X0074469Y0022581D01*
X0077495Y0019384D02*
X0080960Y0019384D01*
X0075863Y0028975D02*
X0070197Y0028975D01*
X0069836Y0025778D02*
X0068479Y0025778D01*
X0079312Y0033770D02*
X0080266Y0033770D01*
X0079981Y0035369D02*
X0081626Y0035369D01*
X0086800Y0035369D02*
X0086800Y0035369D01*
X0086800Y0033770D02*
X0086800Y0033770D01*
X0086800Y0032172D02*
X0086800Y0032172D01*
X0091800Y0026800D02*
X0096800Y0021800D01*
X0116800Y0021800D01*
X0121823Y0038566D02*
X0196850Y0038566D01*
X0196850Y0040164D02*
X0123052Y0040164D01*
X0123400Y0041763D02*
X0196850Y0041763D01*
X0196850Y0043361D02*
X0174018Y0043361D01*
X0175617Y0044960D02*
X0196850Y0044960D01*
X0196850Y0046558D02*
X0175800Y0046558D01*
X0175800Y0048157D02*
X0196850Y0048157D01*
X0196850Y0049755D02*
X0174501Y0049755D01*
X0169582Y0043361D02*
X0123083Y0043361D01*
X0121139Y0057748D02*
X0196850Y0057748D01*
X0196850Y0059346D02*
X0123056Y0059346D01*
X0123719Y0060945D02*
X0196850Y0060945D01*
X0188817Y0067339D02*
X0077283Y0067339D01*
X0077201Y0065740D02*
X0083261Y0065740D01*
X0080885Y0064142D02*
X0076618Y0064142D01*
X0075298Y0062543D02*
X0080200Y0062543D01*
X0080225Y0060945D02*
X0074868Y0060945D01*
X0076265Y0059346D02*
X0080997Y0059346D01*
X0076900Y0057748D02*
X0112461Y0057748D01*
X0116800Y0057748D02*
X0116800Y0057748D01*
X0116800Y0059346D02*
X0116800Y0059346D01*
X0116800Y0060945D02*
X0116800Y0060945D01*
X0116800Y0062543D02*
X0116800Y0062543D01*
X0116800Y0064142D02*
X0116800Y0064142D01*
X0116800Y0065740D02*
X0116800Y0065740D01*
X0122929Y0073733D02*
X0123271Y0073733D01*
X0124873Y0075332D02*
X0121327Y0075332D01*
X0121785Y0078529D02*
X0174073Y0078529D01*
X0174600Y0080127D02*
X0123037Y0080127D01*
X0123400Y0081726D02*
X0174600Y0081726D01*
X0174600Y0083324D02*
X0123098Y0083324D01*
X0122566Y0099309D02*
X0154792Y0099309D01*
X0156800Y0101800D02*
X0166800Y0111800D01*
X0166800Y0171800D01*
X0164458Y0169644D02*
X0130301Y0169644D01*
X0130800Y0171242D02*
X0163619Y0171242D01*
X0163788Y0172841D02*
X0153498Y0172841D01*
X0155096Y0174439D02*
X0164940Y0174439D01*
X0164600Y0168045D02*
X0128702Y0168045D01*
X0130800Y0172841D02*
X0150102Y0172841D01*
X0162750Y0161651D02*
X0164600Y0161651D01*
X0164600Y0160053D02*
X0162750Y0160053D01*
X0162750Y0158454D02*
X0164600Y0158454D01*
X0164600Y0156856D02*
X0162750Y0156856D01*
X0162750Y0155257D02*
X0164600Y0155257D01*
X0164600Y0153659D02*
X0162750Y0153659D01*
X0162750Y0152060D02*
X0164600Y0152060D01*
X0164600Y0150462D02*
X0162750Y0150462D01*
X0162750Y0148863D02*
X0164600Y0148863D01*
X0164600Y0147265D02*
X0162750Y0147265D01*
X0162750Y0145666D02*
X0164600Y0145666D01*
X0164600Y0144068D02*
X0162750Y0144068D01*
X0158350Y0150462D02*
X0135800Y0150462D01*
X0135800Y0152060D02*
X0158350Y0152060D01*
X0158350Y0153659D02*
X0135598Y0153659D01*
X0134000Y0155257D02*
X0158350Y0155257D01*
X0163558Y0163250D02*
X0164600Y0163250D01*
X0164600Y0164848D02*
X0163731Y0164848D01*
X0162902Y0166447D02*
X0164600Y0166447D01*
X0169000Y0155257D02*
X0187513Y0155257D01*
X0186621Y0153659D02*
X0169000Y0153659D01*
X0169000Y0152060D02*
X0186300Y0152060D01*
X0186452Y0150462D02*
X0169000Y0150462D01*
X0169000Y0148863D02*
X0187135Y0148863D01*
X0188685Y0147265D02*
X0169000Y0147265D01*
X0149600Y0132878D02*
X0123283Y0132878D01*
X0123400Y0131279D02*
X0149600Y0131279D01*
X0149600Y0129681D02*
X0122852Y0129681D01*
X0120877Y0128082D02*
X0149600Y0128082D01*
X0147800Y0137673D02*
X0133896Y0137673D01*
X0131800Y0137673D02*
X0131800Y0137673D01*
X0131800Y0139272D02*
X0131800Y0139272D01*
X0131800Y0140870D02*
X0131800Y0140870D01*
X0131800Y0142469D02*
X0131800Y0142469D01*
X0131800Y0144068D02*
X0131800Y0144068D01*
X0131800Y0145666D02*
X0131800Y0145666D01*
X0116800Y0145666D02*
X0116800Y0145666D01*
X0116800Y0144068D02*
X0116800Y0144068D01*
X0116800Y0142469D02*
X0116800Y0142469D01*
X0116800Y0140870D02*
X0116800Y0140870D01*
X0116800Y0139272D02*
X0116800Y0139272D01*
X0116800Y0137673D02*
X0116800Y0137673D01*
X0111220Y0134476D02*
X0092380Y0134476D01*
X0093283Y0132878D02*
X0110317Y0132878D01*
X0110200Y0131279D02*
X0093400Y0131279D01*
X0092852Y0129681D02*
X0110748Y0129681D01*
X0112723Y0128082D02*
X0090877Y0128082D01*
X0091971Y0124885D02*
X0111629Y0124885D01*
X0110486Y0123287D02*
X0093114Y0123287D01*
X0093400Y0121688D02*
X0110200Y0121688D01*
X0110579Y0120090D02*
X0093021Y0120090D01*
X0092944Y0113696D02*
X0110656Y0113696D01*
X0110200Y0112097D02*
X0093400Y0112097D01*
X0093191Y0110499D02*
X0110409Y0110499D01*
X0111443Y0108900D02*
X0092157Y0108900D01*
X0094223Y0096112D02*
X0098001Y0096112D01*
X0096402Y0094514D02*
X0092343Y0094514D01*
X0093268Y0092915D02*
X0094804Y0092915D01*
X0107420Y0099309D02*
X0111034Y0099309D01*
X0082273Y0075332D02*
X0076712Y0075332D01*
X0075945Y0073733D02*
X0080671Y0073733D01*
X0080200Y0072134D02*
X0073863Y0072134D01*
X0075842Y0070536D02*
X0080394Y0070536D01*
X0081406Y0068937D02*
X0076884Y0068937D01*
X0081800Y0051800D02*
X0076800Y0046800D01*
X0076800Y0036800D01*
X0081268Y0048157D02*
X0082543Y0048157D01*
X0081800Y0051800D02*
X0086800Y0051800D01*
X0093391Y0020982D02*
X0094507Y0020982D01*
X0054432Y0062543D02*
X0034168Y0062543D01*
X0034000Y0064142D02*
X0054600Y0064142D01*
X0054600Y0065740D02*
X0034000Y0065740D01*
X0034000Y0067339D02*
X0054600Y0067339D01*
X0054600Y0068937D02*
X0034000Y0068937D01*
X0034000Y0070536D02*
X0054600Y0070536D01*
X0054600Y0072134D02*
X0034000Y0072134D01*
X0034000Y0073733D02*
X0054600Y0073733D01*
X0054600Y0075332D02*
X0034000Y0075332D01*
X0034000Y0076930D02*
X0054600Y0076930D01*
X0054600Y0078529D02*
X0034000Y0078529D01*
X0034000Y0080127D02*
X0054600Y0080127D01*
X0054600Y0081726D02*
X0034000Y0081726D01*
X0034000Y0083324D02*
X0055213Y0083324D01*
X0056811Y0084923D02*
X0049421Y0084923D01*
X0049981Y0086521D02*
X0058410Y0086521D01*
X0060008Y0088120D02*
X0049697Y0088120D01*
X0043619Y0086521D02*
X0034000Y0086521D01*
X0034000Y0084923D02*
X0044179Y0084923D01*
X0049000Y0096112D02*
X0059377Y0096112D01*
X0057778Y0097711D02*
X0049000Y0097711D01*
X0049000Y0099309D02*
X0056180Y0099309D01*
X0054581Y0100908D02*
X0049000Y0100908D01*
X0049000Y0102506D02*
X0052983Y0102506D01*
X0051384Y0104105D02*
X0049000Y0104105D01*
X0049000Y0105703D02*
X0049785Y0105703D01*
X0069000Y0120090D02*
X0080579Y0120090D01*
X0080200Y0121688D02*
X0069000Y0121688D01*
X0069000Y0123287D02*
X0080486Y0123287D01*
X0081629Y0124885D02*
X0069000Y0124885D01*
X0029600Y0124885D02*
X0011527Y0124885D01*
X0011900Y0126484D02*
X0029600Y0126484D01*
X0029600Y0128082D02*
X0011789Y0128082D01*
X0011127Y0129681D02*
X0029600Y0129681D01*
X0029600Y0131279D02*
X0009313Y0131279D01*
X0010090Y0132878D02*
X0029600Y0132878D01*
X0029600Y0134476D02*
X0011358Y0134476D01*
X0011900Y0136075D02*
X0029600Y0136075D01*
X0029600Y0137673D02*
X0011900Y0137673D01*
X0010499Y0123287D02*
X0029600Y0123287D01*
X0029600Y0121688D02*
X0008325Y0121688D01*
X0010723Y0120090D02*
X0029600Y0120090D01*
X0029600Y0118491D02*
X0011620Y0118491D01*
X0011900Y0116893D02*
X0029600Y0116893D01*
X0029600Y0115294D02*
X0011697Y0115294D01*
X0010908Y0113696D02*
X0029600Y0113696D01*
X0029600Y0112097D02*
X0008774Y0112097D01*
X0010314Y0110499D02*
X0029600Y0110499D01*
X0029600Y0108900D02*
X0011450Y0108900D01*
X0011900Y0107302D02*
X0029600Y0107302D01*
X0029600Y0105703D02*
X0011866Y0105703D01*
X0011204Y0104105D02*
X0029600Y0104105D01*
X0029600Y0102506D02*
X0009719Y0102506D01*
X0009905Y0100908D02*
X0029600Y0100908D01*
X0029600Y0099309D02*
X0011281Y0099309D01*
X0011900Y0097711D02*
X0029600Y0097711D01*
X0029600Y0096112D02*
X0011900Y0096112D01*
X0011373Y0094514D02*
X0029600Y0094514D01*
X0029600Y0092915D02*
X0010128Y0092915D01*
X0009223Y0091317D02*
X0029600Y0091317D01*
X0029600Y0089718D02*
X0011094Y0089718D01*
X0011774Y0088120D02*
X0029600Y0088120D01*
X0029600Y0086521D02*
X0011900Y0086521D01*
X0011543Y0084923D02*
X0029600Y0084923D01*
X0029600Y0083324D02*
X0010537Y0083324D01*
X0008236Y0081726D02*
X0029600Y0081726D01*
X0029600Y0080127D02*
X0010685Y0080127D01*
X0011604Y0078529D02*
X0029600Y0078529D01*
X0029600Y0076930D02*
X0011900Y0076930D01*
X0011712Y0075332D02*
X0029600Y0075332D01*
X0029600Y0073733D02*
X0010945Y0073733D01*
X0008863Y0072134D02*
X0029600Y0072134D01*
X0029600Y0070536D02*
X0010842Y0070536D01*
X0011884Y0068937D02*
X0029600Y0068937D01*
X0029600Y0067339D02*
X0012283Y0067339D01*
X0012300Y0066600D02*
X0007000Y0066600D01*
X0007000Y0061300D01*
X0007233Y0061300D01*
X0008088Y0061435D01*
X0008911Y0061703D01*
X0009683Y0062096D01*
X0010383Y0062605D01*
X0010995Y0063217D01*
X0011504Y0063917D01*
X0011897Y0064689D01*
X0012165Y0065512D01*
X0012300Y0066367D01*
X0012300Y0066600D01*
X0012201Y0065740D02*
X0029600Y0065740D01*
X0029600Y0064142D02*
X0011618Y0064142D01*
X0010298Y0062543D02*
X0029600Y0062543D01*
X0029600Y0060945D02*
X0003600Y0060945D01*
X0003600Y0059346D02*
X0031142Y0059346D01*
X0032741Y0057748D02*
X0003600Y0057748D01*
X0003600Y0056149D02*
X0034339Y0056149D01*
X0033457Y0055800D02*
X0030143Y0055800D01*
X0027800Y0053457D01*
X0027800Y0050143D01*
X0030143Y0047800D01*
X0033457Y0047800D01*
X0035800Y0050143D01*
X0035800Y0053457D01*
X0033457Y0055800D01*
X0034706Y0054551D02*
X0035938Y0054551D01*
X0035800Y0052952D02*
X0037100Y0052952D01*
X0037100Y0051354D02*
X0035800Y0051354D01*
X0035412Y0049755D02*
X0037100Y0049755D01*
X0037100Y0048157D02*
X0033814Y0048157D01*
X0037100Y0046558D02*
X0003600Y0046558D01*
X0003600Y0044960D02*
X0037100Y0044960D01*
X0037100Y0043361D02*
X0003600Y0043361D01*
X0003600Y0041763D02*
X0037100Y0041763D01*
X0037100Y0040164D02*
X0003600Y0040164D01*
X0003600Y0038566D02*
X0037100Y0038566D01*
X0037100Y0036967D02*
X0003600Y0036967D01*
X0003600Y0035369D02*
X0037100Y0035369D01*
X0037100Y0033770D02*
X0003600Y0033770D01*
X0003600Y0032172D02*
X0037100Y0032172D01*
X0037100Y0030573D02*
X0018684Y0030573D01*
X0018457Y0030800D02*
X0015143Y0030800D01*
X0012800Y0028457D01*
X0012800Y0025143D01*
X0015143Y0022800D01*
X0018457Y0022800D01*
X0020800Y0025143D01*
X0020800Y0028457D01*
X0018457Y0030800D01*
X0020282Y0028975D02*
X0037100Y0028975D01*
X0037100Y0027376D02*
X0020800Y0027376D01*
X0020800Y0025778D02*
X0037100Y0025778D01*
X0037100Y0024179D02*
X0019836Y0024179D01*
X0013764Y0024179D02*
X0010402Y0024179D01*
X0011200Y0025778D02*
X0012800Y0025778D01*
X0012800Y0027376D02*
X0011200Y0027376D01*
X0010848Y0028975D02*
X0013318Y0028975D01*
X0014916Y0030573D02*
X0009249Y0030573D01*
X0006800Y0030573D02*
X0006800Y0030573D01*
X0006800Y0028975D02*
X0006800Y0028975D01*
X0006800Y0027376D02*
X0006800Y0027376D01*
X0006800Y0026800D02*
X0006800Y0022400D01*
X0006800Y0026800D01*
X0006800Y0026800D01*
X0006800Y0025778D02*
X0006800Y0025778D01*
X0006800Y0024179D02*
X0006800Y0024179D01*
X0006800Y0022581D02*
X0006800Y0022581D01*
X0008803Y0022581D02*
X0037100Y0022581D01*
X0037100Y0020982D02*
X0003600Y0020982D01*
X0003600Y0019384D02*
X0037100Y0019384D01*
X0037100Y0017785D02*
X0003600Y0017785D01*
X0003600Y0016187D02*
X0004761Y0016187D01*
X0004797Y0022581D02*
X0003600Y0022581D01*
X0003600Y0030573D02*
X0004351Y0030573D01*
X0013839Y0016187D02*
X0037100Y0016187D01*
X0037100Y0014588D02*
X0034669Y0014588D01*
X0035800Y0013457D02*
X0033457Y0015800D01*
X0030143Y0015800D01*
X0027800Y0013457D01*
X0027800Y0010143D01*
X0030143Y0007800D01*
X0033457Y0007800D01*
X0035800Y0010143D01*
X0035800Y0013457D01*
X0035800Y0012990D02*
X0037100Y0012990D01*
X0037100Y0011391D02*
X0035800Y0011391D01*
X0035449Y0009793D02*
X0037100Y0009793D01*
X0037100Y0008194D02*
X0033851Y0008194D01*
X0029749Y0008194D02*
X0017399Y0008194D01*
X0017399Y0009793D02*
X0028151Y0009793D01*
X0027800Y0011391D02*
X0017200Y0011391D01*
X0016538Y0012990D02*
X0027800Y0012990D01*
X0028931Y0014588D02*
X0015466Y0014588D01*
X0016946Y0006596D02*
X0037643Y0006596D01*
X0039242Y0004997D02*
X0016284Y0004997D01*
X0041500Y0009793D02*
X0043151Y0009793D01*
X0042800Y0011391D02*
X0041500Y0011391D01*
X0041500Y0012990D02*
X0042800Y0012990D01*
X0043931Y0014588D02*
X0041500Y0014588D01*
X0041500Y0048157D02*
X0044786Y0048157D01*
X0043188Y0049755D02*
X0041500Y0049755D01*
X0041500Y0051354D02*
X0042800Y0051354D01*
X0042800Y0052952D02*
X0041500Y0052952D01*
X0041500Y0054551D02*
X0043894Y0054551D01*
X0040562Y0056149D02*
X0048038Y0056149D01*
X0049637Y0057748D02*
X0038963Y0057748D01*
X0037365Y0059346D02*
X0051235Y0059346D01*
X0052834Y0060945D02*
X0035766Y0060945D01*
X0028894Y0054551D02*
X0003600Y0054551D01*
X0003600Y0052952D02*
X0027800Y0052952D01*
X0027800Y0051354D02*
X0003600Y0051354D01*
X0003600Y0049755D02*
X0028188Y0049755D01*
X0029786Y0048157D02*
X0003600Y0048157D01*
X0006600Y0062543D02*
X0007000Y0062543D01*
X0007000Y0064142D02*
X0006600Y0064142D01*
X0006600Y0065740D02*
X0007000Y0065740D01*
X0109472Y0163250D02*
X0109600Y0163250D01*
X0114000Y0169644D02*
X0123299Y0169644D01*
X0122800Y0171242D02*
X0114353Y0171242D01*
X0115952Y0172841D02*
X0122800Y0172841D01*
X0123782Y0174439D02*
X0117550Y0174439D01*
X0119149Y0176038D02*
X0133673Y0176038D01*
X0132852Y0177636D02*
X0120748Y0177636D01*
X0122346Y0179235D02*
X0131254Y0179235D01*
X0129655Y0180833D02*
X0123945Y0180833D01*
X0125543Y0182432D02*
X0128057Y0182432D01*
X0131082Y0185629D02*
X0184017Y0185629D01*
X0183160Y0187227D02*
X0179087Y0187227D01*
X0181038Y0188826D02*
X0182498Y0188826D01*
X0182451Y0190424D02*
X0181750Y0190424D01*
X0181900Y0192023D02*
X0182451Y0192023D01*
X0183056Y0193621D02*
X0181566Y0193621D01*
X0180593Y0195220D02*
X0183766Y0195220D01*
X0185364Y0196818D02*
X0178011Y0196818D01*
X0171850Y0190424D02*
X0171750Y0190424D01*
X0171038Y0188826D02*
X0172562Y0188826D01*
X0174512Y0187227D02*
X0169088Y0187227D01*
X0164512Y0187227D02*
X0159088Y0187227D01*
X0161038Y0188826D02*
X0162562Y0188826D01*
X0161850Y0190424D02*
X0161750Y0190424D01*
X0154512Y0187227D02*
X0149863Y0187227D01*
X0151438Y0188826D02*
X0152562Y0188826D01*
X0147000Y0188826D02*
X0146600Y0188826D01*
X0146600Y0190424D02*
X0147000Y0190424D01*
X0147000Y0187227D02*
X0146600Y0187227D01*
X0143737Y0187227D02*
X0139088Y0187227D01*
X0141038Y0188826D02*
X0142162Y0188826D01*
X0134512Y0187227D02*
X0129484Y0187227D01*
X0131038Y0188826D02*
X0132562Y0188826D01*
X0131850Y0190424D02*
X0131750Y0190424D01*
X0126800Y0186800D02*
X0111800Y0171800D01*
X0129818Y0174439D02*
X0134662Y0174439D01*
X0134279Y0182432D02*
X0196850Y0182432D01*
X0196850Y0184030D02*
X0195484Y0184030D01*
X0185616Y0184030D02*
X0132681Y0184030D01*
X0100019Y0190424D02*
X0099398Y0190424D01*
X0164535Y0120090D02*
X0164600Y0120090D01*
X0193993Y0156856D02*
X0196850Y0156856D01*
X0196850Y0155257D02*
X0196087Y0155257D01*
D19*
X0166800Y0171800D03*
X0160550Y0164300D03*
X0136800Y0176800D03*
X0161800Y0121800D03*
X0176800Y0111800D03*
X0156800Y0101800D03*
X0139300Y0111800D03*
X0176800Y0076800D03*
X0096800Y0101800D03*
X0046800Y0086800D03*
X0051800Y0161800D03*
D20*
X0076800Y0036800D03*
M02*
